<!DOCTYPE svg PUBLIC "-//W3C//DTD SVG 20010904//EN" "http://www.w3.org/TR/2001/REC-SVG-20010904/DTD/svg10.dtd">
<svg version="1.0" xmlns="http://www.w3.org/2000/svg" width="150px" height="150px" viewBox="0 0 1500 1500" preserveAspectRatio="xMidYMid meet">
<g id="layer101" fill="#000000" stroke="none">
<path d="M130 1345 l0 -45 25 0 25 0 0 -25 0 -25 20 0 20 0 0 -45 0 -45 -20 0 -20 0 0 -45 0 -45 -25 0 -25 0 0 -70 0 -70 20 0 20 0 0 -20 0 -20 25 0 25 0 0 -115 0 -115 25 0 25 0 0 -110 0 -110 25 0 25 0 0 -45 0 -45 20 0 20 0 0 -25 0 -25 25 0 25 0 0 -25 0 -25 20 0 20 0 0 -25 0 -25 25 0 25 0 0 -25 0 -25 50 0 50 0 0 -15 0 -15 175 0 175 0 0 20 0 20 45 0 45 0 0 25 0 25 20 0 20 0 0 25 0 25 20 0 20 0 0 45 0 45 25 0 25 0 0 45 0 45 25 0 25 0 0 155 0 155 65 0 65 0 0 25 0 25 25 0 25 0 1 25 c1 14 2 39 2 55 0 17 -1 37 -2 45 l-1 15 -25 0 -25 0 0 20 0 20 -21 0 -21 0 -5 20 -5 20 -19 0 -19 0 0 25 0 25 -25 0 -25 0 0 20 0 20 -20 0 -20 0 0 50 0 50 20 0 20 0 0 25 0 25 25 0 25 0 0 20 0 20 25 0 25 0 0 45 0 45 -135 0 -135 0 0 -20 0 -20 -25 0 -25 0 0 20 0 20 -295 0 -295 0 0 -20 0 -20 -20 0 -20 0 0 20 0 20 -115 0 -115 0 0 -45z"/>
</g>
<g id="layer102" fill="#f57912" stroke="none">
<path d="M180 1320 l0 -20 90 0 90 0 0 20 0 20 -90 0 -90 0 0 -20z"/>
<path d="M1040 1320 l0 -20 110 0 110 0 0 20 0 20 -110 0 -110 0 0 -20z"/>
<path d="M630 730 l0 -20 90 0 90 0 0 20 0 20 -90 0 -90 0 0 -20z"/>
</g>
<g id="layer103" fill="#ececec" stroke="none">
<path d="M560 1275 l0 -25 -50 0 -50 0 0 -25 0 -25 -25 0 -25 0 0 -45 0 -45 20 0 20 0 0 -20 0 -20 20 0 20 0 0 -20 0 -20 25 0 25 0 0 -25 0 -25 25 0 25 0 0 -45 0 -45 -25 0 -25 0 0 -25 0 -25 -45 0 -45 0 0 -20 0 -20 -45 0 -45 0 0 -110 0 -110 25 0 25 0 0 -50 0 -50 20 0 20 0 0 -25 0 -25 20 0 20 0 0 -20 0 -20 25 0 25 0 0 -25 0 -25 20 0 20 0 0 -20 0 -20 45 0 45 0 0 20 0 20 25 0 25 0 0 25 0 25 90 0 90 0 0 -25 0 -25 45 0 45 0 0 25 0 25 20 0 20 0 0 25 0 25 25 0 25 0 0 55 0 55 25 0 25 0 0 135 0 135 -20 0 -20 0 0 65 0 65 -25 0 -25 0 0 70 0 70 -25 0 -25 0 0 30 0 30 -25 0 -25 0 0 25 0 25 -25 0 -25 0 0 25 0 25 -50 0 -50 0 0 25 0 25 -115 0 -115 0 0 -25z m290 -525 l0 -40 -20 0 -20 0 0 -25 0 -25 -90 0 -90 0 0 25 0 25 -20 0 -20 0 0 20 0 20 20 0 20 0 0 20 0 20 110 0 110 0 0 -40z m120 -110 l0 -30 -30 0 -30 0 0 23 c0 30 7 37 37 37 l23 0 0 -30z m-400 -60 l0 -30 -30 0 -30 0 0 23 c0 13 3 27 7 30 3 4 17 7 30 7 l23 0 0 -30z"/>
</g>


</svg>