<?xml version="1.0" encoding="UTF-8"?>
<!DOCTYPE svg PUBLIC "-//W3C//DTD SVG 1.1//EN" "http://www.w3.org/Graphics/SVG/1.1/DTD/svg11.dtd">
<!-- Creator: CorelDRAW 2017 -->
<svg xmlns="http://www.w3.org/2000/svg" xml:space="preserve" width="5.001in" height="3.518in" version="1.1" style="shape-rendering:geometricPrecision; text-rendering:geometricPrecision; image-rendering:optimizeQuality; fill-rule:evenodd; clip-rule:evenodd"
viewBox="0 0 500100 351800"
 xmlns:xlink="http://www.w3.org/1999/xlink">
 <defs>
  <style type="text/css">
   <![CDATA[
    .fil4 {fill:#FEFEFE;fill-rule:nonzero}
    .fil0 {fill:#373435;fill-rule:nonzero}
    .fil2 {fill:#FFEFB3;fill-rule:nonzero}
    .fil1 {fill:#FFCC29;fill-rule:nonzero}
    .fil3 {fill:#F27135;fill-rule:nonzero}
    .fil5 {fill:#ED3237;fill-rule:nonzero}
    .fil6 {fill:#009FD7;fill-rule:nonzero}
   ]]>
  </style>
 </defs>
 <g id="Layer_x0020_1">
  <metadata id="CorelCorpID_0Corel-Layer"/>
  <g id="_2961112055488">
   <polygon class="fil0" points="104323,1667 161375,1667 156006,23639 128652,23639 125950,35183 154486,35183 149514,55539 121355,55539 114595,84468 85112,84468 "/>
   <polygon class="fil0" points="169126,1667 198606,1667 179411,84468 149936,84468 "/>
   <path class="fil0" d="M228079 41144c9474,0 16102,-5587 16102,-13532 0,-4222 -3113,-6332 -9200,-6332 -1752,0 -2703,126 -4592,507l-4464 19104c948,126 1078,253 2154,253zm-21760 -38981l1888 -242c9478,-1123 21226,-1869 27722,-1869 10818,0 19197,1240 25560,3852 8104,3351 12982,10671 12982,19486 0,7568 -2575,14768 -7452,20352 -4183,4847 -7967,7206 -15807,9564l-1897 620c808,628 1083,869 1494,1244 2292,2600 9183,16020 15007,29299l-32458 0c-4194,-11803 -5407,-14906 -10951,-28314l-6491 28314 -28667 0 19069 -82304z"/>
   <polygon class="fil0" points="344444,1667 415947,1667 410956,25637 389724,25637 375668,84468 346192,84468 360247,25637 337246,25637 "/>
   <path class="fil0" d="M389271 76618c635,0 1003,-311 1003,-886 0,-567 -336,-867 -982,-867 -136,0 -157,0 -302,28l0 1697c113,28 165,28 281,28zm-2592 -3444c364,-32 431,-56 1139,-102 725,-65 1042,-96 1337,-96 2363,0 3535,917 3535,2665 0,1060 -454,1703 -1394,2057l-106 32c81,58 106,79 139,137 243,222 1075,1472 1772,2611l-2691 0c-558,-1028 -728,-1308 -1421,-2469l0 2469 -2311 0 0 -7306zm2789 9971c3496,0 6303,-2807 6303,-6274 0,-3508 -2807,-6311 -6303,-6311 -3485,0 -6287,2803 -6287,6279 0,3533 2778,6306 6287,6306zm0 -13475c3972,0 7190,3196 7190,7170 0,4004 -3197,7203 -7190,7203 -4037,0 -7172,-3146 -7172,-7203 0,-3999 3164,-7170 7172,-7170z"/>
   <path class="fil0" d="M327972 40400c-3374,-2732 -6893,-4843 -14067,-8192l-5806 -2729c-1893,-997 -2842,-1987 -2842,-3101 0,-2988 3793,-5225 8921,-5225 3854,0 8431,1124 17178,3978l6048 -22403c-6554,-1782 -12932,-2675 -19300,-2675 -24072,0 -42603,13160 -42603,30161 0,8942 5950,15274 20831,22221 7029,3229 8254,4096 8254,6328 0,3356 -3651,5465 -9603,5465 -5276,0 -12040,-1614 -21226,-4968l-7 0 -6480 23093c8289,2469 17349,3840 25822,3840 11493,0 20274,-2596 27848,-8056 8376,-5961 13788,-15147 13788,-23471 0,-5587 -2432,-10674 -6759,-14267z"/>
   <polygon class="fil0" points="376732,232654 293678,232654 293678,244518 281808,244518 281808,268248 305496,291979 293590,291979 293590,303994 281808,303994 281808,327752 305317,351396 329048,351396 329048,339530 340911,339530 340911,327876 364642,351396 388374,351396 388374,339530 400239,339530 400239,256474 "/>
   <polygon class="fil1" points="376714,244514 293660,244514 293660,268409 329256,268409 329256,280272 317390,280272 317390,291982 305525,291982 305525,304002 293660,304002 293660,327752 317390,327752 317390,315868 329256,315868 329256,304002 341121,304002 341121,292137 352983,292137 352983,327728 376714,327728 "/>
   <polygon class="fil2" points="293683,256444 376714,256444 376714,244514 293683,244514 "/>
   <polygon class="fil3" points="329272,303993 341137,303993 341137,292129 329272,292129 "/>
   <polygon class="fil3" points="352993,327754 376740,327754 376740,315890 352993,315890 "/>
   <polygon class="fil3" points="317426,315892 329292,315892 329292,304029 317426,304029 "/>
   <polygon class="fil3" points="305535,327752 317400,327752 317400,315887 305535,315887 "/>
   <polygon class="fil4" points="364694,256444 376714,256444 376714,244514 364694,244514 "/>
   <polygon class="fil0" points="124796,233168 124796,325707 101252,325707 101252,243785 78526,233168 63104,233168 63104,325707 78526,332970 78526,341130 101252,351747 147522,351747 147522,336324 162946,336324 162946,243785 140219,233168 "/>
   <path class="fil0" d="M446472 147400l-8129 0 0 -20231 23550 0 0 20231 -15421 0zm53578 -20231l-15432 -7129 0 -8293 -22725 -10618 -61698 0 0 107964 22725 10618 15424 0 0 -38018 8129 3811 0 8165 15421 7196 0 8228 22725 10618 15422 0 0 -15426 -15422 -7065 0 -8354 -15422 -7068 0 -8356 15422 0 0 -15426 -4 -3 4 -6 0 8 15422 0 0 -30825 10 -21z"/>
   <polygon class="fil0" points="359375,101129 297683,101129 297683,209093 320408,219711 397526,219711 397526,204285 374797,193669 335831,193669 335831,173442 382100,173442 382100,158015 359375,147400 335831,147400 335831,127169 397526,127169 397526,111747 374797,101129 "/>
   <path class="fil0" d="M218818 279438l-8121 0 0 -20230 23544 0 0 20230 -15424 0zm38150 -27629l0 -8024 -22726 -10617 -61696 0 0 107962 22728 10617 15424 0 0 -46268 46271 0 0 -15428 15422 0 0 -30843 -254 0 -15168 -7400z"/>
   <polygon class="fil0" points="256306,101129 256306,154689 240882,147400 232761,147400 232761,111747 210035,101129 194610,101129 194610,209093 217333,219711 232761,219711 232761,204285 248185,204285 248185,197064 256306,200886 256306,209093 279031,219711 294454,219711 294454,111747 271728,101129 "/>
   <path class="fil0" d="M61742 131981l0 15419 -23544 0 0 -20231 23544 0 0 4811zm83594 -4679l8118 0 0 66368 -23541 0 0 -61620 17 -68 0 -4679 15405 0zm-60870 46140l0 -15214 7296 0 0 35441 15424 7259 0 8165 22728 10618 46270 0 0 -15426 15424 0 0 -77115 -15424 -7044 0 -8247 -22729 -10617 -46269 0 0 15291 -15424 0 0 7014 -7296 -3403 0 -8415 -22724 -10618 -61692 0 0 107964 22724 10618 15424 0 0 -46269 46268 0z"/>
   <polygon class="fil5" points="61742,131981 61742,147400 77165,147400 77165,116552 61742,116552 "/>
   <polygon class="fil5" points="30896,147400 15474,147400 15474,116552 61742,116552 61742,101129 50,101129 50,209093 15474,209093 15474,162825 61742,162825 61742,147400 "/>
   <polygon class="fil5" points="153454,131981 153454,193669 168881,193669 168881,116552 153454,116552 "/>
   <polygon class="fil5" points="107186,162825 107186,116552 91762,116552 91762,193669 107186,193669 "/>
   <polygon class="fil5" points="122609,193669 107186,193669 107186,209093 153454,209093 153454,193669 "/>
   <polygon class="fil5" points="138032,116552 153454,116552 153454,101129 107186,101129 107186,116552 "/>
   <polygon class="fil5" points="240882,147400 225458,147400 225458,178249 240882,178249 "/>
   <polygon class="fil5" points="210035,162825 210035,101129 194610,101129 194610,209093 210035,209093 210035,193669 225458,193669 225458,178249 210035,178249 "/>
   <polygon class="fil5" points="256306,116552 256306,178249 240882,178249 240882,193669 256306,193669 256306,209093 271728,209093 271728,101129 256306,101129 "/>
   <polygon class="fil5" points="343950,101129 297683,101129 297683,209093 374797,209093 374797,193669 313106,193669 313106,162825 359375,162825 359375,147400 313106,147400 313106,116552 374797,116552 374797,101129 "/>
   <polygon class="fil5" points="446472,193669 461893,193669 461893,178248 446472,178248 "/>
   <polygon class="fil5" points="461893,209093 477317,209093 477317,193669 461893,193669 "/>
   <polygon class="fil5" points="431046,147400 415619,147400 415619,116552 461893,116552 461893,101129 400194,101129 400194,209093 415619,209093 415619,162825 431046,162825 431046,178249 446472,178249 446472,162825 461893,162825 461893,147400 "/>
   <polygon class="fil5" points="461893,116552 461893,147400 477317,147400 477317,116552 "/>
   <polygon class="fil6" points="124796,248590 124796,325707 140219,325707 140219,233168 124796,233168 "/>
   <polygon class="fil6" points="78526,294864 78526,233168 63104,233168 63104,325707 78526,325707 "/>
   <polygon class="fil6" points="93952,325707 78526,325707 78526,341130 124796,341130 124796,325707 "/>
   <polygon class="fil6" points="203396,279438 187969,279438 187969,248590 234242,248590 234242,233168 172546,233168 172546,341130 187969,341130 187969,294864 234242,294864 234242,279438 "/>
   <polygon class="fil6" points="234242,248590 234242,279438 249664,279438 249664,248590 "/>
   <path class="fil0" d="M215724 337228c37,444 137,825 300,1136 164,312 372,565 629,761 254,196 552,337 886,425 335,89 693,133 1075,133 446,0 833,-54 1158,-167 325,-113 591,-264 796,-456 204,-187 354,-409 454,-661 97,-251 146,-516 146,-795 0,-391 -89,-707 -264,-950 -178,-241 -409,-438 -692,-593 -285,-152 -610,-276 -978,-370 -368,-93 -744,-183 -1132,-272 -385,-89 -761,-192 -1129,-314 -368,-121 -693,-283 -978,-491 -285,-204 -514,-467 -691,-787 -176,-321 -265,-728 -265,-1222 0,-342 74,-676 217,-1004 144,-325 358,-613 643,-865 285,-250 639,-451 1067,-598 429,-151 922,-223 1480,-223 567,0 1064,79 1486,236 425,159 775,375 1056,648 278,275 489,594 626,957 141,361 211,750 211,1158l-909 0c0,-382 -68,-712 -203,-990 -133,-279 -319,-507 -551,-683 -233,-178 -497,-309 -796,-393 -297,-83 -606,-124 -921,-124 -483,0 -891,66 -1220,201 -332,135 -594,309 -789,522 -194,214 -331,452 -406,714 -74,260 -88,521 -41,779 54,330 185,588 389,785 204,193 456,354 754,480 298,128 626,227 985,308 360,79 724,161 1094,251 372,88 735,193 1083,313 349,122 659,285 930,490 268,204 485,467 648,787 161,322 243,724 243,1209 0,931 -321,1652 -962,2164 -643,511 -1546,767 -2709,767 -522,0 -1006,-68 -1451,-202 -447,-133 -833,-339 -1158,-613 -328,-275 -581,-617 -761,-1019 -181,-406 -272,-882 -272,-1431l921 0z"/>
   <polygon class="fil0" points="223821,340228 223821,330178 225274,330178 228567,339043 228596,339043 231835,330178 233271,330178 233271,340228 232321,340228 232321,331267 232293,331267 228998,340228 228107,340228 224798,331267 224771,331267 224771,340228 "/>
  </g>
 </g>
</svg>
