<svg id="Layer_1" data-name="Layer 1" xmlns="http://www.w3.org/2000/svg" xmlns:xlink="http://www.w3.org/1999/xlink" viewBox="0 0 792 324"><defs><style>.cls-1{fill:none;}.cls-2{fill:#010101;}.cls-3{fill:url(#New_Gradient_Swatch);}.cls-4{fill:#003a5d;}.cls-5{fill:#1fc0da;}.cls-6{fill:#0072bc;}.cls-7{fill:url(#linear-gradient);}.cls-8{clip-path:url(#clip-path);}.cls-9{fill:url(#radial-gradient);}</style><linearGradient id="New_Gradient_Swatch" x1="195.2" y1="160.04" x2="195.2" y2="74.35" gradientUnits="userSpaceOnUse"><stop offset="0" stop-color="#ffed46"/><stop offset="0.32" stop-color="#ffe23c"/><stop offset="0.88" stop-color="#fec521"/><stop offset="1" stop-color="#febe1a"/><stop offset="1" stop-color="#fdb515"/></linearGradient><linearGradient id="linear-gradient" x1="195.04" y1="181.16" x2="195.04" y2="196.15" gradientUnits="userSpaceOnUse"><stop offset="0.07" stop-color="#16c0dd"/><stop offset="0.16" stop-color="#16c0dd" stop-opacity="0.8"/><stop offset="0.26" stop-color="#16c0dd" stop-opacity="0.59"/><stop offset="0.37" stop-color="#16c0dd" stop-opacity="0.41"/><stop offset="0.49" stop-color="#16c0dd" stop-opacity="0.26"/><stop offset="0.6" stop-color="#16c0dd" stop-opacity="0.14"/><stop offset="0.73" stop-color="#16c0dd" stop-opacity="0.06"/><stop offset="0.85" stop-color="#16c0dd" stop-opacity="0.02"/><stop offset="1" stop-color="#16c0dd" stop-opacity="0"/></linearGradient><clipPath id="clip-path"><path class="cls-1" d="M236.07,117.61l-17.26,24.5-2.32-11.19-3,18.7-4.8,6.81V146.19h-5v1.55l0,0V146.1l-4,7.29v7.89l.05-.07,1.2-.2-1.11,1.48.07.84a15.25,15.25,0,0,0-5-.84,15.41,15.41,0,0,0-6.71,1.54l-1.83-3.17c-.32-3.86-.57-6.83-.57-6.84a.36.36,0,0,1,.07-.6s-.51-3.53-.51-3.54c0-.2-.23-.38-.6-.51a.55.55,0,0,0,0-.09h0s0,0,0,0l.05,0c.48-.14.8-.35.83-.59a.19.19,0,0,0,0-.1c0-.28-.91-.82-.91-.89a.27.27,0,0,0-.11-.2,6.14,6.14,0,0,1,.77-2.33,2.11,2.11,0,0,1,.43-.46c.36-.3.4-1.08.41-1.33a.64.64,0,0,0,.13-.22c0-.09,0-.18,0-.26,0-.92-.45-7.27-2.48-8.25,0-.12,0-.41,0-.44h0c0-.09-.16-.16-.39-.18,0-.55-.08-2.34-.08-2.34s0,0-.05,0,0,0,0,0-.07,1.79-.09,2.34c-.22,0-.39.09-.39.18h0s0,.31,0,.43c-2.09,1-2.49,7.34-2.49,8.26,0,.08,0,.17,0,.26a.9.9,0,0,0,.14.22c0,.25.05,1,.4,1.33a1.68,1.68,0,0,1,.43.48,6.9,6.9,0,0,1,.78,2.31.26.26,0,0,0-.12.2c0,.07-.91.61-.91.89a.14.14,0,0,0,0,.1c0,.24.34.45.83.59l0,0s0,0,0,0h0v.09c-.38.13-.61.31-.61.51l-.26,1.8L178.39,147V124.74a9.56,9.56,0,0,0-7.29-9.28V103.94a.4.4,0,0,0-.79,0v11.37a9,9,0,0,0-1.48-.13,2.3,2.3,0,0,0-2.29,2.29v8.9l-2.62-4.56-42.5-18.66L76.92,219.29l118.28,34.5,118.28-34.5L275.76,108.51Z"/></clipPath><radialGradient id="radial-gradient" cx="195.37" cy="179.72" r="49.33" xlink:href="#linear-gradient"/></defs><title>Horizontal-full-color</title><path class="cls-2" d="M398.53,199.28V167.93c0-6.25-3-9.24-9.16-9.24H358.45v79.08h12.66V208.85h8.34l6.33,28.92h12.94L392.08,208C396.39,207.11,398.53,204.51,398.53,199.28Zm-12.66-3c0,.95-.28,1.27-1.22,1.38l-13.54,0V169h13.54c1,0,1.22.27,1.22,1.23Z"/><path class="cls-2" d="M616.72,199.28V167.93c0-6.25-3-9.24-9.16-9.24H576.64v79.08H589.3V208.85h8.34L604,237.77h12.94L610.27,208C614.58,207.11,616.72,204.51,616.72,199.28Zm-12.67-3c0,.95-.27,1.27-1.21,1.38l-13.54,0V169h13.54c.94,0,1.21.27,1.21,1.23Z"/><path class="cls-2" d="M445.08,227.8c0,6.26,3.16,10.16,9.16,10.16H472c8.24,0,9.16-7,9.16-13.23v-8.66H468.49l.15,9.41c0,1-.3,1.23-1.37,1.23h-7.65c-1.21,0-1.79-.27-1.79-1.23l-.09-55c0-1,.27-1.23,1.22-1.23h8.63c1,0,1.22.28,1.22,1.23v13.61h12.66v-16.2c0-6.25-2.83-9.24-9-9.24H454.38c-6.2,0-9.3,3-9.3,9.24Z"/><polygon class="cls-2" points="501.11 158.69 488.44 158.69 488.44 237.78 501.11 237.78 501.11 202.15 513.11 202.15 513.11 237.78 525.01 237.78 525.01 158.69 513.11 158.69 513.11 190.96 501.11 190.96 501.11 158.69"/><path class="cls-2" d="M655,158.69H633.79c-6.2,0-9.16,3-9.16,9.24V228.7c0,6.25,2,9.12,9.29,9.12H655c8.51,0,9.16-3.75,9.16-10V191.6l-19.46-.09v10.71h6.94v23.27c0,.95-.2,1.53-1.22,1.22l-12.36.07c-1-.4-.78-.89-.78-1.84V170.38c0-.95.27-1.22,1.21-1.22h11.93c1,0,1.22.27,1.22,1.22v13.75h12.52v-16.2C664.17,161.68,661.21,158.69,655,158.69Z"/><polygon class="cls-2" points="703.83 169.29 703.83 158.69 673.42 158.69 673.42 237.78 703.73 237.81 703.83 227.04 686.09 227.15 686.09 202.29 699.59 202.29 699.59 191.59 686.09 191.55 686.09 169.29 703.83 169.29"/><polygon class="cls-2" points="436.97 169.29 436.97 158.69 406.56 158.69 406.56 237.78 436.86 237.81 436.97 227.04 419.22 227.15 419.22 202.29 432.72 202.29 432.72 191.59 419.22 191.55 419.22 169.29 436.97 169.29"/><path class="cls-2" d="M540.58,158.69h-.12a6.34,6.34,0,0,0-6.34,6.34v72.64H545.6V202.14h11.81v35.52h12.21V165a6.34,6.34,0,0,0-6.34-6.34ZM557.41,191H545.6V169.52a.67.67,0,0,1,.68-.67h10.45a.67.67,0,0,1,.68.67Z"/><rect class="cls-2" x="358.45" y="88.5" width="12.05" height="52.54"/><polygon class="cls-2" points="391.57 110.31 410.59 141.04 421.76 141.04 421.76 88.5 410.08 88.5 410.08 117.57 392.15 88.5 379.89 88.5 379.89 141.04 391.57 141.04 391.57 110.31"/><polygon class="cls-2" points="444.45 120 462.82 120 462.82 109.69 444.45 109.69 444.45 98.95 467.39 98.95 467.39 88.5 432.41 88.5 432.41 141.04 444.45 141.04 444.45 120"/><rect class="cls-2" x="476.73" y="88.5" width="12.05" height="52.54"/><polygon class="cls-2" points="510.48 110.31 529.49 141.04 540.66 141.04 540.66 88.5 528.98 88.5 528.98 117.57 511.06 88.5 498.79 88.5 498.79 141.04 510.48 141.04 510.48 110.31"/><rect class="cls-2" x="551.94" y="88.5" width="12.05" height="52.54"/><polygon class="cls-2" points="610.94 88.5 572.41 88.5 572.41 99.03 585.61 99.03 585.61 141.04 597.66 141.04 597.66 99.03 610.94 99.03 610.94 88.5"/><polygon class="cls-2" points="653.51 130.59 630.57 130.59 630.57 119.34 648.93 119.34 648.93 109.04 630.57 109.04 630.57 98.95 653.51 98.95 653.51 88.5 618.53 88.5 618.53 141.04 653.51 141.04 653.51 130.59"/><path class="cls-2" d="M706.41,236.26l.37-.46a2,2,0,0,0,1.53.7c.87,0,1.15-.47,1.15-.85,0-1.26-2.89-.56-2.89-2.3a1.49,1.49,0,0,1,1.68-1.37,2.31,2.31,0,0,1,1.73.69l-.36.45a1.86,1.86,0,0,0-1.42-.59c-.58,0-1,.32-1,.78,0,1.1,2.89.47,2.89,2.29,0,.71-.48,1.44-1.8,1.44A2.44,2.44,0,0,1,706.41,236.26Z"/><path class="cls-2" d="M715.18,237v-4.11L713.52,237h-.25l-1.66-4.11V237H711v-4.89h.87l1.53,3.77,1.52-3.77h.87V237Z"/><polygon class="cls-3" points="313.48 219.29 313.48 110.08 195.2 75.49 76.92 109.98 76.92 219.29 313.48 219.29"/><path class="cls-1" d="M81.53,220.63l72.25,21.08L81.55,220.63Z"/><path class="cls-1" d="M77.61,127.64c.55-.24,1.11-.46,1.67-.67h0a27.19,27.19,0,0,1,8.56-1.59v-8.79l1.11-.18v9a26.56,26.56,0,0,1,5.38.63l.55.13v-15.7l7.79-2.14v-5.83L76.92,110v18l.52-.23Z"/><path class="cls-1" d="M163.92,121.81l2.62,4.56v-8.9a2.3,2.3,0,0,1,2.29-2.29,9,9,0,0,1,1.48.13V103.94a.4.4,0,0,1,.79,0v11.52a9.56,9.56,0,0,1,7.29,9.28V147l2.72,4.72.26-1.8c0-.2.23-.38.61-.51v-.09h0s0,0,0,0l0,0c-.49-.14-.8-.35-.83-.59a.14.14,0,0,1,0-.1c0-.28.91-.82.91-.89a.26.26,0,0,1,.12-.2,6.9,6.9,0,0,0-.78-2.31,1.68,1.68,0,0,0-.43-.48c-.35-.3-.39-1.08-.4-1.33a.9.9,0,0,1-.14-.22c0-.09,0-.18,0-.26,0-.92.4-7.3,2.49-8.26,0-.12,0-.4,0-.43h0c0-.09.17-.16.39-.18,0-.55.09-2.34.09-2.34s0,0,0,0,.05,0,.05,0,.06,1.79.08,2.34c.23,0,.39.09.39.18h0s0,.32,0,.44c2,1,2.48,7.33,2.48,8.25,0,.08,0,.17,0,.26a.64.64,0,0,1-.13.22c0,.25-.05,1-.41,1.33a2.11,2.11,0,0,0-.43.46,6.14,6.14,0,0,0-.77,2.33.27.27,0,0,1,.11.2c0,.07.91.61.91.89a.19.19,0,0,1,0,.1c0,.24-.35.45-.83.59l-.05,0s0,0,0,0h0a.55.55,0,0,1,0,.09c.37.13.6.31.6.51,0,0,.51,3.49.51,3.54a.36.36,0,0,0-.07.6s.25,3,.57,6.84l1.83,3.17a15.41,15.41,0,0,1,6.71-1.54,15.25,15.25,0,0,1,5,.84l-.07-.84L201,161l-1.2.2-.05.07v-7.89l4-7.29v1.68l0,0v-1.55h5v10.24l4.8-6.81,3-18.7,2.32,11.19,1.75-2.48v-26l4.73-8.64V90.93a.4.4,0,0,1,.79,0v12.64l1.58-2.88v-6.4a.39.39,0,0,1,.39-.4.4.4,0,0,1,.4.4v5l2.39-4.36h0l11.67,3.66V89.29L195.2,75.49,153.88,87.54l10,21.39Z"/><polygon class="cls-1" points="309.04 108.69 309.04 108.78 313.48 110.08 313.48 109.98 309.04 108.69"/><polygon class="cls-4" points="242.51 89.28 242.51 98.55 242.51 104.15 242.51 193.58 250.92 196.68 250.92 196.64 250.92 106.79 250.92 101.19 250.92 91.74 250.92 71.79 250.92 71.48 242.51 85.8 242.51 89.28"/><path class="cls-4" d="M150,79.23V192.65l13.93-5.08V108.93l-10-21.39Zm11.1,31.42,1.19,2.27v6.22l-1.19-2Zm0,12,1.19,1.85v4.66l-1.19-1.68Zm0,9.09,1.19,1.54v3.67l-1.19-1.41Zm0,7.22,1.19,1.29v3l-1.19-1.18Zm0,6,1.19,1.08v2.55l-1.19-1Zm0,5.08,1.19.91v2.21l-1.19-.83Zm0,4.44,1.19.76v2l-1.19-.68Zm0,4,1.19.61v1.79l-1.19-.55Zm0,3.62,1.19.49v1.66l-1.19-.43Zm0,3.38,1.19.37v1.56l-1.19-.32Zm0,3.19,1.19.26v1.5l-1.19-.21Zm0,3.07,1.19.16v1.45l-1.19-.1Zm0,3,1.19.05v1.44h-1.19Zm0,3,1.19-.05V179l-1.19.11Zm0,3,1.19-.15V182l-1.19.21Zm0,3.07,1.19-.26V185l-1.19.32Zm-3.15-79.13,1.18,2.27v6.82l-1.18-2.05Zm0,13.09,1.18,1.85v5.11L157.94,123Zm0,9.93,1.18,1.54v4l-1.18-1.41Zm0,7.89,1.18,1.29v3.3l-1.18-1.19Zm0,6.52,1.18,1.08v2.79l-1.18-1Zm0,5.55,1.18.91v2.42l-1.18-.83Zm0,4.86,1.18.75v2.15l-1.18-.68Zm0,4.34,1.18.61v2l-1.18-.55Zm0,4,1.18.49V163l-1.18-.43Zm0,3.68,1.18.38v1.71l-1.18-.32Zm0,3.49,1.18.26v1.64l-1.18-.21Zm0,3.36,1.18.15V173l-1.18-.11Zm0,3.27,1.18.06v1.57h-1.18Zm0,3.26,1.18,0v1.58l-1.18.1Zm0,3.28,1.18-.16v1.61l-1.18.21Zm0,3.35,1.18-.26v1.67l-1.18.32Zm-3.15-85.89L156,100.8v7.41l-1.18-2Zm0,14.2,1.18,1.85v5.56l-1.18-1.69Zm0,10.76L156,125v4.37L154.79,128Zm0,8.57,1.18,1.29v3.58l-1.18-1.18Zm0,7.07,1.18,1.08v3l-1.18-1Zm0,6,1.18.91v2.63l-1.18-.83Zm0,5.27,1.18.75v2.34l-1.18-.68Zm0,4.7,1.18.62v2.13l-1.18-.55Zm0,4.3,1.18.49v2l-1.18-.43Zm0,4,1.18.37v1.86l-1.18-.32Zm0,3.78,1.18.26v1.78l-1.18-.2Zm0,3.64L156,171v1.73l-1.18-.1Zm0,3.56,1.18,0v1.71h-1.18Zm0,3.53,1.18-.06v1.72l-1.18.11Zm0,3.55,1.18-.15v1.75l-1.18.21Zm0,3.64,1.18-.26v1.81l-1.18.32Zm-2,2.4-1.18.32v-2l1.18-.26Zm0-3.89-1.18.21V181.9l1.18-.16Zm0-3.76-1.18.1v-1.91l1.18-.05Zm0-3.71h-1.18v-1.9l1.18.05Zm0-3.71-1.18-.1v-1.92l1.18.15Zm0-3.76-1.18-.21v-2l1.18.27Zm0-3.89-1.18-.31v-2.06l1.18.37Zm0-4.07-1.18-.43v-2.18l1.18.49Zm0-4.33-1.18-.55v-2.37l1.18.62Zm0-4.71-1.18-.68v-2.6l1.18.75Zm0-5.21-1.18-.82v-2.93l1.18.91Zm0-5.88-1.18-1v-3.36l1.18,1.08Zm0-6.82-1.18-1.19v-4l1.18,1.29Zm0-8.13-1.18-1.41v-4.86l1.18,1.55Zm0-10-1.18-1.69v-6.16l1.18,1.85Zm0-12.88-1.18-2V92.47l1.18,2.27Z"/><path class="cls-4" d="M309,108.78v1.65l-4.18,2.41v-5.28l-4.18-1.22v8.92l-4.17,2.41V105.22l3.92,1L288,102.63l-3.84-1.12-1.94,1.62-6.44,5.38v97.31l12.22,4.5,25.5,9V110.08Zm-29.24,8.14,2.4-1.68L284,114v10.9l-1.78,1-2.4,1.39v-10.4Zm4.18,74.9-1.78-.32-2.4-.42v-7.52l2.4.21,1.78.16Zm0-15.66H279.8v-7.4l2.4-.21,1.78-.16Zm0-15.65-1.78.31-2.4.42v-7.75l2.4-.64,1.78-.48Zm0-16.66-1.78.65-2.4.87v-8.66l2.4-1.12,1.78-.83Zm8.35,49.44-4.18-.74v-8.26l4.18.37Zm0-17.13h-4.18V168l4.18-.37Zm0-17.13-4.18.74v-8.52l4.18-1.11Zm0-18.22-4.18,1.52v-9.51l4.18-1.95Zm0-20.73-4.18,2.41V111.07l4.18-2.92Zm8.35,74.68-4.17-.74v-9l4.17.37Zm0-18.6h-4.17V167.3l4.17-.37Zm0-18.6-4.17.74V149l4.17-1.12Zm0-19.79-4.17,1.52V128.92l4.17-1.95ZM309,196.23l-4.18-.73v-9.74l4.18.36Zm0-20.07h-4.18v-9.59l4.18-.37Zm0-20.07-4.18.74V146.78l4.18-1.12Zm0-21.36-4.18,1.52V125l4.18-2Z"/><path class="cls-4" d="M115.57,205.2l-.36-52.6c-3.71-1.27-11.21-2.23-20.32-2.54-2.11-.07-4.3-.11-6.55-.11-3.47,0-6.8.09-9.89.26h-.12l-1.41.09v65a74.68,74.68,0,0,0,8.61.83c.93,0,1.87.06,2.83.06,2.26,0,4.45-.1,6.53-.28,1.33-.11,2.63-.26,3.87-.43,9.3-1.27,15.79-3.94,16.71-5.36a2.25,2.25,0,0,1,.13-.42v-.56Zm-12.41-49.89c2.35.24,4.26.53,5.69.81v52a47.59,47.59,0,0,1-5.59,1.59l-.1,0Zm-10.26-.63c.68,0,1.34,0,2,.06,1.3,0,2.54.11,3.7.19v55.61c-1.18.17-2.42.32-3.7.44-.66.06-1.32.12-2,.16ZM82.64,211.05V154.71c1.76-.06,3.66-.09,5.69-.09v56.66C86.35,211.28,84.44,211.2,82.64,211.05Z"/><path d="M313.48,219.29l-37.72-13.47V108.51l6.44-5.38,1.94-1.62,3.84,1.12V88.7L270.9,82.34V79.23l-20-7.44V196.68l-8.41-3.1v-95l-11.67-3.66h0l-2.39,4.36v-5a.4.4,0,0,0-.4-.4.39.39,0,0,0-.39.4v6.4l-1.58,2.88V90.93a.4.4,0,0,0-.79,0V105l-4.73,8.64v26l-1.75,2.48-2.32-11.19-3,18.7-4.8,6.81V146.19h-5v1.55l0,0V146.1l-4,7.29v7.89l.05-.07,1.2-.2-1.11,1.48.07.84a15.25,15.25,0,0,0-5-.84,15.41,15.41,0,0,0-6.71,1.54l-1.83-3.17c-.32-3.86-.57-6.83-.57-6.84a.36.36,0,0,1,.07-.6s-.51-3.53-.51-3.54c0-.2-.23-.38-.6-.51a.55.55,0,0,0,0-.09h0s0,0,0,0l.05,0c.48-.14.8-.35.83-.59a.19.19,0,0,0,0-.1c0-.28-.91-.82-.91-.89a.27.27,0,0,0-.11-.2,6.14,6.14,0,0,1,.77-2.33,2.11,2.11,0,0,1,.43-.46c.36-.3.4-1.08.41-1.33a.64.64,0,0,0,.13-.22c0-.09,0-.18,0-.26,0-.92-.45-7.27-2.48-8.25,0-.12,0-.41,0-.44h0c0-.09-.16-.16-.39-.18,0-.55-.08-2.34-.08-2.34s0,0-.05,0,0,0,0,0-.07,1.79-.09,2.34c-.22,0-.39.09-.39.18h0s0,.31,0,.43c-2.09,1-2.49,7.34-2.49,8.26,0,.08,0,.17,0,.26a.9.9,0,0,0,.14.22c0,.25.05,1,.4,1.33a1.68,1.68,0,0,1,.43.48,6.9,6.9,0,0,1,.78,2.31.26.26,0,0,0-.12.2c0,.07-.91.61-.91.89a.14.14,0,0,0,0,.1c0,.24.34.45.83.59l0,0s0,0,0,0h0v.09c-.38.13-.61.31-.61.51l-.26,1.8L178.39,147V124.74a9.56,9.56,0,0,0-7.29-9.28V103.94a.4.4,0,0,0-.79,0v11.37a9,9,0,0,0-1.48-.13,2.3,2.3,0,0,0-2.29,2.29v8.9l-2.62-4.56v65.76L150,192.65V79.23l-16.56,5.52V88l3.23,4.61,5.45,7.81v12.51l-8.68-10.34-6.09-7.26-5.92-7-.28-.33.07-4.54.18-10.82,0-1.79L94.89,81.63V96.45l.21-.07,0,.07,7.62,5.39v6.46l-7.79,2.14v15.7a26.89,26.89,0,0,1,2.78.83h0c.57.21,1.13.43,1.68.67l.18.08c.52.23,1,.48,1.54.75l.24.12c.5.27,1,.55,1.47.84l.23.15c.48.3.95.61,1.42.94l.18.14c.48.34,1,.7,1.4,1.07l.09.08a30,30,0,0,1,2.73,2.56l.07.08c.42.45.82.91,1.21,1.38l.11.13c.38.47.75.95,1.11,1.45l.09.12c.36.51.71,1,1,1.56l.05.07a31.87,31.87,0,0,1,3.33,7.25l0,.06c.2.63.38,1.28.55,1.93v.07c.16.66.31,1.33.43,2h0c-2.65-1.63-11.18-2.9-22-3.28-2.11-.07-4.3-.11-6.55-.11-4,0-7.91.13-11.42.35v2.86l1.41-.09h.12c3.09-.17,6.42-.26,9.89-.26,2.25,0,4.44,0,6.55.11,9.11.31,16.61,1.27,20.32,2.54l.36,52.6,0,4v.56a2.25,2.25,0,0,0-.13.42c-.92,1.42-7.41,4.09-16.71,5.36-1.24.17-2.54.32-3.87.43-2.08.18-4.27.28-6.53.28-1,0-1.9,0-2.83-.06a74.68,74.68,0,0,1-8.61-.83v4l4.61,1.34h0l72.23,21.08,41.42,12.08ZM256,134.13l1.71-1.24,4.34-3.14,5.78-4.19v77.36l-10.12-3.73-1.71-.62Zm11.83-52.92v33.57l-5.78,5.08-4.34,3.8-1.71,1.5V96.45l2-2.62Zm-42.05,41.92,5-8.77h0l6.81-11.89v89.33l-1.58-.58-5.23-1.93-5-1.84V123.13Zm-108.55,30.5Zm4.15-41.88v-9.13l12,11.91.67.66,8,7.94v72.39l-8.68,3.16-12,4.39Z"/><path d="M89,125.38v-9l-1.11.18v8.79H89Z"/><polygon class="cls-5" points="133.43 87.95 121.42 70.75 121.39 72.54 121.21 83.36 121.14 87.9 121.42 88.23 127.34 95.28 133.43 102.54 142.11 112.88 142.11 100.37 136.66 92.56 133.43 87.95"/><polygon class="cls-5" points="262.92 95.24 262.09 96.23 256.09 103.35 256.05 108.4 256.05 109.39 256.76 108.62 262.09 102.85 267.8 96.66 267.87 96.58 267.87 96.17 267.87 89.36 263.34 94.75 262.92 95.24"/><polygon class="cls-5" points="257.75 113.38 256.09 115.05 256.05 120.04 257.75 118.49 262.09 114.57 267.87 109.33 267.87 103.22 262.09 109.03 257.75 113.38"/><polygon class="cls-5" points="230.84 125 230.84 125.01 227.85 129.22 227.85 129.27 227.85 141.24 227.85 148.8 230.84 146.29 234.36 143.34 234.36 120.04 233.76 120.89 230.84 125"/><polygon class="cls-5" points="279.8 153.49 279.8 161.24 282.2 160.82 283.98 160.51 283.98 152.37 282.2 152.85 279.8 153.49"/><polygon class="cls-5" points="279.8 136.71 279.8 145.37 282.2 144.5 283.98 143.85 283.98 134.76 282.2 135.59 279.8 136.71"/><polygon class="cls-5" points="279.8 168.76 279.8 176.16 282.2 176.16 283.98 176.16 283.98 168.39 282.2 168.55 279.8 168.76"/><polygon class="cls-5" points="279.8 183.56 279.8 191.08 282.2 191.5 283.98 191.82 283.98 183.93 282.2 183.77 279.8 183.56"/><polygon class="cls-5" points="279.8 116.92 279.8 118.63 279.8 127.32 282.2 125.93 283.98 124.9 283.98 119.89 283.98 114 282.2 115.25 279.8 116.92"/><polygon class="cls-5" points="288.15 176.16 292.33 176.16 292.33 167.66 288.15 168.03 288.15 176.16"/><polygon class="cls-5" points="288.15 142.33 292.33 140.81 292.33 130.87 288.15 132.82 288.15 142.33"/><polygon class="cls-5" points="288.15 122.49 292.33 120.08 292.33 108.15 288.15 111.07 288.15 122.49"/><polygon class="cls-5" points="288.15 159.77 292.33 159.03 292.33 150.13 288.15 151.25 288.15 159.77"/><polygon class="cls-5" points="288.15 192.55 292.33 193.29 292.33 184.66 288.15 184.29 288.15 192.55"/><polygon class="cls-5" points="296.51 139.29 300.68 137.77 300.68 126.97 296.51 128.92 296.51 139.29"/><polygon class="cls-5" points="296.51 105.12 296.51 117.67 300.68 115.26 300.68 106.34 300.68 106.34 300.43 106.27 296.51 105.12"/><polygon class="cls-5" points="304.86 107.57 304.86 112.84 309.04 110.43 309.04 108.79 304.86 107.57"/><polygon class="cls-5" points="296.51 176.16 300.68 176.16 300.68 166.93 296.51 167.3 296.51 176.16"/><polygon class="cls-5" points="296.51 158.3 300.68 157.56 300.68 147.9 296.51 149.02 296.51 158.3"/><polygon class="cls-5" points="296.51 194.03 300.68 194.76 300.68 185.39 296.51 185.03 296.51 194.03"/><polygon class="cls-5" points="304.86 195.5 309.04 196.23 309.04 186.12 304.86 185.76 304.86 195.5"/><polygon class="cls-5" points="304.86 136.25 309.04 134.73 309.04 123.08 304.86 125.03 304.86 136.25"/><polygon class="cls-5" points="304.86 156.82 309.04 156.09 309.04 145.66 304.86 146.78 304.86 156.82"/><polygon class="cls-5" points="304.86 176.16 309.04 176.16 309.04 166.2 304.86 166.57 304.86 176.16"/><polygon class="cls-5" points="151.63 187.84 152.81 187.52 152.81 185.56 151.63 185.82 151.63 187.84"/><polygon class="cls-5" points="151.63 151.01 152.81 151.69 152.81 149.16 151.63 148.41 151.63 151.01"/><polygon class="cls-5" points="151.63 145.66 152.81 146.48 152.81 143.64 151.63 142.73 151.63 145.66"/><polygon class="cls-5" points="151.63 155.85 152.81 156.4 152.81 154.1 151.63 153.48 151.63 155.85"/><polygon class="cls-5" points="151.63 160.31 152.81 160.74 152.81 158.61 151.63 158.12 151.63 160.31"/><polygon class="cls-5" points="151.63 164.49 152.81 164.81 152.81 162.8 151.63 162.43 151.63 164.49"/><polygon class="cls-5" points="151.63 100.7 152.81 102.75 152.81 94.74 151.63 92.47 151.63 100.7"/><polygon class="cls-5" points="151.63 113.94 152.81 115.63 152.81 109.63 151.63 107.78 151.63 113.94"/><polygon class="cls-5" points="151.63 132.59 152.81 133.78 152.81 129.91 151.63 128.62 151.63 132.59"/><polygon class="cls-5" points="151.63 139.6 152.81 140.6 152.81 137.32 151.63 136.24 151.63 139.6"/><polygon class="cls-5" points="151.63 124.24 152.81 125.65 152.81 120.93 151.63 119.38 151.63 124.24"/><polygon class="cls-5" points="151.63 183.84 152.81 183.63 152.81 181.74 151.63 181.9 151.63 183.84"/><polygon class="cls-5" points="151.63 179.97 152.81 179.87 152.81 178.01 151.63 178.06 151.63 179.97"/><polygon class="cls-5" points="151.63 176.16 152.81 176.16 152.81 174.31 151.63 174.26 151.63 176.16"/><polygon class="cls-5" points="151.63 168.48 152.81 168.69 152.81 166.76 151.63 166.5 151.63 168.48"/><polygon class="cls-5" points="151.63 172.35 152.81 172.45 152.81 170.58 151.63 170.43 151.63 172.35"/><polygon class="cls-5" points="154.79 135.75 155.97 136.93 155.97 133.35 154.79 132.06 154.79 135.75"/><polygon class="cls-5" points="154.79 142.25 155.97 143.24 155.97 140.21 154.79 139.13 154.79 142.25"/><polygon class="cls-5" points="154.79 128 155.97 129.41 155.97 125.04 154.79 123.5 154.79 128"/><polygon class="cls-5" points="154.79 118.45 155.97 120.14 155.97 114.58 154.79 112.73 154.79 118.45"/><polygon class="cls-5" points="154.79 157.32 155.97 157.87 155.97 155.74 154.79 155.12 154.79 157.32"/><polygon class="cls-5" points="154.79 165.33 155.97 165.65 155.97 163.79 154.79 163.42 154.79 165.33"/><polygon class="cls-5" points="154.79 161.45 155.97 161.88 155.97 159.91 154.79 159.42 154.79 161.45"/><polygon class="cls-5" points="154.79 152.83 155.97 153.51 155.97 151.17 154.79 150.42 154.79 152.83"/><polygon class="cls-5" points="154.79 147.86 155.97 148.69 155.97 146.06 154.79 145.15 154.79 147.86"/><polygon class="cls-5" points="154.79 172.63 155.97 172.73 155.97 171 154.79 170.84 154.79 172.63"/><polygon class="cls-5" points="154.79 106.17 155.97 108.21 155.97 100.8 154.79 98.53 154.79 106.17"/><polygon class="cls-5" points="154.79 186.99 155.97 186.67 155.97 184.86 154.79 185.12 154.79 186.99"/><polygon class="cls-5" points="154.79 169.04 155.97 169.24 155.97 167.47 154.79 167.2 154.79 169.04"/><polygon class="cls-5" points="154.79 179.7 155.97 179.59 155.97 177.87 154.79 177.93 154.79 179.7"/><polygon class="cls-5" points="154.79 176.16 155.97 176.16 155.97 174.45 154.79 174.4 154.79 176.16"/><polygon class="cls-5" points="154.79 183.29 155.97 183.08 155.97 181.33 154.79 181.48 154.79 183.29"/><polygon class="cls-5" points="157.94 111.63 159.12 113.68 159.12 106.86 157.94 104.59 157.94 111.63"/><polygon class="cls-5" points="157.94 186.15 159.12 185.83 159.12 184.16 157.94 184.42 157.94 186.15"/><polygon class="cls-5" points="157.94 131.76 159.12 133.17 159.12 129.15 157.94 127.61 157.94 131.76"/><polygon class="cls-5" points="157.94 158.79 159.12 159.34 159.12 157.38 157.94 156.77 157.94 158.79"/><polygon class="cls-5" points="157.94 162.6 159.12 163.03 159.12 161.22 157.94 160.73 157.94 162.6"/><polygon class="cls-5" points="157.94 154.65 159.12 155.33 159.12 153.18 157.94 152.43 157.94 154.65"/><polygon class="cls-5" points="157.94 166.18 159.12 166.5 159.12 164.79 157.94 164.41 157.94 166.18"/><polygon class="cls-5" points="157.94 144.9 159.12 145.89 159.12 143.1 157.94 142.02 157.94 144.9"/><polygon class="cls-5" points="157.94 150.07 159.12 150.9 159.12 148.48 157.94 147.57 157.94 150.07"/><polygon class="cls-5" points="157.94 169.59 159.12 169.8 159.12 168.16 157.94 167.9 157.94 169.59"/><polygon class="cls-5" points="157.94 138.9 159.12 140.09 159.12 136.79 157.94 135.5 157.94 138.9"/><polygon class="cls-5" points="157.94 182.73 159.12 182.52 159.12 180.91 157.94 181.07 157.94 182.73"/><polygon class="cls-5" points="157.94 179.42 159.12 179.32 159.12 177.74 157.94 177.79 157.94 179.42"/><polygon class="cls-5" points="157.94 122.95 159.12 124.64 159.12 119.53 157.94 117.68 157.94 122.95"/><polygon class="cls-5" points="157.94 176.16 159.12 176.16 159.12 174.59 157.94 174.53 157.94 176.16"/><polygon class="cls-5" points="157.94 172.9 159.12 173 159.12 171.41 157.94 171.26 157.94 172.9"/><polygon class="cls-5" points="161.09 135.52 162.28 136.93 162.28 133.26 161.09 131.72 161.09 135.52"/><polygon class="cls-5" points="161.09 142.06 162.28 143.24 162.28 140.23 161.09 138.94 161.09 142.06"/><polygon class="cls-5" points="161.09 147.54 162.28 148.54 162.28 145.99 161.09 144.91 161.09 147.54"/><polygon class="cls-5" points="161.09 176.16 162.28 176.16 162.28 174.72 161.09 174.67 161.09 176.16"/><polygon class="cls-5" points="161.09 173.18 162.28 173.28 162.28 171.83 161.09 171.67 161.09 173.18"/><polygon class="cls-5" points="161.09 170.15 162.28 170.36 162.28 168.86 161.09 168.6 161.09 170.15"/><polygon class="cls-5" points="161.09 182.18 162.28 181.97 162.28 180.5 161.09 180.65 161.09 182.18"/><polygon class="cls-5" points="161.09 152.28 162.28 153.11 162.28 150.9 161.09 149.99 161.09 152.28"/><polygon class="cls-5" points="161.09 179.15 162.28 179.04 162.28 177.6 161.09 177.65 161.09 179.15"/><polygon class="cls-5" points="161.09 117.09 162.28 119.14 162.28 112.92 161.09 110.65 161.09 117.09"/><polygon class="cls-5" points="161.09 185.3 162.28 184.98 162.28 183.46 161.09 183.72 161.09 185.3"/><polygon class="cls-5" points="161.09 127.45 162.28 129.14 162.28 124.48 161.09 122.63 161.09 127.45"/><polygon class="cls-5" points="161.09 167.02 162.28 167.34 162.28 165.78 161.09 165.41 161.09 167.02"/><polygon class="cls-5" points="161.09 156.47 162.28 157.15 162.28 155.19 161.09 154.44 161.09 156.47"/><polygon class="cls-5" points="161.09 163.75 162.28 164.18 162.28 162.53 161.09 162.03 161.09 163.75"/><polygon class="cls-5" points="161.09 160.26 162.28 160.81 162.28 159.02 161.09 158.41 161.09 160.26"/><path class="cls-5" d="M116.42,148.47v-.07c-.17-.65-.35-1.3-.55-1.93l0-.06a31.87,31.87,0,0,0-3.33-7.25l-.05-.07c-.33-.53-.68-1.05-1-1.56l-.09-.12c-.36-.5-.73-1-1.11-1.45l-.11-.13c-.39-.47-.79-.93-1.21-1.38l-.07-.08a30,30,0,0,0-2.73-2.56l-.09-.08c-.45-.37-.92-.73-1.4-1.07l-.18-.14c-.47-.33-.94-.64-1.42-.94l-.23-.15q-.72-.44-1.47-.84l-.24-.12c-.5-.27-1-.52-1.54-.75l-.18-.08c-.55-.24-1.11-.46-1.68-.67h0a26.89,26.89,0,0,0-2.78-.83l-.55-.13a26.17,26.17,0,0,0-2.65-.45c-.9-.1-1.81-.17-2.73-.18H87.85A27.19,27.19,0,0,0,79.29,127h0c-.56.21-1.12.43-1.67.67l-.17.08c-.18.07-.34.16-.52.25v19.47c3.51-.22,7.37-.35,11.42-.35,2.25,0,4.44,0,6.55.11,10.78.38,19.31,1.65,22,3.28h0C116.73,149.8,116.58,149.13,116.42,148.47Z"/><polygon class="cls-5" points="117.27 153.63 117.27 153.63 117.27 153.63 117.27 153.63 117.27 153.63 117.27 153.63"/><path class="cls-5" d="M82.64,211.05c1.8.15,3.71.23,5.69.23V154.62c-2,0-3.93,0-5.69.09Z"/><path class="cls-5" d="M92.9,154.68v56.46c.67,0,1.33-.1,2-.16,1.28-.12,2.52-.27,3.7-.44V154.93c-1.16-.08-2.4-.14-3.7-.19C94.24,154.72,93.58,154.69,92.9,154.68Z"/><path class="cls-5" d="M103.16,209.71l.1,0a47.59,47.59,0,0,0,5.59-1.59v-52c-1.43-.28-3.34-.57-5.69-.81Z"/><polygon class="cls-5" points="229.78 163.5 229.78 165.59 230.84 165.27 231.41 165.1 231.41 162.91 230.84 163.12 229.78 163.5"/><polygon class="cls-5" points="229.78 159.97 229.78 162.2 230.84 161.77 231.41 161.54 231.41 159.21 230.84 159.47 229.78 159.97"/><polygon class="cls-5" points="229.78 156.13 229.78 158.55 230.84 158.02 231.41 157.73 231.41 155.19 230.84 155.51 229.78 156.13"/><polygon class="cls-5" points="229.78 166.82 229.78 168.81 230.84 168.59 231.41 168.47 231.41 166.39 230.84 166.54 229.78 166.82"/><polygon class="cls-5" points="227.85 159.53 228.73 159.09 228.73 156.73 227.85 157.24 227.85 159.53"/><polygon class="cls-5" points="227.85 162.97 228.73 162.62 228.73 160.46 227.85 160.86 227.85 162.97"/><polygon class="cls-5" points="227.85 166.17 228.73 165.91 228.73 163.89 227.85 164.2 227.85 166.17"/><polygon class="cls-5" points="232.72 157.06 234.36 156.23 234.36 153.48 232.72 154.43 232.72 157.06"/><polygon class="cls-5" points="232.72 152.75 234.36 151.72 234.36 148.81 232.72 150.02 232.72 152.75"/><polygon class="cls-5" points="232.72 161.01 234.36 160.35 234.36 157.83 232.72 158.6 232.72 161.01"/><polygon class="cls-5" points="232.72 164.7 234.36 164.2 234.36 161.84 232.72 162.44 232.72 164.7"/><polygon class="cls-5" points="227.85 155.77 228.73 155.23 228.73 152.94 227.85 153.58 227.85 155.77"/><polygon class="cls-5" points="229.78 169.99 229.78 173.06 230.84 172.99 231.41 172.95 231.41 169.71 230.84 169.81 229.78 169.99"/><polygon class="cls-5" points="227.85 173.2 228.73 173.14 228.73 170.18 227.85 170.33 227.85 173.2"/><polygon class="cls-5" points="232.72 172.85 234.36 172.74 234.36 169.19 232.72 169.47 232.72 172.85"/><polygon class="cls-5" points="227.85 169.21 228.73 169.03 228.73 167.11 227.85 167.34 227.85 169.21"/><polygon class="cls-5" points="229.78 152.17 229.78 154.57 230.84 153.92 231.41 153.56 231.41 150.98 230.84 151.4 229.78 152.17"/><polygon class="cls-5" points="232.72 168.19 234.36 167.84 234.36 165.6 232.72 166.04 232.72 168.19"/><polygon class="cls-6" points="133.43 114.53 121.42 102.63 121.42 103.15 121.42 106.82 121.42 111.75 121.42 203.06 133.43 198.68 142.11 195.52 142.11 123.13 134.1 115.19 133.43 114.53"/><polygon class="cls-6" points="256.09 103.35 262.09 96.23 262.92 95.24 263.34 94.75 267.87 89.36 267.87 81.21 258.08 93.83 256.05 96.45 256.05 108.4 256.05 109.39 256.05 108.4 256.09 103.35"/><polygon class="cls-6" points="257.75 123.66 262.09 119.86 267.87 114.78 267.87 109.33 262.09 114.57 257.75 118.49 256.05 120.04 256.05 125.16 257.75 123.66"/><polygon class="cls-6" points="256.09 115.05 257.75 113.38 262.09 109.03 267.87 103.22 267.87 96.68 267.87 96.58 267.8 96.66 262.09 102.85 256.76 108.62 256.05 109.39 256.05 120.04 256.09 115.05"/><path class="cls-6" d="M230.84,114.36l-5,8.77v64.31l5,1.84,5.23,1.93,1.58.58V102.46l-6.81,11.89Zm-2.11,58.78-.87.06v-2.87l.87-.15Zm0-4.11-.87.18v-1.87l.87-.23Zm0-3.12-.87.26v-2l.87-.31Zm0-3.29-.87.35v-2.11l.87-.4Zm0-3.53-.87.44v-2.29l.87-.51Zm0-3.86-.87.54v-2.19l.87-.64ZM231.41,173l-.57,0-1.06.07V170l1.06-.18.57-.1Zm0-4.48-.57.12-1.06.22v-2l1.06-.28.57-.15Zm0-3.37-.57.17-1.06.32V163.5l1.06-.38.57-.21Zm0-3.56-.57.23-1.06.43V160l1.06-.5.57-.26Zm0-3.81-.57.29-1.06.53v-2.42l1.06-.61.57-.33Zm0-4.17-.57.36-1.06.65v-2.4l1.06-.77.57-.42Zm3-1.84-1.64,1V150l1.64-1.21Zm0,1.76v2.75l-1.64.83v-2.63Zm0,4.35v2.52l-1.64.67V158.6Zm0,4v2.36l-1.64.5v-2.26Zm0,3.76v2.24l-1.64.35V166Zm0,3.58v3.56l-1.64.11v-3.38Zm-.6-48.29.6-.85v23.3l-3.52,3-3,2.5V129.22l3-4.21h0Z"/><polygon class="cls-6" points="257.75 132.89 256.05 134.13 256.05 198.57 257.75 199.19 267.87 202.92 267.87 198.9 267.87 126.87 267.87 125.56 262.09 129.75 257.75 132.89"/><path class="cls-6" d="M76.92,128v0c.18-.09.34-.18.52-.25Z"/><path class="cls-6" d="M106.1,131.81c.48.39,1,.81,1.4,1.24C107.05,132.62,106.58,132.2,106.1,131.81Z"/><path class="cls-6" d="M107.5,133.05c.46.42.9.87,1.33,1.32C108.4,133.92,108,133.47,107.5,133.05Z"/><path class="cls-6" d="M115,144.08a32,32,0,0,0-2.49-4.92A32,32,0,0,1,115,144.08Z"/><path class="cls-6" d="M115.84,146.41c-.25-.79-.54-1.57-.84-2.33C115.3,144.84,115.59,145.62,115.84,146.41Z"/><path class="cls-6" d="M78.45,150.21c3.09-.17,6.42-.26,9.89-.26,2.25,0,4.44,0,6.55.11-2.11-.07-4.3-.11-6.55-.11C84.87,150,81.54,150,78.45,150.21Z"/><path class="cls-6" d="M76.92,150.3l1.41-.09-1.41.09Z"/><path class="cls-6" d="M115.21,152.6c-3.24-1.11-9.39-2-17-2.39C105.82,150.62,112,151.49,115.21,152.6Z"/><polygon class="cls-7" points="195.3 179.86 144.83 198.18 245.25 198.27 195.3 179.86"/><path class="cls-5" d="M289.72,214.65l-3.51-1.3H249.64l-14.95-9.41h26l-3.5-1.29H232.63l-11.47-7.22h16.42l-3.51-1.29h-15l-9-5.64h8.62l-3.51-1.29H208.1L201,182.75h2.15l-3.51-1.29H199l-1-.62-1.83-.67-.15-.06-.16-.05h0l-.54-.19-.7.25,0,0-.08,0-.28.1-2,.72-.76.48h-.56l-3.56,1.29h2.07l-7.09,4.46H175l-3.57,1.29h8.79l-9,5.64H155.91l-3.57,1.29h16.89l-11.47,7.22H132.44l-3.57,1.29h26.84l-15,9.41H117.13a13.87,13.87,0,0,1-2,1.3h23.61L114.1,230.13l.15.05,1.51.44,2.92.85h43.78l-6.7,10.81,1.29.38L164,231.47h30.57v22.12l.68.2.61-.18V231.47h30.58l6.93,11.19,1.29-.38-6.7-10.81h43.72l3-.86,1.47-.43.19-.06-24.59-15.47Zm-42.51-1.3h-30.5l-5.83-9.41h21.38Zm-51.37-17.92h8.25l4.47,7.22H195.84Zm0-1.29V188.5h4l3.49,5.64Zm0-6.93v-4.46h.39l2.77,4.46Zm-1.29-4.46v4.46H191.4l2.76-4.46Zm0,5.75v5.64h-7.44l3.49-5.64Zm0,6.93v7.22H181.83l4.48-7.22Zm0,8.51v9.41H175.2l5.83-9.41Zm1.29,0h13.52l5.83,9.41H195.84Zm34.37-1.29H210.08l-4.47-7.22h13.13Zm-13.53-8.51H204.81l-3.49-5.64h6.41Zm-11-6.93h-5.15l-2.77-4.46h.84Zm-13.86-4.46h.84l-2.77,4.46h-5.16Zm-9.14,5.75h6.41l-3.49,5.64H173.71Zm-11,6.93h13.13l-4.48,7.22H160.19Zm-13.52,8.51h21.37l-5.83,9.41H143.19Zm-41.69,26.24,24.68-15.53h31.75l-9.62,15.53Zm48.33,0,9.62-15.53h20.15v15.53Zm31.06,0V214.65H216l9.63,15.53Zm78.1,0h-46.8l-9.63-15.53h31.75Z"/><g class="cls-8"><circle class="cls-9" cx="195.09" cy="180.47" r="43.01"/></g></svg>