<?xml version="1.0" encoding="UTF-8"?>
<!DOCTYPE svg PUBLIC "-//W3C//DTD SVG 1.1//EN" "http://www.w3.org/Graphics/SVG/1.1/DTD/svg11.dtd">
<!-- Creator: CorelDRAW 2017 -->
<svg xmlns="http://www.w3.org/2000/svg" xml:space="preserve" width="335.242850169" height="298.291223659" version="1.1" style="shape-rendering:geometricPrecision; text-rendering:geometricPrecision; image-rendering:optimizeQuality; fill-rule:evenodd; clip-rule:evenodd"
viewBox="0 0 1045833 930555"
 xmlns:xlink="http://www.w3.org/1999/xlink">
 <defs>
  <style type="text/css">
   <![CDATA[
    .fil3 {fill:#FEFEFE}
    .fil2 {fill:#C88D47}
    .fil7 {fill:#74443A}
    .fil6 {fill:#453D3C}
    .fil0 {fill:#FEFEFE;fill-rule:nonzero}
    .fil5 {fill:#C88D47;fill-rule:nonzero}
    .fil4 {fill:#74443A;fill-rule:nonzero}
    .fil1 {fill:#453D3C;fill-rule:nonzero}
   ]]>
  </style>
 </defs>
 <g id="Layer_x0020_1">
  <metadata id="CorelCorpID_0Corel-Layer"/>
  <g id="_2961109202832">
   <path class="fil0" d="M1041298 677479c2551,-1208 4269,-3676 4535,-6465l0 -1515 -4 -44 -1633 -16318c-344,-3444 -2852,-6235 -6154,-6997 2546,-2164 3509,-5730 2297,-8929l-5809 -15332c-1192,-3146 -4199,-5167 -7476,-5167 -94,0 -189,3 -283,6 1894,-2744 1901,-6435 -92,-9207l-9556 -13296c-1542,-2146 -3987,-3332 -6500,-3332 -790,0 -1587,118 -2365,358 1131,-3147 182,-6725 -2468,-8892l-12683 -10369c-1472,-1204 -3267,-1806 -5063,-1806 -1475,0 -2950,404 -4246,1218 270,-3328 -1570,-6530 -4686,-7935l-10332 -4661 2958 -39246c283,-3772 -2113,-7228 -5746,-8283l-46953 -13633 4425 -4426c593,-593 1068,-1275 1443,-2003 3987,933 8135,1442 12403,1442 23011,0 43672,-14683 51439,-36614 1918,-5597 2813,-9917 2813,-13592 0,-6629 -4863,-11628 -11313,-11628 -2883,0 -3854,0 -28546,15135 -414,253 -811,497 -1189,728l-11844 -6565 0 -13898 26390 -15218c143,-83 286,-171 424,-263 3231,-2143 5236,-5810 5236,-9571 0,-3787 -1789,-7139 -5037,-9436 -53,-39 -107,-76 -161,-111 -8667,-5818 -20614,-7883 -28211,-7883 -30037,0 -54474,24430 -54474,54459 0,4274 511,8431 1447,12424 -726,374 -1414,826 -2007,1418l-27067 27068 -15830 -4596c17541,-14747 32229,-33304 43776,-55346 25,-48 48,-96 74,-144 12289,-24659 10978,-43746 7712,-55414 -3880,-13869 -12993,-25615 -24376,-31421 -3567,-1815 -7622,-2736 -12057,-2736 -10321,0 -22328,4810 -39574,13118 -12136,-19392 -29329,-34298 -50275,-43582l22133 -216392c42,-414 51,-828 29,-1237 0,-7 0,-11 -2,-18 -17,-696 -108,-1407 -270,-2098 -61,-263 -135,-528 -224,-793 -126,-404 -267,-780 -424,-1130 -92,-207 -194,-415 -321,-654 -165,-315 -347,-628 -624,-1053 -99,-147 -206,-296 -354,-500 -194,-263 -408,-525 -700,-857 -121,-137 -244,-271 -389,-422 -211,-215 -440,-433 -694,-665 -128,-117 -258,-233 -394,-348 -257,-215 -531,-429 -857,-670 -83,-64 -183,-139 -257,-190 -357,-253 -743,-506 -1164,-763l-361 -210c-258,-153 -526,-304 -832,-468l-467 -241c-247,-124 -496,-248 -719,-353l-552 -256c-247,-111 -503,-224 -735,-321l-586 -244c-256,-104 -1319,-512 -1319,-512 -321,-118 -1396,-493 -1396,-493 -461,-156 -941,-311 -1438,-465l-1518 -451 -1606 -443 -717 -186 -1722 -428 -1770 -411 -1828 -396c-603,-126 -1217,-252 -1844,-374l-1970 -375 -2044 -367 -2120 -357 -2187 -347 -2310 -347 -2636 -372 -3057 -403 -2502 -311 -2542 -296 -3883 -424 -4646 -464 -3575 -331 -2906 -248 -2976 -240 -4386 -332 -5396 -368 -4031 -253 -3264 -187 -6792 -351 -7389 -326 -4506 -175 -3622 -124 -3699 -117 -7653 -200 -4965 -104c-2598,-50 -5228,-92 -7886,-126l-3933 -44 -8175 -56 -6214 -13c-2886,2 -5798,11 -8726,30l-1093 8c-2863,19 -5746,47 -8650,85l-1126 15c-2979,39 -5978,89 -9007,146l-803 17c-3271,64 -6563,139 -9878,225 -47815,1246 -92765,4556 -126569,9318 -49164,6928 -58890,14274 -58647,23876 15,667 100,1344 239,1964l23051 159043c-1418,1807 -2450,3925 -2989,6215 -91,397 -167,796 -226,1196 -8641,897 -14956,8703 -14074,17486 487,4431 2789,8425 6322,10981l7279 5485c-8857,-937 -17315,-1408 -25293,-1408 -15713,0 -29231,1861 -40175,5531 -20511,6871 -29262,19109 -32685,30490 -764,-233 -1551,-348 -2335,-348 -158,0 -318,6 -476,14l-96250 -27947c-740,-215 -1490,-320 -2231,-320 -2829,0 -5521,1507 -6967,4068l-33828 59913 -48696 0c482,-2624 76,-5271 -1144,-7601 2115,-1541 3729,-3763 4465,-6403 101,-365 176,-733 225,-1103 418,-2298 143,-4639 -783,-6782 2221,-1372 4017,-3442 4980,-6014 941,-2569 961,-5321 86,-7875 2343,-1203 4297,-3157 5460,-5682 1109,-2509 1268,-5217 643,-7712 2453,-1010 4549,-2824 5885,-5226 1318,-2388 1765,-5092 1314,-7738 2532,-826 4743,-2467 6225,-4747 1532,-2336 2128,-5015 1896,-7598 2593,-633 4949,-2128 6583,-4246 1731,-2211 2540,-4853 2496,-7470 2580,-433 5007,-1717 6889,-3732 1882,-2068 2886,-4644 3038,-7260 2480,-219 4820,-1226 6748,-2887 1048,1936 2137,3607 3263,4993 -494,663 -887,1404 -1161,2202 -688,2010 -546,4211 391,6117l5803 11808c1225,2494 3659,4174 6425,4436 254,24 506,36 756,36 2497,0 4869,-1171 6390,-3189 289,-383 824,-1050 1511,-1913 7539,-9448 12129,-15787 13308,-20344 132,-537 317,-1406 513,-2470 300,-1599 670,-3788 1059,-6161 4629,575 9404,864 14278,864 2529,0 5089,-78 7668,-233 418,1304 983,2681 1697,4125 426,864 959,1860 1594,2875 22,1248 302,2489 853,3657 25,54 51,108 78,161 579,1160 1394,2157 2383,2954 444,1193 915,2224 1272,2946 3163,6472 7018,9753 11458,9753 1297,0 2594,-300 3760,-874 4114,-2026 5019,-5711 4717,-9250 657,378 1274,689 1817,900 292,113 597,239 915,369 2287,941 5744,2363 10165,2363 2092,0 4192,-325 6241,-965 4011,-1254 39440,-18026 44106,-23080 4335,-4700 4278,-12117 4029,-15229l426 -6775 51 -719c144,-2006 -474,-3957 -1675,-5496 1374,-1363 2230,-3200 2354,-5189l314 -5053c14186,-13447 24533,-28767 30035,-44501 1125,-2347 4886,-10902 2653,-16294 -56,-133 -114,-265 -176,-396 -2267,-4736 -10207,-10289 -14857,-12549 -9358,-4554 -21835,-6963 -36078,-6963 -13253,0 -27365,2067 -40932,5878 1222,-2507 1417,-5244 -9,-8174 -776,-1583 -3235,-5267 -9306,-5267 -5483,0 -12289,3061 -14944,4369 -2630,1289 -5061,2719 -7137,4186 -601,-107 -1208,-161 -1815,-161 -1553,0 -3039,343 -4418,1024 -1942,957 -3450,2461 -4442,4333 -3007,940 -5761,2181 -7521,3043 -3803,1865 -7258,4068 -9733,6200 -6748,5811 -5646,10972 -4383,13543 778,1574 3238,5235 9288,5235 156,0 315,-1 474,-7 -11035,9747 -20035,21492 -27204,35459l-34058 6359c-2458,458 -4561,2041 -5682,4275 -1122,2235 -1133,4867 -33,7111l3943 8039c1386,2826 4218,4472 7165,4479 457,2039 1260,4301 2313,6604 -2303,449 -4442,1559 -6086,3200 -2080,2085 -3282,4794 -3456,7692 -2957,265 -5740,1629 -7796,3889 -2063,2310 -3044,5222 -3002,8110 -2957,475 -5621,2026 -7461,4415 -1879,2396 -2737,5351 -2469,8368 -2899,699 -5454,2463 -7133,5021 -1708,2606 -2243,5649 -1754,8511 -2835,919 -5268,2858 -6726,5526 -1524,2764 -1843,5832 -1141,8640 -2739,1137 -5017,3257 -6271,6047 -78,176 -152,357 -217,537 -1073,2689 -1070,5568 -196,8152 -2596,1333 -4708,3607 -5803,6498 -1039,2860 -938,5936 250,8715 -2498,1533 -4411,3963 -5212,6889 -837,2946 -508,6019 897,8711 -2371,1721 -4093,4297 -4651,7310 -294,1478 -297,2964 -41,4401l-77467 0c-3687,0 -6896,2519 -7772,6102l-36815 150650c-150,615 -225,1239 -228,1859l0 94c13,1754 601,3476 1707,4884 1517,1932 3836,3061 6293,3061l92244 0 -4989 8832c-1139,2011 -1352,4417 -586,6596l20676 58818c-13985,-6804 -31009,-13700 -39422,-16097 -6263,-1772 -11375,-2632 -15627,-2632 -9299,0 -13466,4250 -15315,7796 -6376,12144 8507,24372 13394,28387 7054,5807 26582,18347 40900,26115 -110,200 -212,407 -304,618 -3723,8476 -6221,17317 -7454,26359l-20638 3511c-4215,717 -7120,4621 -6599,8865l3720 30220c496,4037 3929,7024 7932,7022 205,0 411,-7 618,-22l20350 -1558c3352,8979 7962,17350 13769,24996l-11847 16701c-2473,3486 -1770,8300 1600,10932l23987 18737c1459,1141 3196,1696 4921,1696 2259,0 4498,-952 6076,-2792l12929 -15069c8875,4079 18209,6788 27872,8088l3328 19607c658,3887 4029,6663 7879,6663 325,0 654,-20 985,-61l30221 -3720c4243,-522 7325,-4288 6998,-8549l-1475 -19324c3058,-1139 6046,-2423 8957,-3852l4232 7440c1450,2549 4133,4044 6954,4044 746,0 1502,-104 2246,-322l10385 -3039 -5653 8080c-2213,3162 -1852,7456 858,10202l8222 8339c1547,1568 3613,2383 5700,2383 1426,0 2861,-380 4149,-1161l9260 -5622 -3378 9280c-1321,3630 142,7686 3475,9637l10107 5920c1260,739 2656,1097 4040,1097 2130,0 4233,-847 5786,-2471l7490 -7837 -862 9849c-336,3847 2126,7388 5851,8412l11288 3100c704,193 1417,286 2119,286 2865,0 5585,-1547 7015,-4157l5200 -9489 1711 9715c669,3804 3963,6586 7825,6613 0,0 11742,79 11760,79 3682,0 6890,-2514 7770,-6093l2580 -10522 4176 8950c1337,2869 4200,4618 7247,4618 669,0 1346,-85 2018,-260l11331 -2952c3587,-933 6062,-4211 5980,-7917l-237 -10833 6344 7559c1565,1865 3830,2857 6132,2857 1350,0 2714,-342 3956,-1049l10175 -5796c2929,-1669 4467,-4972 3936,-8236 1115,-9 2243,-256 3306,-752l7871 -3678c535,-118 1057,-290 1561,-518 943,976 1908,1946 2891,2906l-4569 8907c-1752,3418 -829,7598 2198,9959l11709 9131c1448,1129 3185,1690 4919,1690 1836,0 3672,-630 5158,-1883l7903 -6667c1213,734 2436,1452 3671,2151l-2114 9883c-804,3752 1171,7546 4704,9042l13647 5775c1013,428 2071,634 3117,634 2553,0 5029,-1225 6562,-3424l5931 -8498c1369,397 2735,774 4094,1125l500 10081c190,3833 3079,6993 6881,7525l14685 2056c372,53 746,79 1114,79 3322,0 6356,-2075 7515,-5271l3560 -9809c876,17 1757,25 2637,25 517,0 1035,-2 1556,-8l3117 9676c1075,3337 4176,5548 7608,5548l46 0c310,-2 622,-23 937,-61l14718 -1809c3749,-461 6665,-3482 6993,-7246l907 -10410c1354,-329 2710,-679 4063,-1050l5521 8546c1511,2337 4072,3660 6722,3660 1006,0 2025,-191 3004,-588l13715 -5564c3497,-1420 5526,-5089 4871,-8806l-1804 -10221c1233,-682 2463,-1383 3686,-2104l7506 6784c1517,1371 3439,2065 5367,2065 1691,0 3388,-534 4818,-1615l11821 -8926c3015,-2276 4028,-6350 2426,-9771l-4387 -9389c1022,-984 2032,-1981 3026,-2992l8981 4604c1161,596 2409,883 3646,883 544,0 1089,-56 1621,-166 460,356 922,713 1487,1141 1782,1311 3904,2004 6136,2004 826,0 1639,-96 2426,-280 485,2936 2192,5635 4897,7267 535,320 1086,637 1717,997 1517,841 3243,1285 4987,1285 1288,0 2553,-240 3735,-692 858,2854 2914,5311 5830,6577 617,264 1215,517 1803,747 1209,481 2481,722 3783,722 1756,0 3456,-447 4964,-1263 1221,2725 3567,4889 6574,5731 663,194 1321,376 1952,531 817,205 1659,311 2503,311 2248,0 4364,-714 6106,-1972 1578,2544 4210,4385 7348,4833l232 35c540,76 1078,152 1732,233 371,40 740,60 1107,60 2733,0 5256,-1063 7146,-2845 1879,2296 4693,3772 7825,3828 642,14 1274,14 1903,14 56,0 111,0 168,-2 3122,-65 5935,-1547 7818,-3840 1883,1771 4403,2836 7142,2836 396,0 793,-23 1068,-57 696,-70 1392,-168 2043,-264 3150,-454 5778,-2297 7349,-4844 1746,1255 3865,1985 6086,1985 839,0 1679,-106 2456,-298 639,-156 1279,-328 1906,-502 3069,-854 5441,-3021 6672,-5761 1501,805 3200,1251 4960,1251 1293,0 2557,-238 3758,-709 50,-19 1868,-770 1868,-770 2890,-1264 4929,-3718 5782,-6570 1182,450 2444,692 3725,692 1738,0 3454,-442 4971,-1274 403,-219 804,-452 1202,-685l540 -313c2728,-1626 4444,-4328 4924,-7272 783,183 1592,278 2413,278 2240,0 4369,-698 6146,-2017 517,-380 1014,-765 1592,-1214 2481,-1970 3822,-4865 3915,-7835 347,33 697,52 1050,52 2730,0 5297,-1036 7250,-2937 464,-454 915,-903 1348,-1349 2217,-2274 3179,-5329 2875,-8308 3080,-90 5907,-1490 7808,-3871 374,-459 733,-934 1083,-1402l140 -191c1204,-1615 1865,-3472 2017,-5353l8708 3931c1061,478 2180,708 3286,708 2189,0 4326,-898 5861,-2551 602,3285 3210,5901 6582,6451l16176 2636c432,70 864,107 1290,107 2946,0 5672,-1631 7060,-4246 1318,2778 4130,4569 7224,4568 265,0 533,-13 804,-39l16307 -1636c3447,-346 6240,-2861 6998,-6169 1535,1809 3781,2820 6100,2820 944,0 1903,-168 2829,-519l15320 -5798c3239,-1227 5286,-4374 5164,-7765 1360,941 2953,1419 4550,1419 1631,0 3267,-497 4667,-1503l13299 -9556c2822,-2029 3985,-5619 2971,-8872 874,312 1782,465 2682,465 2339,0 4633,-1026 6196,-2935l10370 -12675c2194,-2682 2391,-6435 590,-9310 221,17 440,26 658,26 3093,0 5982,-1803 7293,-4718l6722 -14944c1419,-3157 640,-6826 -1840,-9135 3279,-603 5891,-3206 6443,-6575l2652 -16165c561,-3424 -1147,-6776 -4152,-8365z"/>
   <path class="fil1" d="M981180 453439c-6537,18459 -24276,31208 -43871,31208 -25621,0 -46475,-20835 -46475,-46457 0,-25624 20854,-46459 46475,-46459 7574,0 17421,2275 23753,6525 1036,733 1657,1661 1657,2906 0,1136 -731,2289 -1657,2903l-30393 17528 0 23230 20024 11100c3408,-1972 27474,-17108 29556,-17108 2071,0 3313,1547 3313,3628 0,3425 -1242,7678 -2381,10997zm-136803 71036c-3639,0 -6642,3009 -6642,6646 0,3624 3003,6633 6642,6633 3635,0 6642,-3010 6642,-6633 0,-3637 -3007,-6646 -6642,-6646zm2694 33814c-2381,2393 -5808,3843 -9336,3843 -3524,0 -6947,-1450 -9435,-3843l-10996 -11199c-2488,-2380 -3943,-5807 -3943,-9336 0,-3521 1456,-6947 3943,-9432l70629 -70633c5401,13580 16282,24475 29871,29864l-70733 70736z"/>
   <path class="fil2" d="M946228 671703c-1417,-14103 -13994,-24417 -28085,-22987 -14149,1419 -24400,13964 -22986,28112 1407,14086 13983,24365 28083,22960 14090,-1415 24382,-13974 22987,-28085zm-2998 96650l-2241 21440 -16307 1635 -6375 -20310c-80,0 -164,-13 -248,-13l-7670 20000 -16175 -2638 -894 -21197c-90,-19 -183,-65 -278,-80l-12554 17274 -14936 -6742 4635 -20748c-69,-49 -142,-98 -219,-145l-16635 13474 -12674 -10371 9893 -18957c-43,-46 -75,-89 -125,-124l-19663 8757 -9560 -13311 14575 -15865c-11,-26 -20,-35 -31,-75l-21418 3407 -5797 -15332 18285 -11618 -21675 -2275 -1639 -16297 20674 -6492 -20365 -7815 2650 -16172 21638 -917 -17630 -12813 6736 -14939 21142 4715 -13715 -16936 10371 -12682 19199 10024 -8874 -19908 13308 -9561 15950 14647 -3417 -21522 15331 -5796 11618 18283 2276 -21686 16304 -1626 6485 20661 7806 -20347 16179 2647 908 21637 12810 -17629 14935 6737 -4713 21141 16933 -13718 12682 10369 -10021 19202 19921 -8861 9556 13297 -14644 15950 21513 -3417 5808 15332 -18298 11610 21678 2278 1633 16318 -20663 6483 20349 7815 -2650 16167 -21638 918 17632 12803 -6722 14943 -21150 -4711 13713 16929 -10370 12676 -19200 -10024 8874 19935 -13297 9556 -15935 -14647 -15 0 3406 21511 -15320 5798 -11500 -18083c-44,11 -93,19 -154,33l0 0z"/>
   <path class="fil3" d="M991665 667140c-3925,-39211 -38924,-67796 -78097,-63867 -39175,3903 -67776,38867 -63848,78081 3926,39189 38889,67774 78087,63848 39202,-3911 67786,-38878 63858,-78063zm-53601 96592l-2197 20917 -7192 720 -6235 -19886c-2752,67 -5478,10 -8175,-167l-7492 19506 -7119 -1174 -883 -20733c-2672,-664 -5311,-1438 -7886,-2338l-12257 16870 -6583 -2975 4528 -20282c-2378,-1332 -4721,-2772 -6969,-4307l-16246 13159 -5589 -4561 9679 -18526c-1943,-1895 -3801,-3858 -5567,-5911l-19221 8554 -4221 -5864 14257 -15507c-1358,-2288 -2631,-4646 -3767,-7060l-20954 3318 -2556 -6757 17971 -11431c-676,-2494 -1268,-5040 -1740,-7640l-21378 -2232 -703 -7189 20593 -6471c-25,-2568 70,-5118 278,-7639l-20329 -7806 1162 -7133 21871 -917c639,-2417 1368,-4787 2209,-7124l-17878 -12978 2972 -6586 21699 4833c1196,-2081 2489,-4125 3854,-6097l-14120 -17424 4589 -5597 19964 10428c1663,-1648 3368,-3251 5143,-4770l-9244 -20747 5879 -4229 16775 15415c1960,-1148 3981,-2221 6057,-3226l-3602 -22653 6774 -2567 12324 19419c2150,-579 4347,-1090 6552,-1521l2428 -23030 7175 -721 6939 22103c2232,-21 4430,33 6629,186l8342 -21732 7132 1161 986 23194c2139,547 4241,1174 6328,1871l13697 -18864 6600 2976 -5069 22661c1918,1078 3812,2229 5647,3436l18111 -14669 5596 4576 -10725 20500c1614,1546 3162,3148 4647,4810l21167 -9432 4226 5878 -15526 16889c1182,1926 2286,3914 3306,5943l22683 -3597 2557 6756 -19164 12179c637,2220 1218,4474 1699,6761l22601 2372 719 7186 -21398 6728c61,2407 35,4786 -93,7157l20948 8036 -1178 7119 -22081 943c-569,2400 -1242,4761 -1996,7096l17875 12974 -2972 6597 -21281 -4750c-1196,2214 -2499,4389 -3865,6500l13715 16937 -4578 5589 -19057 -9946c-1767,1882 -3625,3684 -5564,5413l8742 19642 -5859 4215 -15625 -14354c-2251,1383 -4564,2682 -6942,3865l3314 20954 -6760 2557 -11254 -17726c-2562,767 -5179,1419 -7848,1944l0 0z"/>
   <path class="fil4" d="M481172 809539l56165 -72011c4978,2193 10615,3051 16385,2124 93,-26 211,-47 324,-75l34475 85120c-35143,11659 -74961,7107 -107348,-15159zm209683 -96267c-5207,452 -10415,836 -15625,1168 -769,7014 -2997,13642 -6397,19549l402 56c-3685,17675 -11336,34808 -23186,50021 -12440,15951 -28083,27923 -45287,35800l-34600 -85417c4339,-3153 7704,-7444 9747,-12371 -592,-2178 -1035,-4411 -1331,-6685 -3993,-109 -7987,-226 -11983,-353 -1522,5002 -5754,8965 -11268,9864 -7382,1175 -14349,-3591 -15993,-10788 -6446,-226 -12894,-451 -19344,-665l4213 589c67,511 93,1025 187,1521 858,5389 3167,10163 6433,14054l-56079 71897c-26964,-23129 -41447,-55817 -42337,-89128 -5091,-186 -10165,-521 -15215,-1094 -1300,-147 -2621,-314 -3947,-487 25,1971 76,3940 185,5906l-14957 4847 1799 14704 15854 1359c1056,5146 2381,10246 3988,15253l-13243 8549 5549 13739 15701 -2786c2352,4645 4976,9199 7836,13600l-10681 11802 8935 11822 14589 -6817c3414,3869 7083,7550 10988,11065l-7318 14267 11708 9130 12382 -10444c4378,2893 8861,5509 13426,7862l-3368 15739 13649 5776 9279 -13300c4950,1650 9943,3031 14997,4099l798 16087 14685 2057 5553 -15298c5154,314 10336,314 15490,61l4960 15397 14718 -1810 1415 -16251c5042,-1008 10049,-2310 14997,-3879l8767 13569 13715 -5564 -2821 -15969c4625,-2315 9122,-4892 13497,-7702l11954 10806 11819 -8925 -6861 -14683c3842,-3411 7536,-7060 11057,-10942l14321 7343 9118 -11696 -10393 -12344c2913,-4382 5563,-8878 7931,-13452l15603 3368 5793 -13658 -13124 -9165c1674,-4981 3100,-10034 4206,-15133l15804 -792 2056 -14670 -14957 -5424c106,-1678 170,-3354 214,-5031z"/>
   <path class="fil0" d="M656280 708418c0,-54313 44036,-98364 98360,-98364 54324,0 98353,44051 98353,98364 0,54324 -44029,98358 -98353,98358 -54324,0 -98360,-44035 -98360,-98358z"/>
   <path class="fil1" d="M821620 775368c-4564,4564 -11985,4564 -16559,0 -4576,-4576 -4576,-11989 0,-16563 4575,-4578 11996,-4578 16559,0 4578,4574 4578,11986 0,16563zm-13318 -44221c1091,-2635 4111,-3876 6735,-2800 2625,1094 3879,4113 2787,6753 -1089,2622 -4102,3868 -6739,2774 -2621,-1078 -3879,-4102 -2783,-6726zm-26647 16613l-7386 -15638c1497,-1229 2878,-2611 4110,-4107l15632 7383c-3306,4856 -7502,9047 -12356,12361zm-303 23808c-2636,1085 -5643,-164 -6738,-2786 -1090,-2629 150,-5645 2789,-6736 2629,-1093 5642,160 6739,2785 1089,2636 -163,5645 -2790,6737zm-22424 -15950l1426 -17222c1939,-328 3807,-822 5596,-1498l9836 14194c-5157,2520 -10846,4099 -16858,4526zm-3374 47126c-6468,0 -11718,-5253 -11718,-11721 0,-6468 5250,-11707 11718,-11707 6471,0 11711,5239 11711,11707 0,6468 -5240,11721 -11711,11721zm-20244 -51652l9854 -14194c1783,675 3657,1169 5596,1498l1429 17222c-6018,-427 -11708,-2006 -16879,-4526zm1187 17689c-1094,2622 -4115,3871 -6740,2786 -2625,-1092 -3882,-4102 -2785,-6737 1092,-2625 4099,-3878 6733,-2785 2626,1091 3881,4107 2792,6736zm-19398 -33396l15622 -7385c1239,1510 2614,2892 4119,4121l-7389 15638c-4852,-3314 -9053,-7517 -12353,-12374zm-7874 -22717l17236 1417c315,1937 814,3824 1496,5608l-14208 9842c-2504,-5170 -4085,-10863 -4524,-16867zm-3171 62699c-4588,4564 -11999,4564 -16576,0 -4578,-4576 -4578,-11989 0,-16563 4578,-4578 11997,-4578 16576,0 4561,4574 4561,11986 0,16563zm-9979 -47021c2625,-1076 5640,165 6735,2800 1085,2625 -160,5636 -2794,6726 -2632,1094 -5647,-152 -6742,-2774 -1081,-2640 168,-5658 2802,-6753zm188093 -22308c-5058,-199 -10110,-982 -15126,-1713 -983,104 -1967,206 -2950,318 -5756,869 -11508,1806 -17264,2740 103,622 169,1257 169,1907 0,6465 -5250,11719 -11718,11719 -5901,0 -10765,-4374 -11579,-10046 -7947,1114 -15913,2054 -23910,2637 -524,5660 -2051,11033 -4441,15933l-14200 -9842c653,-1721 1141,-3540 1458,-5407 -2394,32 -4788,31 -7181,20 -29,128 -54,257 -85,383 -64,281 -122,558 -204,836 -1036,3554 -2907,6752 -5412,9337 -202,196 -397,407 -609,603 -2586,2503 -5785,4382 -9336,5403 -270,82 -559,150 -832,211 -1732,441 -3539,685 -5394,685 -1859,0 -3668,-243 -5400,-685 -279,-61 -560,-130 -824,-211 -3554,-1021 -6753,-2900 -9339,-5403 -211,-196 -407,-407 -618,-603 -2490,-2586 -4378,-5783 -5397,-9337 -85,-278 -151,-556 -219,-836 -147,-586 -264,-1182 -364,-1785 -4314,-175 -8632,-339 -12948,-461 -11574,-326 -23389,-247 -35289,-210 -1310,5042 -5885,8776 -11332,8776 -5479,0 -10075,-3786 -11348,-8879 -12738,-213 -25463,-800 -37980,-2311 2,110 -6,219 -3,329 18,1298 1149,2343 2447,2404 6318,244 12592,1403 18832,2217 56,1151 160,2276 252,3406 -6074,1636 -12171,3610 -18406,4679 -1281,219 -2257,1404 -2115,2694 69,572 139,1140 229,1697 186,1287 1443,2182 2735,2069 6304,-583 12691,-259 18975,-248 201,1117 407,2232 643,3348 -5801,2413 -11574,5143 -17614,7028 -1231,384 -2044,1681 -1729,2935 140,572 289,1114 432,1660 374,1247 1721,1967 2996,1686 6153,-1383 12521,-1906 18761,-2720 346,1081 706,2178 1087,3244 -5437,3146 -10803,6621 -16526,9256 -1189,548 -1826,1937 -1347,3149 208,531 429,1067 648,1594 511,1179 1965,1714 3186,1275 5918,-2185 12154,-3521 18235,-5146 483,1033 1011,2043 1528,3057 -4978,3831 -9853,7978 -15202,11346 -1089,697 -1544,2169 -918,3296 280,514 571,1003 860,1489 663,1114 2164,1463 3321,860 5586,-2941 11618,-5103 17435,-7493 620,953 1246,1906 1894,2846 -4451,4437 -8732,9188 -13600,13231 -1000,833 -1257,2356 -475,3392 332,464 680,917 1044,1360 800,1022 2336,1157 3400,415 5161,-3646 10861,-6559 16309,-9709 746,863 1481,1743 2243,2578 -3821,4996 -7461,10257 -11754,14893 -874,953 -931,2499 -25,3428 393,417 800,823 1207,1220 935,892 2474,836 3426,-35 4635,-4289 9907,-7924 14893,-11747 847,758 1722,1490 2579,2231 -3139,5449 -6054,11152 -9700,16321 -753,1052 -618,2587 407,3401 453,351 906,699 1360,1045 1044,767 2568,514 3400,-486 4033,-4856 8783,-9153 13232,-13589 939,649 1876,1276 2842,1891 -2400,5807 -4553,11839 -7502,17436 -591,1149 -251,2650 860,3321 487,291 990,581 1487,864 1124,624 2602,169 3297,-936 3386,-5344 7531,-10207 11346,-15200 1026,520 2035,1056 3058,1532 -1615,6072 -2950,12324 -5146,18249 -443,1204 93,2658 1278,3172 536,231 1056,450 1592,660 1196,475 2597,-163 3158,-1348 2640,-5725 6113,-11105 9256,-16540 1071,399 2150,757 3235,1104 -804,6228 -1330,12603 -2722,18760 -275,1264 440,2622 1687,2972 553,161 1102,313 1658,450 1256,317 2554,-497 2953,-1737 1867,-6032 4610,-11813 7013,-17614 1115,235 2243,447 3357,642 9,6296 337,12683 -256,18979 -103,1301 778,2557 2067,2742 571,81 1139,164 1696,233 1293,140 2476,-837 2709,-2115 1064,-6241 3032,-12334 4668,-18410 1126,81 2264,183 3403,243 824,6239 1985,12519 2221,18838 53,1291 1100,2418 2404,2441 579,14 1148,14 1717,14 1291,-28 2335,-1164 2407,-2456 240,-6319 1394,-12599 2221,-18838 1133,-60 2260,-162 3397,-243 1639,6076 3601,12162 4671,18410 224,1278 1409,2254 2694,2103 576,-58 1151,-141 1707,-222 1279,-185 2172,-1441 2056,-2742 -571,-6283 -254,-12683 -241,-18979 1114,-195 2244,-407 3347,-642 2413,5813 5153,11572 7022,17614 386,1240 1683,2054 2947,1737 561,-137 1122,-289 1665,-439 1246,-346 1964,-1719 1683,-2983 -1394,-6157 -1906,-12532 -2726,-18760 1094,-347 2171,-706 3241,-1104 3144,5435 6617,10803 9257,16540 546,1185 1949,1822 3161,1348 533,-221 1053,-429 1578,-649 1199,-525 1726,-1965 1276,-3197 -2172,-5911 -3521,-12162 -5136,-18235 1024,-476 2046,-1012 3046,-1532 3840,4993 7992,9856 11348,15215 703,1090 2171,1544 3310,906 500,-268 994,-568 1485,-849 1106,-659 1454,-2172 849,-3321 -2938,-5587 -5085,-11629 -7491,-17436 953,-615 1906,-1242 2847,-1891 4443,4436 9196,8733 13224,13589 841,1000 2358,1253 3394,486 468,-346 918,-694 1371,-1045 1010,-802 1154,-2348 406,-3401 -3646,-5170 -6563,-10872 -9696,-16321 859,-742 1729,-1474 2568,-2231 4989,3823 10253,7447 14887,11747 964,879 2500,938 3426,35 418,-409 825,-813 1221,-1220 906,-929 848,-2464 -33,-3428 -4289,-4636 -7922,-9897 -11743,-14893 762,-835 1500,-1715 2230,-2578 5456,3139 11144,6050 16317,9709 1069,742 2603,607 3403,-415 362,-443 707,-910 1044,-1360 771,-1036 519,-2558 -486,-3392 -4854,-4043 -9143,-8794 -13589,-13241 649,-930 1275,-1882 1894,-2835 5819,2390 11843,4544 17432,7493 1153,603 2658,254 3324,-860 300,-486 581,-988 857,-1474 637,-1141 174,-2613 -915,-3310 -5342,-3368 -10224,-7514 -15207,-11346 525,-1014 1050,-2024 1536,-3057 6065,1625 12308,2950 18235,5146 1221,452 2658,-86 3172,-1275 230,-538 451,-1063 662,-1594 471,-1197 -167,-2600 -1339,-3149 -5738,-2635 -11103,-6109 -16541,-9256 388,-1067 744,-2163 1093,-3244 6237,814 12601,1328 18761,2720 1264,291 2629,-432 2985,-1686 149,-555 300,-1099 450,-1646 314,-1254 -514,-2554 -1753,-2949 -6032,-1884 -11798,-4623 -17608,-7028 244,-1117 450,-2232 651,-3348 6296,-11 12682,-335 18978,248 1289,113 2554,-782 2729,-2069 87,-557 165,-1140 232,-1697 153,-1276 -835,-2475 -2113,-2694 -6226,-1069 -12326,-3043 -18414,-4679 94,-1129 204,-2254 257,-3406 6229,-814 12525,-1972 18829,-2217 1296,-61 2426,-1106 2439,-2404 24,-572 24,-1140 11,-1708 -24,-1300 -1154,-2344 -2450,-2403z"/>
   <path class="fil1" d="M458880 722444c-5817,-1963 -11561,-4179 -17219,-7100 -2733,471 -5531,729 -8382,729 -11692,0 -22554,-4137 -31209,-10994 -4936,543 -9854,882 -14648,1086 -13789,583 -27452,1071 -41224,2135 -17656,1363 -35342,2474 -52956,4313 -13943,1454 -27979,2429 -41924,3921 -621,109 -1242,211 -1864,328 -7475,1400 -14631,1918 -21600,954l18450 4506c246,2300 583,4565 979,6819l-17249 12741 -121 8061 22515 -1874c850,2153 2254,5638 3225,7707l-17165 14411 5796 10188 22114 -6468c1373,1847 2800,3643 4276,5400l-12857 18374 8222 8339 19725 -11975c1786,1431 3622,2822 5494,4137l-7667 21068 10106 5921 15908 -16642c2104,918 4253,1786 6425,2578l-1951 22302 11287 3100 11072 -20209c2267,336 4538,603 6841,791l3893 22101 11706 80 5493 -22402c2275,-256 4552,-580 6794,-977l9488 20329 11329 -2951 -503 -23043c2141,-853 4253,-1735 6343,-2700l14393 17150 10174 -5796 -6446 -22117c1831,-1350 3644,-2790 5387,-4275l18400 12867 8325 -8219 -11968 -19724c1436,-1781 2806,-3628 4129,-5494l21069 7667 5928 -10107 -16646 -15927c917,-2100 1775,-4222 2565,-6409l22299 1954 3103 -11290 -20196 -11087c213,-1406 383,-2837 539,-4275z"/>
   <path class="fil0" d="M290259 682958c-2508,4286 -8007,5715 -12263,3217 -4278,-2518 -5707,-7989 -3211,-12278 2507,-4250 7996,-5690 12282,-3182 4246,2498 5697,7978 3192,12243z"/>
   <path class="fil0" d="M356373 635225c-36,4949 -4083,8933 -9025,8900 -4952,-22 -8918,-4068 -8902,-9014 35,-4950 4068,-8933 9028,-8898 4933,24 8933,4065 8898,9012z"/>
   <path class="fil0" d="M394714 647622c-2508,4267 -7981,5707 -12252,3199 -4264,-2513 -5707,-7983 -3201,-12261 2489,-4274 7998,-5703 12272,-3207 4252,2497 5689,7981 3181,12269z"/>
   <path class="fil0" d="M430197 716933c-4959,-21 -8932,-4057 -8907,-9017 33,-4944 4078,-8930 9011,-8907 4968,46 8946,4078 8918,9028 -44,4960 -4063,8941 -9022,8896z"/>
   <path class="fil0" d="M414607 743042c2513,-4275 8006,-5710 12256,-3203 4289,2507 5704,7986 3207,12261 -2494,4278 -7992,5690 -12243,3197 -4300,-2510 -5715,-8003 -3220,-12256z"/>
   <path class="fil0" d="M412880 661950c4308,-2442 9776,-944 12219,3354 2447,4309 952,9757 -3346,12229 -4321,2441 -9781,940 -12233,-3367 -2448,-4311 -936,-9771 3360,-12217z"/>
   <path class="fil0" d="M391262 770120c4313,-2465 9783,-967 12211,3333 2453,4315 964,9778 -3348,12231 -4294,2448 -9769,936 -12219,-3360 -2436,-4297 -953,-9777 3357,-12204z"/>
   <path class="fil0" d="M348494 790770c41,-4939 4078,-8931 9028,-8907 4948,43 8932,4072 8896,9022 -21,4947 -4065,8945 -9025,8909 -4926,-48 -8918,-4078 -8899,-9024z"/>
   <path class="fil0" d="M317089 710336c129,-19607 16135,-35418 35752,-35300 19618,128 35417,16144 35276,35762 -115,19606 -16124,35417 -35740,35286 -19618,-115 -35414,-16130 -35288,-35748z"/>
   <path class="fil0" d="M310143 778387c2496,-4265 7992,-5703 12268,-3194 4275,2499 5709,7991 3178,12252 -2496,4264 -7964,5704 -12239,3197 -4278,-2498 -5704,-7992 -3207,-12254z"/>
   <path class="fil0" d="M304740 640314c4300,-2437 9767,-926 12206,3370 2453,4300 957,9769 -3354,12212 -4283,2452 -9767,964 -12206,-3347 -2453,-4307 -951,-9770 3354,-12235z"/>
   <path class="fil0" d="M283128 748479c4296,-2438 9767,-939 12206,3368 2452,4300 950,9767 -3342,12217 -4312,2441 -9783,941 -12218,-3357 -2456,-4307 -943,-9778 3354,-12228z"/>
   <path class="fil0" d="M265648 717975c31,-4944 4087,-8930 9022,-8896 4952,36 8935,4067 8899,9025 -35,4937 -4065,8920 -9017,8889 -4946,-39 -8926,-4067 -8904,-9018z"/>
   <path class="fil5" d="M198791 763809c41792,-5135 71514,-43180 66376,-84986 -5139,-41786 -43194,-71508 -84983,-66374 -12074,1483 -23131,5729 -32642,12007 3418,2608 6824,5324 9654,7803 7291,-4221 15530,-7078 24415,-8172 35367,-4343 67552,20806 71910,56174 4340,35370 -20804,67564 -56160,71911 -35359,4343 -67562,-20800 -71905,-56158 -1557,-12667 686,-24918 5809,-35639 -3137,-996 -6855,-2201 -11260,-3653 -5588,12331 -7966,26303 -6191,40721 5132,41792 43185,71515 84977,66367z"/>
   <path class="fil5" d="M191673 705957c9850,-1210 16838,-10175 15635,-20014 -470,-3801 -2103,-7171 -4491,-9814 -3758,1936 -7989,3664 -12630,5119 -3306,1003 -6431,1725 -9338,2146 -3091,447 -6004,544 -8748,333 -532,2097 -708,4319 -428,6594 1206,9847 10170,16843 20000,15635z"/>
   <path class="fil5" d="M280204 693514l25410 -4321 -3703 -30219 -25715 1975c-3861,-12336 -10294,-23667 -18885,-33297l15190 -21417 -23996 -18747 -17156 20004c-11314,-5893 -23710,-9329 -36441,-10074l-4479 -26435 -30225 3717 2044 26736c-9794,3068 -18943,7790 -27127,13915 1428,1010 3136,2231 5009,3592 8382,-5992 17939,-10526 28343,-13175l-1983 -25911 6122 -756 6837 -846 6121 -744 4358 25621c15425,71 30106,4332 42761,11814l16614 -19374 4862 3799 5426 4239 4867 3797 -14735 20768c10482,10533 18291,23864 22124,38997l24915 -1915 739 6122 850 6839 746 6124 -24625 4179c-60,15729 -4475,30665 -12197,43475l18760 16102 -3797 4851 -4243 5424 -3797 4869 -20256 -14379c-10687,10465 -24183,18211 -39486,21882l1890 24784 -6114 755 -6839 835 -6121 759 -4203 -24753c-15574,-241 -30361,-4761 -43022,-12556l-16506 19247 -4869 -3798 -5424 -4241 -4869 -3800 14846 -20931c-10183,-10582 -17715,-23864 -21333,-38900l-25809 1979 -747 -6110 -844 -6843 -753 -6119 25767 -4393c187,-11518 2713,-22594 7166,-32707 -1474,-515 -3295,-1300 -5378,-2296 -4170,9494 -6717,19629 -7451,30011l-26625 4531 3720 30219 26553 -2032c3670,12207 9870,23475 18210,33126l-15357 21650 23987 18737 16992 -19805c11361,6141 23869,9790 36752,10695l4344 25605 30221 -3721 -1948 -25530c12471,-3741 23960,-10125 33739,-18725l20941 14856 18749 -23996 -19342 -16599c6103,-11496 9654,-24157 10424,-37168z"/>
   <polygon class="fil0" points="105188,543046 236444,310587 960887,520943 945486,725204 169380,725654 "/>
   <path class="fil1" d="M235136 307379l-132312 234331 -607 1074 23394 66548c2825,1569 5294,3061 7226,4410 32,22 77,54 111,76l-24787 -70508 129594 -229514 720260 209142 -15044 199552 -771664 447 -16322 -46431c-3837,-3271 -6601,-7243 -8161,-11813 -540,-83 -1164,-206 -1879,-364l22514 64042 780547 -453 15756 -208967 -728624 -211572z"/>
   <path class="fil1" d="M240147 319657l-126504 224067 26326 75103c7511,5451 17632,13136 21983,18008 519,-96 1024,-186 1520,-258 12756,-1833 19830,3790 23524,8835 4935,6903 10636,12210 17028,15878 2590,1489 4157,4256 4121,7226 -35,2985 -1699,5701 -4321,7107 -3994,2149 -8586,4043 -13637,5626 -3306,1003 -6431,1725 -9338,2146 -7122,1030 -13357,308 -18537,-2126 -193,-96 -367,-206 -559,-303l12970 37000 763657 -441 14353 -190944 -712586 -206924z"/>
   <path class="fil4" d="M192861 258221c-1014,0 -1999,-424 -2732,-1154 -732,-733 -1154,-1690 -1154,-2732 0,-1040 422,-2026 1154,-2758 1437,-1436 4026,-1436 5490,0 703,732 1126,1718 1126,2758 0,1042 -396,1999 -1126,2732 -760,731 -1720,1154 -2758,1154z"/>
   <path class="fil4" d="M179459 268326c-1576,-1437 -1715,-3885 -280,-5490l0 0c1435,-1576 3885,-1717 5490,-282l0 0c1575,1464 1714,3914 279,5490l0 0c-787,844 -1826,1294 -2900,1294l0 0c-926,0 -1856,-338 -2589,-1013zm-9740 12076c-1689,-1294 -1999,-3744 -674,-5433l0 0c1322,-1717 3742,-2026 5432,-704l0 0c1689,1324 2026,3744 704,5433l0 0c-761,986 -1914,1521 -3068,1521l0 0c-844,0 -1691,-282 -2394,-817zm-8783 12781c-1772,-1182 -2279,-3575 -1097,-5378l0 0c1183,-1801 3604,-2281 5378,-1098l0 0c1800,1183 2279,3576 1096,5378l0 0c-730,1125 -1971,1746 -3235,1746l0 0c-733,0 -1465,-225 -2142,-647zm-7769 13428c-1858,-1071 -2532,-3406 -1492,-5293l0 0c1015,-1858 3379,-2533 5264,-1520l0 0c1886,1041 2563,3407 1521,5292l0 0c-704,1267 -2054,1999 -3406,1999l0 0c-647,0 -1296,-168 -1887,-478zm-6699 13963c-1940,-902 -2815,-3181 -1914,-5124l0 -28c872,-1943 3181,-2787 5152,-1915l0 0c1941,901 2786,3182 1914,5151l0 0c-649,1408 -2083,2253 -3547,2253l0 0c-535,0 -1068,-113 -1604,-337zm-5574 14468c-2027,-731 -3070,-2956 -2335,-4981l0 0c758,-2000 2954,-3040 4981,-2310l0 0c2026,732 3068,2957 2336,4956l0 0c-592,1576 -2083,2561 -3660,2561l0 0c-450,0 -872,-57 -1322,-226zm-4420 14864c-2083,-590 -3293,-2701 -2702,-4786l0 0c563,-2054 2702,-3264 4756,-2701l0 0c2057,563 3293,2701 2704,4786l0 0c0,0 0,0 29,0l0 0c-479,1717 -2056,2841 -3745,2841l0 0c-337,0 -704,-56 -1042,-140zm-3237 15146c-2112,-396 -3489,-2420 -3068,-4532l0 0c391,-2112 2420,-3492 4533,-3068l0 0c2111,393 3491,2421 3067,4532l0 0c-337,1857 -1970,3153 -3799,3153l0 0c-257,0 -481,-29 -733,-85z"/>
   <path class="fil4" d="M131634 380506c-1042,0 -2030,-394 -2760,-1126 -731,-731 -1128,-1717 -1128,-2758 0,-1014 397,-1999 1128,-2731 1435,-1436 4024,-1436 5490,0 731,704 1125,1717 1125,2731 0,1042 -393,2028 -1125,2758 -732,732 -1718,1126 -2730,1126z"/>
   <path class="fil1" d="M312536 250185l-16967 8328c-2122,1043 -4729,71 -5817,-2157 -1097,-2229 -264,-4887 1853,-5921l16967 -8328c2128,-1043 4722,-82 5819,2148 1103,2237 276,4886 -1856,5929zm59028 -99832c-21587,-10507 -62157,-7428 -94808,8187 -738,352 -1459,703 -2179,1074l-3826 -7797 -99 39c-142,-619 -363,-1283 -640,-1935 2571,-292 6350,-1517 10364,-3483 6633,-3260 11326,-7293 10487,-9018 -851,-1739 -6926,-492 -13547,2768 -4283,2097 -7747,4524 -9454,6442 -1314,-1343 -2794,-1946 -3897,-1403 -1076,531 -1518,2036 -1287,3861 -2571,221 -6514,1475 -10688,3522 -6626,3251 -11319,7286 -10467,9022 847,1715 6914,490 13537,-2771 3903,-1907 7122,-4082 8950,-5919 344,592 713,1164 1106,1636l-104 49 3925 7976c-18924,10628 -35035,26090 -46637,50386l-37985 7092 3943 8039c8225,-4025 17660,-1646 21076,5318l3983 8107 -6922 3393 39 70c-440,89 -903,250 -1364,453 -189,-1799 -1054,-4447 -2431,-7257 -2278,-4635 -5109,-7915 -6311,-7325 -1210,594 -344,4839 1937,9474 1461,2992 3158,5417 4514,6602 -943,924 -1374,1967 -992,2731 368,762 1425,1065 2709,903 153,1794 1024,4544 2456,7476 2276,4633 5100,7904 6315,7314 1193,-592 338,-4828 -1939,-9472 -1344,-2718 -2861,-4977 -4144,-6253 412,-239 812,-490 1143,-772l31 71 6915 -3392 3735 7587c3417,6972 -463,15892 -8685,19918l5803 11810c1806,-2399 12289,-14902 13437,-19335 107,-442 258,-1154 424,-2058 567,-3021 1409,-8291 2283,-13880 12553,2602 26672,2761 41350,342 353,2491 3992,6546 8091,10307l-6191 3039 28 50c-308,61 -640,171 -972,321 -142,-1285 -756,-3168 -1725,-5175 -1625,-3301 -3646,-5630 -4497,-5208 -858,421 -254,3442 1376,6742 1053,2137 2257,3864 3208,4707 -662,652 -962,1397 -703,1946 265,532 1028,754 1928,642 108,1276 733,3243 1758,5321 1613,3300 3633,5637 4493,5215 854,-421 241,-3441 -1374,-6741 -961,-1947 -2044,-3553 -2964,-4465 303,-171 583,-350 825,-553l19 48 7367 -3613c432,374 868,733 1285,1085 3524,2932 6732,5189 7797,5601 2850,1103 6783,3240 12047,1593 5263,-1644 37974,-18011 40614,-20870 2639,-2861 1885,-9683 1885,-9683l471 -7467 51 -719 -21256 10424c-2283,1124 -5047,182 -6168,-2107 -1125,-2287 -182,-5047 2107,-6172l25990 -12753 511 -8250c14650,-13265 25167,-28565 30425,-43897 1908,-3678 3169,-8913 2658,-10149 -951,-1986 -6433,-6521 -11143,-8808z"/>
   <path class="fil2" d="M927537 537997c387,3879 3626,6782 7437,6818l-1444 -14936c-3736,764 -6361,4239 -5993,8118zm9028 6665l-1443 -14939c3810,39 7063,2943 7437,6822 383,3878 -2254,7353 -5994,8117l0 0z"/>
   <path class="fil2" d="M915485 698151c-2257,3182 -1697,7503 1172,10013l8661 -12254c-3328,-1860 -7589,-942 -9833,2241zm2486 10928l8654 -12237c2869,2503 3425,6828 1182,10008 -2248,3183 -6504,4101 -9836,2229l0 0z"/>
   <path class="fil2" d="M185941 711776c3720,1182 7670,-637 9215,-4137l-14286 -4575c-782,3743 1368,7528 5071,8713zm9691 -5647l-14288 -4587c1546,-3482 5496,-5317 9210,-4124 3717,1187 5858,4971 5078,8711l0 0z"/>
   <path class="fil2" d="M127570 542667c-2579,2914 -2491,7270 88,10083l9935 -11233c-3106,-2219 -7448,-1779 -10023,1150zm1276 11136l9937 -11229c2581,2811 2676,7165 100,10081 -2596,2928 -6928,3368 -10037,1148l0 0z"/>
   <path class="fil2" d="M242314 346069c1729,3483 5806,5053 9375,3717l-6672 -13436c-3214,2042 -4433,6222 -2703,9719zm10801 3008l-6656 -13437c3564,-1324 7643,233 9371,3717 1729,3497 511,7678 -2715,9720l0 0z"/>
   <path class="fil3" d="M831941 480679c-20767,15476 -45214,26108 -73217,31793 -17561,3567 -38713,5371 -62890,5371 -9983,0 -20343,-285 -31664,-890 -39759,-2097 -79794,-7753 -119015,-16794 -55400,-12793 -130850,-37726 -175682,-83921 -17039,-17550 -28176,-36871 -33119,-57422 -1761,-7344 -2703,-16883 -2261,-23185 703,261 9106,2686 9821,2918 1051,450 2301,2943 3392,3382 2718,1093 -2082,515 728,1379 6239,9680 17700,19967 29252,21608 38046,5406 75547,14235 113301,21321 35474,6658 71310,12512 104946,26074 26930,11489 54012,22939 82424,30194 29140,7441 59446,9264 88665,16679 8689,2206 17521,2082 25747,4 4550,5326 9761,10143 16559,14047 3998,2296 8575,3382 12868,4494 3789,981 10474,2703 10147,2947l0 0z"/>
   <path class="fil6" d="M876069 415446c19737,-39604 3756,-67524 -13135,-76137 -9853,-5018 -24129,629 -44591,10490 -31843,15356 -72403,22328 -111132,22035 -21865,-167 -46932,-2506 -72083,-7064 -36738,-6667 -73642,-18067 -100889,-34354 -23617,-16313 -114996,-41299 -162587,-25341 -21638,7247 -34235,22978 -27303,51821 4787,19978 15675,37815 31019,53618 82821,85361 295603,111393 381718,93908 49351,-10017 91744,-36980 118982,-88976z"/>
   <path class="fil6" d="M736980 82853l-273572 6963 -40408 1076 48106 331890 89 -8 0 8c506,19769 62125,34236 137588,32314 75476,-1922 136283,-19517 135778,-39276l0 -11 107 0 34168 -334035 -41854 1079z"/>
   <path class="fil3" d="M601372 106337c98251,-2611 177698,-13824 177431,-25021 -267,-11183 -80161,-18139 -178402,-15526 -98243,2622 -177713,13824 -177437,25021 268,11196 80165,18152 178408,15526z"/>
   <path class="fil1" d="M639961 65276c-12728,0 -25964,171 -39558,526 -98246,2579 -177711,13853 -177428,25181 236,9754 59531,16372 138724,16372 12778,0 26057,-172 39706,-532 98254,-2568 177694,-13852 177419,-25179 -236,-9749 -59597,-16368 -138862,-16368l0 0zm0 8451c63000,0 104192,4174 122290,8341 -21046,6024 -74515,14046 -161054,16308 -13326,351 -26617,529 -39498,529 -62935,0 -104083,-4174 -122157,-8342 21038,-6019 74510,-14040 161067,-16313 13276,-347 26515,-524 39353,-524z"/>
   <path class="fil4" d="M510241 228940c-8337,0 -15103,-6776 -15103,-15113 0,-8326 6765,-15103 15103,-15103 8335,0 15110,6776 15110,15103 0,8336 -6775,15113 -15110,15113zm0 -37497c-12357,0 -22382,10028 -22382,22385 0,12367 10025,22394 22382,22394 12368,0 22397,-10028 22397,-22394 0,-12357 -10029,-22385 -22397,-22385z"/>
   <path class="fil5" d="M510241 240363c-14633,0 -26526,-11906 -26526,-26535 0,-14630 11893,-26523 26526,-26523 14631,0 26535,11893 26535,26523 0,14630 -11904,26535 -26535,26535zm49764 -27788c-2229,-89 -4433,-474 -6659,-780 -19,-528 -64,-1054 -107,-1570 2153,-606 4306,-1262 6501,-1636 494,-89 882,-550 814,-1044 -20,-221 -54,-440 -89,-657 -63,-497 -549,-847 -1056,-806 -2218,211 -4470,124 -6685,114 -99,-530 -188,-1044 -311,-1559 2057,-870 4086,-1804 6215,-2464 476,-151 806,-657 674,-1139 -54,-222 -113,-431 -176,-650 -131,-482 -658,-757 -1143,-649 -2174,496 -4415,704 -6614,965 -159,-504 -328,-996 -506,-1492 1913,-1132 3802,-2329 5833,-3250 450,-222 692,-758 517,-1219 -85,-208 -174,-418 -253,-615 -196,-463 -758,-671 -1232,-494 -2083,768 -4280,1264 -6425,1824 -231,-472 -470,-944 -700,-1418 1737,-1372 3471,-2803 5359,-3986 426,-275 594,-846 349,-1286 -107,-186 -217,-385 -329,-571 -257,-426 -832,-560 -1283,-328 -1964,1032 -4074,1822 -6139,2657 -283,-450 -575,-890 -876,-1318 1558,-1592 3083,-3240 4797,-4656 382,-332 497,-914 186,-1321 -131,-176 -264,-350 -407,-526 -304,-396 -898,-449 -1306,-152 -1825,1282 -3810,2326 -5754,3426 -332,-407 -682,-803 -1033,-1197 1339,-1769 2640,-3603 4148,-5240 333,-372 363,-967 0,-1319 -151,-164 -306,-318 -461,-470 -347,-354 -940,-329 -1315,9 -1637,1506 -3472,2812 -5247,4153 -398,-363 -794,-703 -1187,-1043 1086,-1932 2139,-3921 3425,-5744 287,-406 244,-1000 -152,-1319 -179,-132 -354,-274 -530,-407 -404,-294 -988,-196 -1317,199 -1426,1703 -3076,3240 -4654,4801 -443,-307 -882,-594 -1320,-878 833,-2067 1614,-4175 2658,-6141 239,-451 99,-1033 -328,-1286 -204,-120 -397,-229 -574,-341 -437,-240 -1013,-67 -1287,363 -1188,1879 -2622,3614 -3986,5360 -472,-242 -946,-483 -1429,-704 564,-2150 1056,-4336 1836,-6424 176,-472 -33,-1032 -494,-1232 -197,-86 -418,-174 -615,-251 -463,-186 -1013,56 -1233,518 -919,2019 -2118,3919 -3235,5829 -497,-174 -1000,-350 -1507,-504 265,-2208 488,-4435 967,-6613 115,-494 -153,-1022 -639,-1151 -215,-57 -435,-120 -637,-178 -491,-119 -994,200 -1152,682 -646,2121 -1593,4164 -2458,6217 -517,-121 -1044,-220 -1561,-307 -26,-2221 -96,-4471 98,-6689 54,-504 -294,-989 -789,-1054 -222,-44 -441,-65 -657,-89 -506,-65 -957,319 -1046,811 -372,2199 -1044,4353 -1637,6493 -525,-44 -1056,-89 -1581,-109 -308,-2172 -670,-4361 -770,-6556 0,-36 0,-58 0,-91 -21,-385 -263,-722 -593,-867 -98,-44 -221,-75 -330,-75 -150,0 -294,0 -439,0 -86,0 -154,0 -217,0 -507,0 -922,437 -946,941 -44,1132 -154,2253 -311,3383 -152,1090 -303,2176 -463,3263 -522,21 -1047,65 -1578,109 -593,-2140 -1250,-4294 -1621,-6493 -89,-492 -550,-876 -1044,-811 -232,24 -453,57 -661,76 -493,78 -846,563 -803,1067 210,2218 122,4468 111,6689 -529,87 -1054,186 -1560,307 -868,-2053 -1806,-4096 -2464,-6217 -150,-482 -656,-801 -1141,-682 -217,58 -425,121 -637,178 -482,142 -764,669 -657,1151 486,2178 700,4404 965,6613 -506,154 -1001,331 -1490,504 -1133,-1910 -2331,-3810 -3254,-5829 -219,-463 -759,-704 -1232,-518 -196,78 -390,165 -612,251 -460,200 -664,760 -485,1232 770,2088 1275,4274 1824,6424 -485,221 -947,463 -1417,704 -1375,-1746 -2802,-3481 -3989,-5360 -275,-429 -833,-603 -1269,-363 -202,111 -396,221 -594,341 -418,253 -550,835 -318,1286 1031,1965 1810,4074 2643,6141 -436,283 -876,571 -1312,878 -1585,-1561 -3231,-3098 -4664,-4801 -312,-394 -896,-493 -1303,-186 -178,132 -362,263 -525,394 -387,319 -450,914 -167,1319 1293,1824 2350,3813 3437,5744 -407,341 -806,681 -1196,1043 -1780,-1341 -3607,-2647 -5229,-4153 -372,-338 -978,-363 -1340,-9 -152,152 -308,306 -461,470 -353,353 -328,947 9,1319 1507,1637 2813,3471 4141,5240 -352,394 -689,791 -1028,1197 -1936,-1089 -3926,-2144 -5746,-3426 -407,-297 -1002,-244 -1311,152 -152,176 -283,350 -415,526 -285,407 -194,989 200,1321 1703,1415 3228,3064 4786,4656 -296,428 -593,868 -875,1318 -2058,-835 -4165,-1615 -6131,-2657 -453,-232 -1032,-98 -1296,328 -110,186 -222,385 -329,571 -243,440 -70,1011 361,1286 1882,1183 3611,2614 5357,3986 -241,474 -471,946 -702,1418 -2153,-560 -4336,-1056 -6425,-1824 -482,-176 -1031,32 -1226,494 -91,197 -179,407 -265,615 -176,461 63,997 525,1219 2022,921 3925,2118 5833,3250 -176,496 -339,987 -514,1492 -2200,-261 -4441,-469 -6607,-965 -490,-108 -1010,167 -1151,649 -64,219 -115,428 -176,650 -118,482 200,987 682,1139 2133,660 4175,1594 6215,2464 -107,515 -215,1029 -301,1559 -2219,10 -4471,97 -6694,-114 -490,-42 -985,308 -1064,806 -33,217 -64,436 -89,657 -53,494 331,956 825,1044 2187,374 4348,1043 6490,1636 -43,515 -87,1042 -107,1570 -2198,318 -4418,692 -6633,780 -520,21 -946,418 -965,922 0,221 0,453 0,669 19,496 446,903 965,922 2215,87 4435,459 6633,769 20,537 64,1056 107,1582 -2142,593 -4303,1265 -6490,1637 -494,88 -878,550 -825,1042 25,222 56,439 89,660 79,496 574,835 1064,790 2224,-196 4475,-121 6694,-98 86,528 194,1044 301,1561 -2040,868 -4082,1800 -6215,2460 -482,153 -800,659 -682,1140 61,222 112,429 176,637 132,483 661,771 1151,660 2167,-493 4407,-703 6607,-978 175,506 337,1010 514,1506 -1908,1130 -3811,2318 -5833,3250 -462,209 -701,757 -514,1219 75,211 164,407 254,615 196,461 744,669 1226,494 2089,-770 4272,-1275 6425,-1824 231,474 461,943 702,1417 -1746,1374 -3475,2803 -5357,3987 -431,272 -604,835 -361,1274 107,197 219,396 329,582 264,431 843,561 1296,331 1965,-1044 4072,-1824 6131,-2658 282,453 579,887 875,1317 -1558,1582 -3072,3232 -4800,4658 -380,329 -470,913 -186,1317 132,176 264,353 407,528 318,385 913,441 1320,154 1819,-1285 3809,-2339 5746,-3425 339,394 676,799 1028,1183 -1328,1781 -2633,3614 -4141,5251 -337,364 -362,954 -9,1318 153,164 309,318 461,472 363,351 968,330 1340,-11 1622,-1517 3449,-2811 5229,-4153 391,354 789,704 1196,1044 -1087,1933 -2144,3920 -3437,5744 -283,407 -232,999 167,1308 171,142 347,271 525,406 407,307 991,197 1303,-188 1433,-1712 3079,-3240 4664,-4798 436,296 876,592 1312,879 -833,2065 -1612,4172 -2656,6139 -219,448 -87,1033 331,1286 198,120 393,230 579,341 444,239 1010,62 1285,-363 1187,-1879 2614,-3615 3989,-5372 469,253 932,483 1417,714 -548,2142 -1054,4339 -1824,6425 -179,472 25,1035 485,1229 222,89 417,178 612,253 472,188 1013,-65 1232,-526 924,-2009 2121,-3909 3254,-5820 489,175 985,340 1490,506 -265,2207 -479,4437 -965,6609 -107,486 175,1011 657,1143 213,65 421,122 637,175 485,122 991,-185 1141,-669 658,-2120 1596,-4174 2464,-6217 506,111 1031,213 1560,310 11,2217 98,4468 -111,6689 -43,493 310,987 803,1053 217,35 429,67 661,87 494,67 956,-318 1044,-813 371,-2194 1028,-4348 1621,-6489 530,42 1056,85 1578,109 311,2196 699,4415 774,6642 24,497 439,935 932,947 231,0 450,0 670,0 496,-13 903,-450 924,-947 89,-2226 462,-4446 770,-6642 525,-25 1056,-68 1581,-109 593,2140 1265,4294 1637,6489 89,494 541,880 1046,813 215,-21 435,-53 657,-87 494,-65 832,-560 789,-1053 -194,-2221 -107,-4472 -98,-6689 517,-97 1044,-198 1561,-310 865,2043 1813,4088 2458,6217 142,485 661,792 1143,669 211,-53 431,-110 646,-163 486,-144 754,-669 639,-1156 -479,-2172 -702,-4403 -967,-6609 507,-165 1010,-331 1507,-506 1128,1911 2315,3811 3235,5833 221,449 771,702 1233,514 197,-87 418,-164 615,-253 461,-194 659,-757 494,-1229 -781,-2086 -1272,-4283 -1836,-6425 483,-231 957,-461 1429,-714 1364,1757 2798,3493 3986,5372 275,425 833,602 1276,350 187,-111 380,-218 585,-328 417,-253 542,-837 328,-1286 -1036,-1967 -1825,-4074 -2658,-6139 437,-287 876,-583 1320,-879 1578,1558 3228,3086 4654,4798 329,397 913,494 1317,188 176,-135 351,-264 530,-406 396,-309 439,-901 152,-1308 -1286,-1825 -2328,-3811 -3425,-5744 393,-340 789,-690 1187,-1044 1775,1341 3610,2636 5247,4153 375,341 968,362 1315,11 167,-154 318,-308 474,-472 350,-351 321,-954 -13,-1318 -1508,-1637 -2809,-3470 -4148,-5251 351,-385 701,-789 1033,-1183 1944,1086 3929,2141 5754,3425 407,297 987,230 1306,-154 143,-175 276,-351 407,-528 311,-404 196,-988 -186,-1317 -1703,-1417 -3239,-3076 -4797,-4658 302,-429 593,-864 876,-1317 2065,835 4175,1614 6139,2658 452,231 1026,100 1283,-331 112,-198 230,-385 329,-582 246,-429 69,-1001 -349,-1274 -1889,-1185 -3614,-2626 -5359,-3987 230,-474 469,-943 700,-1417 2144,548 4333,1054 6425,1824 474,175 1022,-33 1224,-494 87,-208 176,-404 261,-615 175,-463 -67,-1010 -517,-1219 -2032,-932 -3921,-2120 -5833,-3250 178,-496 346,-1000 506,-1506 2199,275 4441,485 6614,978 485,111 1012,-176 1143,-660 64,-208 133,-415 176,-637 132,-481 -197,-987 -674,-1140 -2119,-660 -4158,-1592 -6215,-2460 124,-517 213,-1033 311,-1561 2215,-22 4467,-97 6685,98 507,44 993,-294 1056,-790 35,-221 69,-437 89,-660 68,-492 -320,-954 -814,-1042 -2196,-372 -4348,-1044 -6501,-1637 43,-526 87,-1044 107,-1582 2225,-310 4430,-682 6659,-769 506,-20 932,-426 948,-922 0,-229 0,-448 0,-669 -17,-494 -443,-902 -948,-922z"/>
   <path class="fil7" d="M741875 312774l-39550 -2282c-2614,-144 -4635,-2407 -4481,-5021l911 -15694c141,-2604 2409,-4614 5007,-4471l39565 2283c2600,156 4611,2406 4469,5021l-912 15696c-143,2603 -2403,4622 -5010,4468z"/>
   <path class="fil3" d="M735803 176285l-11774 -678c-8632,-497 -16099,6161 -16596,14793l-4415 76508c-482,8622 6160,16092 14794,16597l11775 678c8619,497 16092,-6160 16597,-14791l4403 -76512c503,-8631 -6161,-16099 -14785,-16596z"/>
   <path class="fil7" d="M700686 256232l-576 10026c-575,9810 6996,18303 16803,18874l13365 767c9822,561 18299,-6997 18867,-16803l583 -10029 -49042 -2835z"/>
   <path class="fil7" d="M736273 175607c-1844,-232 -3380,-935 -3107,-5591l-143 -5976c22,-100 -9,560 44,-298 210,-3679 -4732,-3875 -4943,-239 -54,889 -11,308 8,452l-744 5478c-283,4868 -2490,5515 -3746,5437 -9268,-526 -17274,6613 -17813,15883l-1067 18419 46318 2668 1051 -18432c550,-9258 -6630,-16794 -15860,-17801z"/>
   <polygon class="fil6" points="735190,213717 732389,255348 741950,255825 744753,214192 "/>
   <polygon class="fil6" points="723179,213131 720382,254764 729940,255228 732740,213606 "/>
   <polygon class="fil6" points="711172,212544 708375,254178 717937,254642 720722,213021 "/>
   <path class="fil3" d="M723694 180150c1275,-342 2625,-485 4007,-397l9743 561c7164,407 12676,6600 12261,13753l-418 7314 -4261 -252 415 -7086c399,-6930 -4957,-12936 -11882,-13335l-9458 -550c-132,0 -276,-8 -407,-8z"/>
   <path class="fil3" d="M689861 307328l-176139 -10159c-18735,-1078 -34940,13368 -36014,32093l-1107 19240c-1081,18728 13350,34928 32065,36006l176160 10159c18730,1076 34932,-13356 36019,-32083l1097 -19252c1085,-18717 -13356,-34929 -32082,-36004z"/>
   <polygon class="fil7" points="693762,324503 516557,311657 516043,318872 693230,331719 "/>
   <polygon class="fil7" points="692825,337213 515644,324363 515130,331576 692311,344426 "/>
   <polygon class="fil7" points="691912,349919 514723,337069 514207,344286 691386,357136 "/>
   <polygon class="fil7" points="690989,362628 513809,349776 513275,356983 690467,369831 "/>
   <polygon class="fil7" points="690068,375336 512878,362486 512361,369690 689554,382551 "/>
   <path class="fil5" d="M481694 315739c-2611,0 -5048,-1294 -6500,-3471l-30953 -46085c-1207,-1681 -1665,-3986 -1162,-6183 836,-3557 3975,-6052 7626,-6052 586,0 1178,65 1764,199l123263 28369 10348 -11147c1471,-1592 3560,-2504 5731,-2504 2003,0 3890,744 5348,2108 1506,1371 2383,3307 2474,5403 89,2087 -637,4083 -2056,5613l-13444 14487c-1478,1590 -3569,2503 -5743,2503l0 0c-656,0 -1320,-75 -1954,-240l-108206 -24900 19947 29711c2403,3558 1471,8422 -2108,10839 -1320,890 -2813,1350 -4375,1350z"/>
   <path class="fil0" d="M593308 278058c744,-814 693,-2089 -132,-2846 -806,-757 -2091,-702 -2835,109l-12632 13618 -126546 -29126c-1076,-240 -2153,431 -2415,1507 -136,593 0,1174 326,1622l30948 46086c620,925 1870,1165 2791,550 913,-628 1156,-1867 532,-2789l-28143 -41924 122639 28226c702,196 1499,0 2032,-571l13435 -14464z"/>
   <path class="fil5" d="M613547 277426c-8385,0 -16261,3263 -22180,9187 -5929,5928 -9193,13810 -9190,22194 3,8381 3269,16253 9198,22172 5922,5925 13796,9187 22175,9187l3 0c8380,0 16262,-3264 22191,-9186 5920,-5925 9181,-13806 9181,-22185 -3,-8385 -3269,-16260 -9198,-22181 -5922,-5928 -13799,-9190 -22180,-9190zm6 70081l-3 0c-10342,-3 -20059,-4026 -27361,-11336 -7317,-7300 -11346,-17018 -11351,-27360 -3,-10346 4024,-20072 11339,-27386 7306,-7311 17026,-11337 27370,-11337 10344,0 20064,4026 27367,11340 7315,7302 11346,17021 11348,27367 3,10342 -4021,20063 -11329,27376 -7315,7310 -17042,11336 -27380,11336z"/>
   <path class="fil3" d="M589311 284561c-13392,13386 -13378,35102 0,48478 13387,13387 35100,13387 48476,0 13389,-13389 13389,-35102 0,-48492 -13385,-13378 -35099,-13378 -48476,14z"/>
   <path class="fil6" d="M591273 286525c-12308,12299 -12308,32260 14,44560 12287,12292 32246,12292 44548,-13 12287,-12301 12287,-32256 0,-44547 -12313,-12300 -32269,-12300 -44563,0z"/>
   <path class="fil3" d="M594550 289808c-10493,10490 -10493,27503 8,37992 3798,3813 8479,6239 13398,7283 -548,-265 -1107,-541 -1648,-838 -3071,-1304 -5974,-3226 -8500,-5732 -10474,-10501 -10488,-27513 0,-38001 6283,-6294 14917,-8810 23089,-7556 -9074,-2572 -19218,-288 -26347,6851z"/>
   <path class="fil5" d="M481076 316408c-1685,0 -3359,-558 -4707,-1579l-44325 -33390c-1686,-1196 -2869,-3206 -3112,-5413 -439,-4375 2678,-8218 6961,-8656l125726 -13587 6117 -13926c1257,-2844 4068,-4680 7172,-4680 1078,0 2119,220 3112,647 3997,1760 5794,6382 4060,10336l-7953 18068c-1164,2646 -3643,4426 -6532,4644l-110392 11928 28589 21539c3440,2581 4142,7481 1561,10929 -1472,1978 -3815,3139 -6278,3139l0 0z"/>
   <path class="fil0" d="M576744 243821c452,-1020 0,-2207 -1033,-2656 -1010,-441 -2196,22 -2658,1032l-7467 17013 -129098 13948c-1100,111 -1900,1097 -1776,2208 62,592 374,1096 833,1428l44338 33400c876,669 2144,494 2800,-396 672,-890 496,-2140 -393,-2812l-40330 -30379 125121 -13521c725,-44 1418,-481 1737,-1209l7928 -18057z"/>
   <polygon class="fil3" points="482923,289075 475194,288635 474050,311963 481786,312411 "/>
   <path class="fil3" d="M473746 286635c-861,-44 -1607,615 -1650,1472l0 0c-44,854 614,1591 1471,1648l10996 635c870,43 1594,-614 1658,-1472l0 0c43,-856 -612,-1591 -1471,-1646 859,56 1603,-604 1646,-1462l0 0c44,-854 -613,-1603 -1471,-1644 858,42 1607,-617 1650,-1472l0 0c44,-858 -618,-1594 -1474,-1639 856,44 1606,-613 1650,-1471l0 0c52,-856 -611,-1592 -1475,-1649 864,57 1601,-603 1644,-1458l0 0c61,-857 -587,-1606 -1446,-1649 858,43 1579,-617 1639,-1472l0 0c53,-857 -611,-1592 -1463,-1646 852,54 1589,-606 1649,-1463l0 0c46,-854 -618,-1604 -1472,-1647 854,43 1599,-614 1643,-1472l0 0c44,-857 -612,-1591 -1471,-1646 859,54 1603,-606 1647,-1461l0 0c44,-857 -612,-1593 -1470,-1647 858,54 1603,-615 1657,-1460l0 0c44,-869 -613,-1606 -1469,-1648l-11017 -638c-857,-56 -1583,615 -1639,1461l0 0c-52,868 606,1604 1464,1647 -858,-43 -1585,614 -1649,1471l0 0c-46,858 615,1593 1472,1650 -857,-57 -1594,603 -1649,1458l0 0c-44,856 618,1604 1472,1647 -854,-43 -1590,617 -1649,1474l0 0c-44,856 618,1590 1474,1636 -856,-46 -1591,614 -1644,1471l0 0c-44,857 609,1593 1470,1650 -861,-57 -1606,603 -1648,1458l0 0c-58,856 604,1604 1458,1647 -854,-43 -1590,617 -1643,1472l0 0c-61,857 601,1592 1457,1646 -856,-54 -1591,606 -1636,1463l0 0c-52,856 604,1604 1464,1647 -860,-43 -1596,614 -1652,1472l0 0c-43,844 614,1592 1475,1636z"/>
   <path class="fil2" d="M572264 261286c-778,0 -1522,-165 -2232,-494l-4272 -1989c-2646,-1228 -3797,-4393 -2571,-7040l2372 -5083c861,-1857 2750,-3067 4814,-3067 781,0 1526,164 2226,496l4276 1987c2632,1229 3802,4383 2569,7042l-2376 5085c-854,1867 -2741,3064 -4807,3064l0 0z"/>
   <path class="fil2" d="M567320 247490l-2372 5097c-769,1670 -44,3679 1625,4458l4283 1989c1674,779 3689,43 4458,-1625l2376 -5088c768,-1679 43,-3689 -1639,-4468l-4275 -1989c-1667,-779 -3687,-44 -4457,1625z"/>
   <path class="fil2" d="M605936 305151c-5907,0 -11608,-1318 -16958,-3897 -9356,-4547 -16383,-12444 -19787,-22274 -3407,-9818 -2793,-20386 1754,-29733 6460,-13332 20222,-21943 35046,-21943 5901,0 11611,1317 16950,3909 19310,9370 27403,32686 18033,51994 -6457,13333 -20208,21943 -35037,21943l0 0z"/>
   <path class="fil2" d="M574436 250939c-8457,17411 -1172,38378 16232,46821 17421,8436 38378,1176 46809,-16243 8448,-17408 1189,-38375 -16230,-46822 -17407,-8435 -38372,-1163 -46811,16244z"/>
   <path class="fil3" d="M575117 251268c-8257,17037 -1140,37553 15882,45814 17047,8257 37561,1140 45825,-15896 8249,-17033 1132,-37553 -15906,-45811 -17024,-8257 -37537,-1141 -45801,15893z"/>
   <path class="fil6" d="M577622 252490c-7599,15649 -1056,34496 14589,42083 15658,7589 34506,1057 42093,-14593 7590,-15663 1057,-34511 -14594,-42099 -15661,-7590 -34508,-1056 -42087,14608z"/>
   <path class="fil3" d="M581796 254510c-6481,13343 -897,29425 12444,35893 4853,2350 10061,3107 15037,2492 -594,-65 -1207,-152 -1826,-253 -3337,-229 -6696,-1086 -9894,-2633 -13343,-6482 -18935,-22550 -12444,-35906 3865,-7994 11194,-13203 19311,-14697 -9391,550 -18232,6021 -22628,15104z"/>
   <path class="fil3" d="M567736 248017l-2108 4549c-704,1504 -42,3303 1452,3998l3821 1778c1496,703 3296,43 3997,-1461l2111 -4546c701,-1506 54,-3307 -1452,-3998l-3825 -1776c-1489,-694 -3291,-44 -3996,1457z"/>
   <polygon class="fil2" points="567189,249203 566167,251392 574108,254860 575117,252675 "/>
   <path class="fil0" d="M503479 304783c-38282,0 -69997,29964 -72202,68215 -2296,39838 28252,74115 68094,76413 40083,2290 74124,-28436 76410,-68094 2298,-39836 -28249,-74114 -68092,-76411 -1411,-82 -2814,-122 -4211,-122zm129 152089l-6 0c-1543,0 -3099,-44 -4654,-135 -43882,-2529 -77526,-40285 -75000,-84161 2521,-43667 40057,-77533 84163,-74997 43886,2531 77529,40285 75001,84161 -2433,42132 -37356,75132 -79504,75132z"/>
   <path class="fil6" d="M499311 450429c40464,2336 75168,-28578 77500,-69042 2326,-40463 -28579,-75169 -69052,-77508 -40461,-2328 -75168,28600 -77497,69048 -2330,40465 28591,75172 69049,77502z"/>
   <path class="fil7" d="M500180 435261c32083,1843 59606,-22669 61456,-54753 1842,-32083 -22675,-59606 -54743,-61451 -32096,-1846 -59620,22669 -61464,54753 -1844,32079 22669,59604 54751,61451z"/>
   <path class="fil3" d="M500678 426706c27367,1581 50825,-19332 52411,-46690 570,-9941 -1825,-19376 -6437,-27428 1624,5418 2361,11192 2019,17157 -1583,27360 -25040,48272 -52407,46690 -17411,-1000 -32210,-10874 -40271,-24978 5846,19397 23286,34017 44685,35248z"/>
   <path class="fil3" d="M820065 414808c-1692,-44 -3315,-648 -5568,-1481 -1293,-483 -2898,-1089 -4857,-1706 -4840,-1526 -9583,-2985 -14328,-4458 -5876,-1824 -11764,-3646 -17839,-5579l-822 -242c-3765,-1109 -5326,-3228 -5219,-7083 0,-285 24,-647 9,-1100 -404,-40526 -31215,-73641 -71659,-77003 -478,-41 -885,-54 -1199,-65 -1219,-33 -3482,-100 -5210,-2021 -1793,-1997 -1589,-4272 -1401,-6470l71 -953c80,-803 157,-1594 204,-2507 17,-394 17,-713 17,-978 -44,-6524 5383,-6853 7164,-6963 4635,-286 9247,-374 13729,-253 62432,1594 105747,41649 113036,104547 772,6681 1136,9724 -1207,12282 -1242,1361 -2987,2074 -4921,2031z"/>
   <path class="fil2" d="M817354 408198l965 -2437 -1174 2350c-2035,-750 -3879,-1429 -5768,-2022 -4657,-1472 -9324,-2911 -13993,-4361 -6050,-1879 -12125,-3744 -18154,-5665l-1878 -594 -107 -2021c-418,-43892 -33525,-79465 -76985,-83078l-2635 -219 176 -2637c98,-1042 187,-2052 243,-3086l118 -2339 2353 -129c4169,-244 8343,-310 12396,-200 30746,782 57082,11325 76179,30489 17278,17332 28121,41165 31336,68921l107 835c125,976 303,2348 398,3536l337 4194 -3917 -1535z"/>
   <path class="fil3" d="M697067 531132c-3679,0 -7525,-110 -11426,-342l-326 -22c-2002,-176 -3997,-407 -5999,-668l-1517 -200 -1383 -644c-5204,-2450 -8354,-7746 -8039,-13478l3428 -59300 11190 2396c3614,769 7328,1275 11042,1483 1414,86 2832,119 4229,119 25654,0 49585,-13849 62436,-36143l3019 -5253 43891 2526c0,0 3648,-131 4830,2186 1196,2329 -665,5711 -665,5711l-2207 5317c-11152,26721 -31260,48280 -57015,61286l-639 10929c-747,13059 -4383,16167 -14915,18933l-1339 352c-12104,3243 -24735,4811 -38594,4811z"/>
   <path class="fil2" d="M697067 523928c-3553,0 -7250,-108 -11020,-329 -1985,-179 -3890,-385 -5786,-639l-407 -53 -364 -178c-2536,-1183 -4070,-3756 -3920,-6544l2944 -50907 2978 635c3972,858 8048,1408 12136,1639 1546,88 3097,132 4636,132 28226,0 54542,-15233 68671,-39760l806 -1396 36596 2110 -1426 3404c-11002,26406 -31322,47447 -57313,59421l-869 15167c-533,9182 -1339,10213 -9564,12378l-1359 361c-11491,3064 -23517,4559 -36739,4559l0 0z"/>
   <path class="fil6" d="M691298 501422c-250,4479 2933,8381 7272,9083l999 -17289c-4394,213 -8004,3714 -8271,8206zm9131 9192l983 -17287c4352,715 7538,4603 7289,9094 -268,4493 -3882,7986 -8272,8193l0 0z"/>
   <path class="fil3" d="M501672 212926c-250,4493 2933,8381 7269,9085l1000 -17290c-4387,208 -8015,3714 -8269,8206zm9119 9193l997 -17287c4350,714 7533,4602 7270,9094 -250,4492 -3867,7985 -8267,8193l0 0z"/>
   <path class="fil6" d="M791511 377313c-1552,2824 -683,6326 1914,8117l5960 -10885c-2913,-1220 -6324,-67 -7874,2768zm3076 8753l5948 -10885c2607,1790 3475,5296 1924,8129 -1550,2824 -4965,3985 -7872,2756l0 0z"/>
   <path class="fil3" d="M587035 257046c-5061,10456 -713,23042 9754,28117 10443,5062 23029,704 28108,-9752 5061,-10456 702,-23044 -9759,-28107 -10452,-5075 -23042,-704 -28103,9741z"/>
   <path class="fil6" d="M596337 261558c-2593,5317 -360,11721 4963,14302 5319,2580 11709,362 14293,-4953 2578,-5328 361,-11731 -4953,-14311 -5317,-2571 -11735,-350 -14303,4963z"/>
   <path class="fil3" d="M602443 264525c-943,1946 -132,4285 1814,5228 1944,933 4294,122 5215,-1811 948,-1946 143,-4283 -1802,-5229 -1940,-944 -4283,-132 -5228,1812z"/>
   <path class="fil3" d="M610751 308150c-942,1946 -132,4285 1815,5228 1943,933 4294,122 5215,-1811 947,-1946 141,-4283 -1802,-5229 -1942,-944 -4283,-132 -5229,1813z"/>
   <path class="fil2" d="M537337 319937c-1296,989 -1670,2733 -976,4140l0 0 5239 -3990c-1186,-1042 -2970,-1140 -4263,-150zm-199 5172l5226 -3989c707,1406 335,3153 -968,4144 -1291,983 -3070,886 -4258,-156l0 0zm34842 56475c303,-1550 -486,-3142 -1976,-3757 -1517,-639 -3219,-89 -4087,1231l0 -11 6064 2537 0 0zm-132 463c44,-99 63,-210 96,-311 -33,101 -51,212 -96,311l0 0zm-6437 -1813l0 11 6075 2536c-868,1308 -2571,1856 -4078,1219 -1518,-615 -2306,-2219 -1997,-3767l0 0zm-389 -33479l-6510 847 -22 13c110,-1572 1319,-2902 2924,-3113 1625,-204 3119,771 3608,2253l0 0zm-6356 2131l0 14 6524 -847c-99,1571 -1294,2887 -2908,3097 -1631,219 -3120,-769 -3615,-2264l0 0zm1933 66330c1036,-1176 1143,-2956 150,-4251 -983,-1296 -2743,-1671 -4150,-976l11 0 3989 5228 0 0zm-682 581c68,-44 131,-87 211,-143 -81,56 -143,98 -211,143l0 0zm-4330 -5031l-7 11 3989 5230c-1408,691 -3157,318 -4158,-978 -964,-1297 -876,-3087 176,-4263l0 0zm-21654 27886l-836 -6522c1561,98 2872,1294 3096,2909 194,1615 -781,3118 -2260,3613l0 0zm-224 68c70,-24 132,-44 213,-68 -81,24 -143,44 -213,68l0 0zm-1907 -6426l0 0 836 6524c107,11 220,11 326,0 -1712,54 -3207,-1196 -3428,-2922 -218,-1614 769,-3108 2265,-3601l0 0zm-32686 13311c1533,319 3117,-483 3754,-1989 638,-1504 67,-3206 -1228,-4085l0 11 -2526 6063 0 0zm-922 -328c83,41 196,99 283,142 -87,-43 -200,-89 -283,-142l0 0zm2261 -6239l-10 0 -2542 6075c-1294,-882 -1853,-2585 -1224,-4076 629,-1506 2224,-2317 3775,-1998l0 0zm-34972 -4811c1163,1043 2953,1143 4239,154 1310,-989 1683,-2747 982,-4151l8 9 -5229 3988 0 0zm-240 -232c43,44 79,78 110,110 -31,-32 -67,-65 -110,-110l0 0zm4700 -4778l-20 -10 -5232 3987c-700,-1406 -326,-3153 968,-4141 1307,-988 3096,-891 4283,164l0 0zm-27899 -21670l6517 -833 0 -14c-99,1574 -1299,2903 -2911,3111 -1628,217 -3118,-771 -3606,-2264l0 0zm6374 -2087l-25 -32 -6510 836c100,-1572 1283,-2889 2908,-3097 1625,-221 3141,789 3626,2293l0 0zm-13317 -32794c-347,1558 454,3183 1979,3832 1494,628 3200,78 4078,-1229l-6074 -2539 17 -64 0 0zm6550 1406l-6064 -2539c869,-1304 2571,-1854 4064,-1228 1507,637 2307,2228 2000,3767l0 0zm5054 -35211c-1268,1152 -1454,3107 -399,4490 987,1297 2749,1670 4150,978l-3997 -5226c78,-89 157,-167 246,-242l0 0zm4789 4676l-4000 -5226 0 0c1404,-692 3150,-319 4141,978 1003,1285 887,3075 -141,4248l0 0zm21632 -27874l858 6525c-1578,-111 -2897,-1297 -3096,-2911 -219,-1615 764,-3108 2238,-3614l0 0zm2144 6357l-844 -6521c1570,110 2901,1307 3096,2919 224,1615 -769,3110 -2252,3602l0 0zm32686 -13321c-1533,-306 -3128,493 -3765,2000 -617,1503 -67,3207 1228,4074l2537 -6074 0 0zm-1330 6579l2526 -6074c1319,879 1857,2571 1233,4074 -639,1507 -2225,2306 -3759,2000l0 0z"/>
   <path class="fil6" d="M694703 461696c40462,2342 75170,-28590 77501,-69051 2328,-40464 -28592,-75168 -69054,-77496 -40450,-2330 -75157,28588 -77496,69052 -2332,40461 28599,75169 69049,77496z"/>
   <path class="fil7" d="M695570 446528c32093,1847 59610,-22669 61463,-54761 1843,-32083 -22668,-59596 -54751,-61439 -32082,-1857 -59606,22660 -61461,54752 -1844,32082 22676,59592 54750,61448z"/>
   <path class="fil3" d="M696076 437972c27347,1571 50833,-19330 52403,-46689 567,-9952 -1825,-19374 -6438,-27436 1635,5415 2361,11203 2013,17167 -1574,27358 -25035,48271 -52393,46687 -17421,-1009 -32213,-10872 -40263,-24974 5831,19399 23283,34017 44678,35244z"/>
   <path class="fil3" d="M696559 429504c22681,1307 42141,-16025 43453,-38717 1292,-22678 -16037,-42130 -38715,-43439 -22682,-1306 -42146,16026 -43456,38706 -1306,22680 16036,42144 38718,43450z"/>
   <path class="fil2" d="M732726 331204c-1285,989 -1660,2736 -967,4141l0 0 5221 -3986c-1178,-1044 -2958,-1144 -4254,-156zm-186 5173l5228 -3986c693,1407 320,3151 -975,4140 -1285,989 -3076,889 -4253,-154l0 0zm34847 56465c311,-1540 -503,-3132 -1993,-3757 -1507,-625 -3218,-75 -4087,1230l0 0 6081 2526 0 0zm-141 472c32,-111 70,-208 88,-308 -18,100 -56,197 -88,308l0 0zm-6436 -1814l0 14 6061 2535c-868,1296 -2569,1844 -4072,1219 -1504,-625 -2307,-2229 -1989,-3768l0 0zm-393 -33475l-6511 846 0 10c96,-1569 1282,-2898 2904,-3108 1614,-219 3111,769 3607,2253l0 0zm-6361 2132l0 0 6524 -837c-98,1561 -1294,2890 -2908,3098 -1614,208 -3121,-780 -3615,-2261l0 0zm1933 66314c1043,-1162 1151,-2954 157,-4239 -993,-1307 -2739,-1681 -4144,-976l0 0 3987 5215 0 0zm-682 592c76,-43 146,-87 209,-142 -64,54 -133,99 -209,142l0 0zm-4328 -5026l-11 0 4000 5226c-1418,704 -3150,328 -4142,-967 -1001,-1307 -889,-3085 153,-4260l0 0zm-21660 27874l-840 -6513c1567,99 2897,1296 3103,2911 210,1614 -780,3108 -2263,3601l0 0zm-219 65c68,-10 149,-31 211,-54 -62,24 -143,32 -211,54l0 0zm-1908 -6424l0 10 833 6515c124,10 222,10 329,10 -1702,54 -3194,-1197 -3414,-2922 -219,-1615 771,-3118 2252,-3613l0 0zm-32686 13321c1536,307 3132,-493 3758,-1986 624,-1515 74,-3219 -1232,-4086l0 0 -2526 6072 0 0zm-924 -328c99,43 197,97 294,132 -97,-35 -196,-89 -294,-132l0 0zm2263 -6237l-11 0 -2535 6060c-1302,-864 -1850,-2568 -1221,-4075 626,-1504 2217,-2304 3767,-1985l0 0zm-34971 -4813c1176,1032 2958,1142 4253,154 1294,-999 1665,-2746 976,-4153l0 13 -5229 3986 0 0zm-232 -232c36,36 69,67 98,113 -29,-46 -62,-76 -98,-113l0 0zm4690 -4776l-19 -22 -5228 3998c-693,-1417 -319,-3163 975,-4140 1300,-1000 3101,-892 4272,164l0 0zm-27900 -21669l6526 -835 0 -10c-98,1558 -1294,2898 -2919,3107 -1606,220 -3102,-771 -3607,-2263l0 0zm6375 -2086l-20 -44 -6515 846c96,-1571 1296,-2899 2910,-3099 1649,-219 3143,782 3625,2297l0 0zm-13314 -32796c-348,1550 465,3183 1976,3821 1496,626 3209,78 4076,-1230l-6075 -2526 22 -65 0 0zm6549 1394l-6064 -2526c879,-1307 2572,-1857 4079,-1231 1497,625 2303,2219 1985,3757l0 0zm5053 -35203c-1252,1156 -1452,3107 -387,4494 992,1294 2737,1667 4140,976l-3994 -5228c85,-87 165,-167 242,-243l0 0zm4786 4681l-3986 -5229 -8 0c1408,-693 3153,-317 4148,969 989,1304 893,3085 -154,4260l0 0zm21648 -27876l847 6525c-1574,-110 -2904,-1309 -3107,-2922 -222,-1617 765,-3108 2260,-3603l0 0zm2131 6349l-833 -6513c1558,97 2879,1296 3085,2911 220,1614 -756,3107 -2251,3602l0 0zm32683 -13311c-1533,-307 -3128,496 -3754,1999 -625,1493 -75,3194 1232,4076l2522 -6075 0 0zm-1328 6568l2526 -6063c1296,876 1858,2568 1232,4072 -626,1497 -2218,2308 -3758,1990l0 0z"/>
   <path class="fil0" d="M698858 316053c-38256,0 -69961,29960 -72176,68206 -2302,39833 28241,74113 68080,76413 40041,2293 74129,-28433 76407,-68082 1117,-19293 -5354,-37868 -18214,-52303 -12864,-14436 -30574,-23000 -49865,-24111 -1417,-80 -2829,-122 -4232,-122zm140 152079c-3,0 -3,0 -3,0 -1542,0 -3097,-44 -4657,-135 -43878,-2532 -77518,-40289 -74986,-84164 2532,-43665 40114,-77541 84159,-74985 21250,1225 40756,10656 54921,26554 14165,15900 21292,36358 20067,57607 -2427,42125 -37344,75122 -79502,75122z"/>
   <polygon class="fil0" points="11078,519592 46712,373775 413779,373775 392159,519592 "/>
   <path class="fil4" d="M14157 517175l375919 0 20901 -140983 -362369 0 -34451 140983zm380087 4833l-386244 0 36815 -150650 371765 0 -22336 150650z"/>
   <polygon class="fil4" points="386090,512225 20034,512225 52765,381140 404820,381140 "/>
   <polygon class="fil6" points="390436,395498 387265,392886 387935,388826 391782,387378 394962,389990 394289,394050 "/>
   <polygon class="fil6" points="35661,506778 31715,507950 28727,505121 29679,501121 33623,499947 36606,502775 "/>
   <polygon class="fil6" points="59850,395456 56806,392685 57689,388664 61611,387419 64642,390192 63764,394211 "/>
   <polygon class="fil6" points="377326,508050 373615,506269 373301,502165 376700,499844 380407,501624 380719,505726 "/>
   <path class="fil0" d="M233878 691474l-36772 0 0 -51100 17908 35581 11225 0 0 -79275 -19104 0c-5493,0 -10029,-4061 -10029,-9552l0 -38446c0,-5731 4536,-9311 10029,-9311l37009 0 0 38206 -17906 -23164 -11225 0 0 26983 19101 0c5732,0 10029,3581 10029,9313l0 91452c0,5732 -4774,9314 -10267,9314z"/>
   <polygon class="fil0" points="305753,554413 297870,554413 297870,675954 305753,691474 272319,691474 280201,675954 280201,554413 272319,554413 254890,577576 254890,539371 323898,539371 323898,577576 "/>
   <polygon class="fil0" points="333451,691474 341091,675954 341091,554413 333451,539371 390280,539371 390280,577576 372135,554413 359240,554413 359240,581396 372135,581396 372135,596915 359240,596915 359240,675954 372135,675954 390280,640374 390280,691474 "/>
   <path class="fil0" d="M438280 554892l-13136 0 0 26504 13136 0 0 -26504zm0 136582l0 -94318 -13136 0 0 94318 -26026 0 7879 -15519 0 -127272c0,-5731 4776,-9311 10268,-9311l28892 0c5732,0 10029,3342 10029,9311l0 127272 7879 15519 -25785 0z"/>
   <path class="fil0" d="M539761 691474l0 -137061 -13371 0 0 137061 -17908 0 0 -137061 -13372 0 0 137061 -25787 0 8118 -15519 0 -121542 -8118 -15042 77843 0c5492,0 10268,3342 10268,9311l0 127272 7878 15519 -25550 0z"/>
   <path class="fil0" d="M654293 568017l0 114141c0,5590 -4426,9317 -10017,9317l-58238 0c-5587,0 -10248,-3260 -10248,-9086l0 -114371 -7453 -15143 25157 0 0 123460 12811 0 0 -123460 17469 0 0 123460 12815 0 0 -123460 25156 0 -7453 15143z"/>
   <path class="fil0" d="M702054 568248l-12811 0 0 108085 12811 0 0 -108085zm7686 123225l-27953 0c-5591,0 -10015,-3493 -10015,-9086l0 -120429c0,-5822 4425,-9085 10015,-9085l27953 0c5357,0 9783,3494 9783,9085l0 120429c0,5593 -4426,9086 -9783,9086z"/>
   <path class="fil0" d="M763087 568017l-10946 0 0 108317 7686 15140 -32846 0 7689 -15140 0 -108317 -7689 -15143 43561 0c5589,0 10015,3263 10015,9085l0 20500 -17471 -14442z"/>
   <path class="fil0" d="M822025 691474l0 -82693 -13275 0 0 82693 -25393 0 7921 -15140 0 -118102 -7921 -15142 25393 0 0 50317 13275 0 0 -40300 25160 0 -7920 15141 0 23526c0,5593 -4659,9318 -10018,9318l0 465c5825,0 10018,2797 10018,9085l0 65691 7920 15140 -25160 0z"/>
   <path class="fil0" d="M887719 691474l-33543 0 0 -33776 17236 18636 9086 0 0 -77571 -16539 0c-5824,0 -9783,-3258 -9783,-9317l0 -27487c0,-5822 3959,-9085 9783,-9085l33775 0 0 29585 -17236 -14442 -9086 0 0 15606 16542 0c5822,0 9781,2797 9781,8853l0 89913c0,5826 -4192,9086 -10015,9086z"/>
   <path class="fil0" d="M905350 560348c0,1639 1207,2281 2697,2281 1639,0 2252,-806 2252,-1611 0,-820 -448,-1144 -881,-1311 -744,-283 -1712,-476 -3175,-878 -1817,-492 -2353,-1594 -2353,-2698 0,-2131 1968,-3130 3890,-3130 2218,0 4082,1178 4082,3397l-1864 0c-87,-1371 -1011,-1878 -2293,-1878 -863,0 -1952,315 -1952,1386 0,746 506,1162 1265,1371 164,46 2517,656 3071,819 1397,418 2069,1610 2069,2714 0,2385 -2115,3339 -4230,3339 -2431,0 -4396,-1163 -4443,-3802l1864 0z"/>
   <polygon class="fil0" points="913761,553254 916385,553254 919320,561586 919351,561586 922209,553254 924804,553254 924804,563896 923032,563896 923032,555685 923003,555685 920050,563896 918515,563896 915565,555685 915536,555685 915536,563896 913761,563896 "/>
   <path class="fil5" d="M180383 650268c5578,7804 12096,13858 19565,18129 -3565,1917 -7649,3586 -12208,5021 -9235,2832 -16544,2972 -21944,430 -6569,-3207 -10506,-7891 -11824,-14033l7585 -14510c8611,-2082 14878,-428 18826,4963z"/>
   <path class="fil1" d="M63458 615532c-9825,-8074 -13627,-14240 -11394,-18493 2216,-4250 9443,-4644 21682,-1183 11574,3299 43281,16854 54393,24611 11117,7760 27330,20282 28227,22329l-7261 13847c-2157,502 -24612,-7071 -34469,-10339 -9875,-3274 -41853,-23097 -51178,-30772z"/>
   <path class="fil0" d="M355546 482610l608 0c708,0 1282,-236 1282,-810 0,-508 -369,-846 -1180,-846 -338,0 -575,35 -710,69l0 1586zm-32 3139l-1285 0 0 -5536c506,-102 1215,-170 2128,-170 1047,0 1518,170 1925,406 303,236 539,675 539,1215 0,607 -474,1079 -1147,1283l0 68c539,201 844,607 1011,1350 171,844 269,1182 407,1383l-1385 0c-168,-201 -271,-707 -440,-1350 -99,-607 -437,-878 -1146,-878l-607 0 0 2228zm-3413 -2901c0,2463 1825,4421 4321,4421 2433,0 4221,-1958 4221,-4387 0,-2465 -1787,-4459 -4253,-4459 -2464,0 -4289,1993 -4289,4425zm9961 0c0,3137 -2465,5603 -5672,5603 -3174,0 -5706,-2465 -5706,-5603 0,-3074 2532,-5537 5706,-5537 3207,0 5672,2464 5672,5537z"/>
   <polygon class="fil0" points="73898,408474 129021,408474 123829,429697 97397,429697 94790,440843 122355,440843 117552,460521 90337,460521 83808,488450 55344,488450 "/>
   <polygon class="fil0" points="138319,408474 166791,408474 148243,488450 119771,488450 "/>
   <path class="fil0" d="M197086 446601c9137,0 15539,-5389 15539,-13062 0,-4083 -3014,-6115 -8893,-6115 -1689,0 -2607,114 -4436,469l-4302 18478c902,113 1047,230 2092,230zm-21037 -37654l1835 -246c9133,-1074 20504,-1787 26770,-1787 10448,0 18541,1202 24675,3710 7835,3237 12543,10311 12543,18832 0,7306 -2476,14267 -7190,19667 -4039,4668 -7706,6946 -15265,9225l-1832 613c800,603 1044,832 1449,1203 2222,2521 8869,15468 14497,28287l-31359 0c-4040,-11386 -5224,-14381 -10567,-27340l-6274 27340 -27701 0 18419 -79503z"/>
   <polygon class="fil0" points="313067,408474 382165,408474 377348,431635 356844,431635 343259,488450 314793,488450 328369,431635 306140,431635 "/>
   <path class="fil0" d="M295368 445885c-3268,-2635 -6643,-4672 -13579,-7908l-5611 -2647c-1837,-958 -2756,-1919 -2756,-3006 0,-2868 3663,-5031 8626,-5031 3710,0 8154,1091 16598,3852l5830 -21653c-6333,-1722 -12485,-2578 -18647,-2578 -23228,0 -41136,12702 -41136,29144 0,8622 5744,14752 20128,21456 6774,3121 7953,3954 7953,6117 0,3236 -3530,5283 -9272,5283 -5098,0 -11631,-1572 -20494,-4811l-22 0 -6246 22314c8017,2391 16764,3708 24928,3708 11107,0 19592,-2506 26917,-7791 8089,-5742 13328,-14622 13328,-22659 0,-5400 -2361,-10324 -6543,-13790z"/>
  </g>
 </g>
</svg>
