<svg id="Layer_1" data-name="Layer 1" xmlns="http://www.w3.org/2000/svg" xmlns:xlink="http://www.w3.org/1999/xlink" viewBox="0 0 576 576"><defs><style>.cls-1{fill:none;}.cls-2{fill:url(#New_Gradient_Swatch);}.cls-3{fill:#003a5d;}.cls-4{fill:#1fc0da;}.cls-5{fill:#0072bc;}.cls-6{fill:url(#linear-gradient);}.cls-7{clip-path:url(#clip-path);}.cls-8{fill:url(#radial-gradient);}</style><linearGradient id="New_Gradient_Swatch" x1="285.69" y1="398.09" x2="285.69" y2="286.79" gradientUnits="userSpaceOnUse"><stop offset="0" stop-color="#ffed46"/><stop offset="0.32" stop-color="#ffe23c"/><stop offset="0.88" stop-color="#fec521"/><stop offset="1" stop-color="#febe1a"/><stop offset="1" stop-color="#fdb515"/></linearGradient><linearGradient id="linear-gradient" x1="285.49" y1="425.51" x2="285.49" y2="444.98" gradientUnits="userSpaceOnUse"><stop offset="0.07" stop-color="#16c0dd"/><stop offset="0.16" stop-color="#16c0dd" stop-opacity="0.8"/><stop offset="0.26" stop-color="#16c0dd" stop-opacity="0.59"/><stop offset="0.37" stop-color="#16c0dd" stop-opacity="0.41"/><stop offset="0.49" stop-color="#16c0dd" stop-opacity="0.26"/><stop offset="0.6" stop-color="#16c0dd" stop-opacity="0.14"/><stop offset="0.73" stop-color="#16c0dd" stop-opacity="0.06"/><stop offset="0.85" stop-color="#16c0dd" stop-opacity="0.02"/><stop offset="1" stop-color="#16c0dd" stop-opacity="0"/></linearGradient><clipPath id="clip-path"><path class="cls-1" d="M338.78,343,316.37,374.8l-3-14.55-3.84,24.3-6.23,8.85V380.09h-6.51v2l0,0V380l-5.18,9.46v10.25l.07-.09,1.57-.26-1.45,1.92.09,1.09a19.9,19.9,0,0,0-15.21.92l-2.37-4.12c-.42-5-.74-8.88-.74-8.89a.55.55,0,0,0-.17-.35.59.59,0,0,0,.26-.43c0-.06-.67-4.58-.67-4.6,0-.25-.3-.49-.78-.66a1.05,1.05,0,0,0,0-.12h0s0,0,0-.05l.06,0c.63-.18,1-.45,1.09-.76a.33.33,0,0,0,0-.13c0-.37-1.19-1.07-1.19-1.16a.33.33,0,0,0-.15-.26,7.92,7.92,0,0,1,1-3,2.49,2.49,0,0,1,.56-.6,2.66,2.66,0,0,0,.52-1.74.64.64,0,0,0,.18-.27c0-.12,0-.23,0-.35,0-1.19-.59-9.44-3.23-10.71,0-.15,0-.53,0-.56h0c0-.11-.21-.2-.5-.23,0-.72-.11-3-.11-3s0,0-.07,0l-.06,0s-.09,2.32-.12,3c-.28,0-.5.12-.5.23h0s0,.39,0,.55c-2.71,1.24-3.23,9.53-3.23,10.72,0,.12,0,.23,0,.35a.74.74,0,0,0,.18.28,2.71,2.71,0,0,0,.52,1.73,2.42,2.42,0,0,1,.56.62,8.83,8.83,0,0,1,1,3,.36.36,0,0,0-.14.26c0,.09-1.19.79-1.19,1.16a.24.24,0,0,0,.05.13c0,.31.45.58,1.08.76l.06,0s0,0,0,.05h0a.75.75,0,0,1,0,.12c-.48.17-.78.41-.78.66,0,0-.17,1.19-.34,2.35l-3.53-6.14V352.23a12.42,12.42,0,0,0-9.47-12.05v-15a.52.52,0,0,0-1,0V340a12.13,12.13,0,0,0-1.92-.16,3,3,0,0,0-3,3v11.56l-3.41-5.92-55.21-24.24L132.08,475l153.61,44.81L439.31,475l-49-143.88Z"/></clipPath><radialGradient id="radial-gradient" cx="285.91" cy="423.65" r="64.07" xlink:href="#linear-gradient"/></defs><title>Primary-full-color</title><path d="M120.9,210V165.83c0-7.69-3.65-11.37-11.27-11.37h-38V284.37l15.57-4.56V224.44l10.25-1.52,7.79,51.66,15.9-5.27L113,220.72C118.26,219.63,120.9,216.44,120.9,210Zm-15.57-3.71c0,1.17-.34,1.57-1.49,1.7l-16.65,2.7V167.16h16.65c1.16,0,1.49.34,1.49,1.51Z"/><polygon points="173.19 240.23 147.29 246.95 147.57 215.32 167.37 212.25 167.37 198.42 147.29 200.99 147.29 167.5 173.69 167.5 173.69 154.46 131.72 154.46 131.72 266.03 173.19 254.43 173.19 240.23"/><path d="M181.82,237c0,7.69,3.7,13.32,11.27,11.18l23.45-6.86c8.06-2.42,11.27-3.67,11.27-11.36V208.25l-15.57,2.85.19,17.07c0,1.17-.46,1.3-1.68,1.7L199,232.8c-1.46.44-1.49-.34-1.49-1.51L197.39,169c0-1.17.33-1.5,1.49-1.5h12.26c1.16,0,1.49.33,1.49,1.5v16.74l15.57-1.52V165.83c0-7.69-3.48-11.37-11.1-11.37H193.25c-7.62,0-11.43,3.68-11.43,11.37Z"/><polygon points="252.34 154.46 236.78 154.46 236.78 235.46 252.34 230.97 252.34 199.99 265.47 198.14 265.47 226.98 280.11 222.78 280.11 154.46 265.47 154.46 265.47 184.39 252.34 186.24 252.34 154.46"/><path d="M391.52,196.42V165.83c0-7.69-3.64-11.37-11.26-11.37H346v84.08L361.53,243V205.3l6.8,1.31,7.12,40.6L392.4,252l-8.74-43.21C389,207.69,391.52,202.86,391.52,196.42ZM376,192.08c0,1.17-.33,1.51-1.49,1.51l-12.93-2.15V167.16h12.93c1.16,0,1.49.34,1.49,1.51Z"/><path d="M440,154.46h-26.1c-7.62,0-11.26,3.68-11.26,11.37v81.35c0,7.69,3.32,8.93,11.42,11.21L440,265.91c8.72,2.6,11.26-3.67,11.26-11.36V205.4l-23.93-3.63v13.89l8.53,1.85V247c0,1.17-.25,1.87-1.49,1.5l-14.67-3.67a2,2,0,0,1-1.49-2.27V168.83c0-1.17.33-1.5,1.49-1.5h14.67c1.15,0,1.49.33,1.49,1.5V190l15.4,1.85v-26C451.21,158.14,447.57,154.46,440,154.46Z"/><polygon points="499.97 167.5 499.97 154.46 462.58 154.46 462.58 272.49 499.84 283.35 499.97 266.98 478.15 261.19 478.15 222.99 494.75 225.56 494.75 211.6 478.15 209.19 478.15 167.5 499.97 167.5"/><path d="M299.25,154.46h-.15a7.8,7.8,0,0,0-7.8,7.79v60.36l14.12,4.23v-29l14.51,2.4V231l15,4.28V162.25a7.8,7.8,0,0,0-7.8-7.79Zm20.68,32-14.51-2.4V167.77a.83.83,0,0,1,.83-.82l12.86.54a.83.83,0,0,1,.82.83Z"/><rect x="104.4" y="68.16" width="14.81" height="64.6"/><polygon points="145.13 94.97 168.51 132.76 182.25 132.76 182.25 68.16 167.88 68.16 167.88 103.9 145.84 68.16 130.76 68.16 130.76 132.76 145.13 132.76 145.13 94.97"/><polygon points="210.15 106.89 232.72 106.89 232.72 94.21 210.15 94.21 210.15 81.01 238.35 81.01 238.35 68.16 195.34 68.16 195.34 132.76 210.15 132.76 210.15 106.89"/><rect x="249.83" y="68.16" width="14.81" height="64.6"/><polygon points="291.32 94.97 314.7 132.76 328.44 132.76 328.44 68.16 314.08 68.16 314.08 103.9 292.04 68.16 276.96 68.16 276.96 132.76 291.32 132.76 291.32 94.97"/><rect x="342.31" y="68.16" width="14.81" height="64.6"/><polygon points="414.85 68.16 367.47 68.16 367.47 81.1 383.71 81.1 383.71 132.76 398.52 132.76 398.52 81.1 414.85 81.1 414.85 68.16"/><polygon points="467.19 119.91 438.99 119.91 438.99 106.08 461.57 106.08 461.57 93.41 438.99 93.41 438.99 81.01 467.19 81.01 467.19 68.16 424.18 68.16 424.18 132.76 467.19 132.76 467.19 119.91"/><path d="M503.87,283.42l.45-.58a2.49,2.49,0,0,0,1.88.87c1.08,0,1.42-.58,1.42-1,0-1.55-3.56-.68-3.56-2.83,0-1,.88-1.67,2.07-1.67a2.84,2.84,0,0,1,2.13.84l-.45.55a2.28,2.28,0,0,0-1.74-.72c-.71,0-1.24.39-1.24,1,0,1.35,3.56.57,3.56,2.82,0,.86-.59,1.76-2.21,1.76A3,3,0,0,1,503.87,283.42Z"/><path d="M514.65,284.27v-5.06l-2,5.06h-.31l-2-5.06v5.06h-.75v-6h1.07l1.88,4.64,1.86-4.64h1.08v6Z"/><polygon class="cls-2" points="439.31 475.03 439.31 333.19 285.69 288.26 132.08 333.07 132.08 475.03 439.31 475.03"/><path class="cls-1" d="M138.06,476.78l93.84,27.37-93.82-27.37Z"/><path class="cls-1" d="M133,356q1.07-.47,2.16-.87h0a33.88,33.88,0,0,1,4.32-1.25,34.74,34.74,0,0,1,6.8-.81V341.64l1.44-.23v11.65a35.07,35.07,0,0,1,7,.82l.71.17V333.67l10.12-2.79v-7.57l-33.45,9.76v23.34l.67-.31Z"/><path class="cls-1" d="M245.07,348.43l3.41,5.92V342.79a3,3,0,0,1,3-3,12.13,12.13,0,0,1,1.92.16V325.22a.52.52,0,0,1,1,0v15a12.42,12.42,0,0,1,9.47,12.05v28.86l3.53,6.14c.17-1.16.34-2.34.34-2.35,0-.25.3-.49.78-.66a.75.75,0,0,0,0-.12h0s0,0,0-.05l-.06,0c-.63-.18-1-.45-1.08-.76a.24.24,0,0,1-.05-.13c0-.37,1.19-1.07,1.19-1.16a.36.36,0,0,1,.14-.26,8.83,8.83,0,0,0-1-3,2.42,2.42,0,0,0-.56-.62,2.71,2.71,0,0,1-.52-1.73.74.74,0,0,1-.18-.28c0-.12,0-.23,0-.35,0-1.19.52-9.48,3.23-10.72,0-.16,0-.52,0-.55h0c0-.11.22-.2.5-.23,0-.72.12-3,.12-3l.06,0s.07,0,.07,0,.08,2.32.11,3c.29,0,.5.12.5.23h0s0,.41,0,.56c2.64,1.27,3.23,9.52,3.23,10.71,0,.12,0,.23,0,.35a.64.64,0,0,1-.18.27,2.66,2.66,0,0,1-.52,1.74,2.49,2.49,0,0,0-.56.6,7.92,7.92,0,0,0-1,3,.33.33,0,0,1,.15.26c0,.09,1.19.79,1.19,1.16a.33.33,0,0,1,0,.13c-.05.31-.46.58-1.09.76l-.06,0s0,0,0,.05h0a1.05,1.05,0,0,1,0,.12c.48.17.78.41.78.66,0,0,.67,4.54.67,4.6a.59.59,0,0,1-.26.43.55.55,0,0,1,.17.35s.32,3.88.74,8.89l2.37,4.12a19.9,19.9,0,0,1,15.21-.92l-.09-1.09,1.45-1.92-1.57.26-.07.09V389.44l5.18-9.46v2.17l0,0v-2h6.51V393.4l6.23-8.85,3.84-24.3,3,14.55,2.27-3.22V337.83l6.14-11.22V308.33a.51.51,0,0,1,.51-.52.51.51,0,0,1,.51.52v16.41l2.05-3.75v-8.31a.52.52,0,0,1,1,0v6.44l3.1-5.66h0l15.15,4.75v-12l-61.45-17.92L232,303.91l13,27.79Z"/><polygon class="cls-1" points="433.55 331.38 433.55 331.51 439.31 333.19 439.31 333.07 433.55 331.38"/><polygon class="cls-3" points="347.14 306.18 347.14 318.21 347.14 325.49 347.14 441.64 358.06 445.67 358.06 445.62 358.06 328.92 358.06 321.64 358.06 309.37 358.06 283.46 358.06 283.06 347.14 301.66 347.14 306.18"/><path class="cls-3" d="M227,293.13v147.3l18.09-6.6V331.7l-13-27.79Zm14.42,40.8,1.54,2.95V345l-1.54-2.66Zm0,15.56,1.54,2.41V358l-1.54-2.19Zm0,11.8,1.54,2v4.77l-1.54-1.83Zm0,9.39,1.54,1.68v3.9l-1.54-1.54Zm0,7.75,1.54,1.41v3.3l-1.54-1.29Zm0,6.6,1.54,1.18v2.87L241.4,388Zm0,5.77,1.54,1v2.55l-1.54-.89Zm0,5.16,1.54.8v2.32l-1.54-.72Zm0,4.71,1.54.64v2.15l-1.54-.56Zm0,4.38,1.54.49v2l-1.54-.41Zm0,4.15,1.54.34v1.94l-1.54-.27Zm0,4,1.54.2v1.89l-1.54-.14Zm0,3.89,1.54.07V419H241.4Zm0,3.87,1.54-.06v1.87l-1.54.13Zm0,3.9,1.54-.2v1.91l-1.54.27Zm0,4,1.54-.34v2l-1.54.41Zm-4.1-102.78,1.54,2.95v8.85l-1.54-2.66Zm0,17,1.54,2.41v6.63l-1.54-2.19Zm0,12.89,1.54,2v5.22l-1.54-1.83Zm0,10.26,1.54,1.68v4.27l-1.54-1.53Zm0,8.47,1.54,1.4v3.62l-1.54-1.29Zm0,7.21,1.54,1.18v3.14l-1.54-1.08Zm0,6.3,1.54,1V392l-1.54-.89Zm0,5.64,1.54.8v2.54l-1.54-.72Zm0,5.14,1.54.64V402l-1.54-.55Zm0,4.79,1.54.49v2.21l-1.54-.41Zm0,4.53,1.54.34v2.13l-1.54-.27Zm0,4.36,1.54.2v2.07l-1.54-.14Zm0,4.26,1.54.06v2H237.3Zm0,4.22,1.54-.07v2.06l-1.54.13Zm0,4.26,1.54-.2v2.09l-1.54.27Zm0,4.36,1.54-.34v2.16l-1.54.42Zm-4.09-111.56,1.53,2.95v9.63l-1.53-2.66Zm0,18.44,1.53,2.41v7.21l-1.53-2.19Zm0,14,1.53,2v5.68l-1.53-1.83Zm0,11.12,1.53,1.67v4.66l-1.53-1.54Zm0,9.18,1.53,1.41v3.93L233.21,375Zm0,7.82,1.53,1.18v3.42l-1.53-1.07Zm0,6.84,1.53,1v3l-1.53-.89Zm0,6.12,1.53.79v2.77l-1.53-.72Zm0,5.58,1.53.63v2.56l-1.53-.56Zm0,5.19,1.53.48v2.42l-1.53-.42Zm0,4.91,1.53.34V410l-1.53-.27Zm0,4.73,1.53.2v2.25l-1.53-.13Zm0,4.62,1.53.06V419h-1.53Zm0,4.58,1.53-.07v2.24l-1.53.13Zm0,4.62,1.53-.2V428l-1.53.27Zm0,4.72,1.53-.34v2.36l-1.53.41Zm-2.56,3.12-1.54.41v-2.62l1.54-.34Zm0-5-1.54.27v-2.53l1.54-.2Zm0-4.9-1.54.14v-2.48l1.54-.07Zm0-4.81h-1.54v-2.47l1.54.07Zm0-4.82-1.54-.13v-2.5l1.54.2Zm0-4.89-1.54-.27v-2.57l1.54.34Zm0-5-1.54-.41v-2.68l1.54.48Zm0-5.29-1.54-.56v-2.84l1.54.64Zm0-5.63-1.54-.72v-3.07l1.54.8Zm0-6.11-1.54-.89V383l1.54,1Zm0-6.77-1.54-1.07v-3.8l1.54,1.18Zm0-7.64-1.54-1.29v-4.37l1.54,1.41Zm0-8.86-1.54-1.54v-5.16l1.54,1.67Zm0-10.56-1.54-1.83v-6.3l1.54,2Zm0-13-1.54-2.19v-8l1.54,2.41Zm0-16.73L229.11,321V310.32l1.54,2.95Z"/><path class="cls-3" d="M433.55,331.51v2.14l-5.43,3.13v-6.86l-5.42-1.58v11.58l-5.43,3.13V326.89l5.09,1.35-16.16-4.72-5-1.46-2.52,2.1-8.37,7V457.54l15.88,5.85L439.31,475V333.2Zm-38,10.57,3.11-2.18,2.31-1.62v14.17l-2.31,1.33-3.11,1.8v-13.5ZM401,439.35l-2.31-.41-3.11-.55v-9.76l3.11.27,2.31.21ZM401,419h-5.42v-9.61l3.11-.28,2.31-.2Zm0-20.33-2.31.4-3.11.55V389.58l3.11-.84,2.31-.62Zm0-21.64-2.31.84L395.58,379V367.78l3.11-1.45,2.31-1.08Zm10.85,64.21-5.42-.95V429.58l5.42.48Zm0-22.24h-5.42V408.46l5.42-.48Zm0-22.25-5.42,1V386.67l5.42-1.45Zm0-23.67-5.42,2V362.72l5.42-2.53Zm0-26.92-5.42,3.13V334.48l5.42-3.8Zm10.85,97-5.43-1V430.53l5.43.47Zm0-24.16h-5.43V407.51l5.43-.48Zm0-24.16-5.43,1V383.76l5.43-1.45Zm0-25.71-5.43,2V357.66l5.43-2.53Zm10.85,75.94-5.43-1V431.48l5.43.47Zm0-26.07h-5.43V406.56l5.43-.48Zm0-26.07-5.43.95v-13l5.43-1.46Zm0-27.74-5.43,2V352.6l5.43-2.53Z"/><path class="cls-3" d="M182.27,456.73l-.47-68.31c-4.81-1.65-14.55-2.89-26.39-3.3-2.73-.1-5.58-.15-8.5-.15-4.51,0-8.83.12-12.85.34h-.16l-1.82.11v84.44A95.89,95.89,0,0,0,143.26,471c1.2,0,2.42.07,3.67.07,2.94,0,5.78-.13,8.48-.36,1.74-.15,3.42-.34,5-.56,12.07-1.65,20.51-5.12,21.71-7a2.57,2.57,0,0,1,.16-.54v-.73Zm-16.12-64.8c3.06.32,5.53.69,7.39,1.05v67.51a56.84,56.84,0,0,1-7.26,2.07l-.13,0Zm-13.33-.82c.89,0,1.75.05,2.59.09,1.69.06,3.3.14,4.81.24v72.23c-1.53.23-3.14.42-4.81.57-.85.08-1.71.15-2.59.21ZM139.5,464.33V391.16q3.45-.12,7.39-.12v73.6C144.32,464.64,141.84,464.52,139.5,464.33Z"/><path d="M439.31,475l-49-17.5V331.15l8.37-7,2.52-2.1,5,1.46v-18.1L384,297.16v-4l-25.95-9.67V445.67l-10.92-4V318.21L332,313.46h0l-3.1,5.66v-6.44a.52.52,0,0,0-1,0V321l-2.05,3.75V308.33a.51.51,0,0,0-.51-.52.51.51,0,0,0-.51.52v18.28l-6.14,11.22v33.75l-2.27,3.22-3-14.55-3.84,24.3-6.23,8.85V380.09h-6.51v2l0,0V380l-5.18,9.46v10.25l.07-.09,1.57-.26-1.45,1.92.09,1.09a19.9,19.9,0,0,0-15.21.92l-2.37-4.12c-.42-5-.74-8.88-.74-8.89a.55.55,0,0,0-.17-.35.59.59,0,0,0,.26-.43c0-.06-.67-4.58-.67-4.6,0-.25-.3-.49-.78-.66a1.05,1.05,0,0,0,0-.12h0s0,0,0-.05l.06,0c.63-.18,1-.45,1.09-.76a.33.33,0,0,0,0-.13c0-.37-1.19-1.07-1.19-1.16a.33.33,0,0,0-.15-.26,7.92,7.92,0,0,1,1-3,2.49,2.49,0,0,1,.56-.6,2.66,2.66,0,0,0,.52-1.74.64.64,0,0,0,.18-.27c0-.12,0-.23,0-.35,0-1.19-.59-9.44-3.23-10.71,0-.15,0-.53,0-.56h0c0-.11-.21-.2-.5-.23,0-.72-.11-3-.11-3s0,0-.07,0l-.06,0s-.09,2.32-.12,3c-.28,0-.5.12-.5.23h0s0,.39,0,.55c-2.71,1.24-3.23,9.53-3.23,10.72,0,.12,0,.23,0,.35a.74.74,0,0,0,.18.28,2.71,2.71,0,0,0,.52,1.73,2.42,2.42,0,0,1,.56.62,8.83,8.83,0,0,1,1,3,.36.36,0,0,0-.14.26c0,.09-1.19.79-1.19,1.16a.24.24,0,0,0,.05.13c0,.31.45.58,1.08.76l.06,0s0,0,0,.05h0a.75.75,0,0,1,0,.12c-.48.17-.78.41-.78.66,0,0-.17,1.19-.34,2.35l-3.53-6.14V352.23a12.42,12.42,0,0,0-9.47-12.05v-15a.52.52,0,0,0-1,0V340a12.13,12.13,0,0,0-1.92-.16,3,3,0,0,0-3,3v11.56l-3.41-5.92v85.4L227,440.43V293.13l-21.51,7.17v4.14l4.19,6,7.09,10.15v16.23l-11.28-13.43L197.55,314l-7.69-9.16-.36-.43.1-5.89.23-14.05,0-2.33-34.45,14.14v19.24l.27-.09-.05.09,9.9,7v8.4l-10.12,2.79v20.38a36.63,36.63,0,0,1,3.61,1.08h0c.74.27,1.46.56,2.18.87l.22.1c.69.3,1.36.63,2,1l.3.15c.65.35,1.28.71,1.91,1.1l.3.18c.62.39,1.24.8,1.84,1.23l.24.18c.62.45,1.23.91,1.82,1.4l.11.09a39.85,39.85,0,0,1,3.55,3.33l.1.11c.54.57,1.06,1.17,1.56,1.79l.14.16c.5.61,1,1.24,1.44,1.88l.12.17c.47.65.92,1.33,1.36,2a.41.41,0,0,0,0,.09,41.24,41.24,0,0,1,4.34,9.42l0,.07c.26.83.5,1.67.71,2.52l0,.08c.21.86.4,1.73.56,2.61h0c-3.45-2.11-14.52-3.77-28.53-4.25-2.73-.09-5.58-.15-8.5-.15-5.26,0-10.27.17-14.83.46v3.71l1.82-.11h.16c4-.22,8.34-.34,12.85-.34,2.92,0,5.77,0,8.5.15,11.84.41,21.58,1.65,26.39,3.3l.47,68.31,0,5.15v.73a2.57,2.57,0,0,0-.16.54c-1.2,1.84-9.64,5.31-21.71,7-1.61.22-3.29.41-5,.56-2.7.23-5.54.36-8.48.36-1.25,0-2.47,0-3.67-.07a95.89,95.89,0,0,1-11.18-1.09V475l6,1.75h0l93.82,27.37,53.79,15.69ZM364.72,364.43l2.22-1.61,5.63-4.08,7.51-5.45V453.77l-13.14-4.84-2.22-.81Zm15.36-68.74V339.3l-7.51,6.59-5.63,4.94-2.22,1.95V315.49l2.65-3.41Zm-54.62,54.45L332,338.75h0l8.83-15.44v116l-2-.76-6.8-2.5-6.52-2.4V350.14Zm-141,39.61Zm5.38-54.39V323.51L205.47,339l.87.86,10.41,10.31v94l-11.28,4.11L189.86,454Z"/><path d="M147.71,353.06V341.41l-1.44.23v11.43l.82,0Z"/><polygon class="cls-4" points="205.47 304.44 189.87 282.11 189.83 284.44 189.6 298.49 189.5 304.38 189.87 304.81 197.55 313.97 205.47 323.39 216.75 336.82 216.75 320.58 209.66 310.44 205.47 304.44"/><polygon class="cls-4" points="373.65 313.92 372.57 315.2 364.79 324.46 364.73 331.01 364.72 332.3 365.65 331.3 372.57 323.8 379.99 315.76 380.08 315.67 380.08 315.13 380.08 306.28 374.19 313.28 373.65 313.92"/><polygon class="cls-4" points="366.94 337.48 364.79 339.65 364.72 346.13 366.94 344.12 372.57 339.02 380.08 332.22 380.08 324.29 372.57 331.83 366.94 337.48"/><polygon class="cls-4" points="331.99 352.58 331.98 352.59 328.11 358.05 328.11 358.12 328.11 373.67 328.11 383.48 331.98 380.23 336.56 376.39 336.56 346.13 335.78 347.23 331.99 352.58"/><polygon class="cls-4" points="395.58 389.58 395.58 399.64 398.69 399.1 401 398.69 401 388.12 398.69 388.74 395.58 389.58"/><polygon class="cls-4" points="395.58 367.78 395.58 379.02 398.69 377.89 401 377.05 401 365.25 398.69 366.33 395.58 367.78"/><polygon class="cls-4" points="395.58 409.4 395.58 419.02 398.69 419.02 401 419.02 401 408.93 398.69 409.13 395.58 409.4"/><polygon class="cls-4" points="395.58 428.63 395.58 438.39 398.69 438.94 401 439.35 401 429.11 398.69 428.9 395.58 428.63"/><polygon class="cls-4" points="395.58 342.08 395.58 344.3 395.58 355.58 398.69 353.78 401 352.45 401 345.93 401 338.28 398.69 339.9 395.58 342.08"/><polygon class="cls-4" points="406.43 419.02 411.85 419.02 411.85 407.98 406.43 408.46 406.43 419.02"/><polygon class="cls-4" points="406.43 375.08 411.85 373.1 411.85 360.19 406.43 362.72 406.43 375.08"/><polygon class="cls-4" points="406.43 349.31 411.85 346.18 411.85 330.68 406.43 334.48 406.43 349.31"/><polygon class="cls-4" points="406.43 397.73 411.85 396.77 411.85 385.21 406.43 386.67 406.43 397.73"/><polygon class="cls-4" points="406.43 440.31 411.85 441.26 411.85 430.06 406.43 429.58 406.43 440.31"/><polygon class="cls-4" points="417.27 371.13 422.7 369.15 422.7 355.13 417.27 357.66 417.27 371.13"/><polygon class="cls-4" points="417.27 326.75 417.27 343.05 422.7 339.92 422.7 328.34 422.7 328.33 422.36 328.24 417.27 326.75"/><polygon class="cls-4" points="428.12 329.93 428.12 336.78 433.55 333.65 433.55 331.51 428.12 329.93"/><polygon class="cls-4" points="417.27 419.02 422.7 419.02 422.7 407.03 417.27 407.51 417.27 419.02"/><polygon class="cls-4" points="417.27 395.82 422.7 394.86 422.7 382.31 417.27 383.76 417.27 395.82"/><polygon class="cls-4" points="417.27 442.22 422.7 443.18 422.7 431 417.27 430.53 417.27 442.22"/><polygon class="cls-4" points="428.12 444.13 433.55 445.09 433.55 431.95 428.12 431.48 428.12 444.13"/><polygon class="cls-4" points="428.12 367.18 433.55 365.2 433.55 350.07 428.12 352.6 428.12 367.18"/><polygon class="cls-4" points="428.12 393.9 433.55 392.95 433.55 379.4 428.12 380.86 428.12 393.9"/><polygon class="cls-4" points="428.12 419.02 433.55 419.02 433.55 406.08 428.12 406.56 428.12 419.02"/><polygon class="cls-4" points="229.11 434.18 230.65 433.77 230.65 431.22 229.11 431.56 229.11 434.18"/><polygon class="cls-4" points="229.11 386.35 230.65 387.24 230.65 383.95 229.11 382.97 229.11 386.35"/><polygon class="cls-4" points="229.11 379.4 230.65 380.47 230.65 376.78 229.11 375.6 229.11 379.4"/><polygon class="cls-4" points="229.11 392.63 230.65 393.35 230.65 390.36 229.11 389.56 229.11 392.63"/><polygon class="cls-4" points="229.11 398.42 230.65 398.98 230.65 396.22 229.11 395.58 229.11 398.42"/><polygon class="cls-4" points="229.11 403.86 230.65 404.27 230.65 401.66 229.11 401.18 229.11 403.86"/><polygon class="cls-4" points="229.11 321.01 230.65 323.67 230.65 313.27 229.11 310.32 229.11 321.01"/><polygon class="cls-4" points="229.11 338.21 230.65 340.4 230.65 332.61 229.11 330.2 229.11 338.21"/><polygon class="cls-4" points="229.11 362.43 230.65 363.97 230.65 358.94 229.11 357.27 229.11 362.43"/><polygon class="cls-4" points="229.11 371.54 230.65 372.83 230.65 368.58 229.11 367.17 229.11 371.54"/><polygon class="cls-4" points="229.11 351.58 230.65 353.42 230.65 347.28 229.11 345.28 229.11 351.58"/><polygon class="cls-4" points="229.11 429 230.65 428.73 230.65 426.27 229.11 426.47 229.11 429"/><polygon class="cls-4" points="229.11 423.97 230.65 423.83 230.65 421.42 229.11 421.49 229.11 423.97"/><polygon class="cls-4" points="229.11 419.02 230.65 419.02 230.65 416.62 229.11 416.55 229.11 419.02"/><polygon class="cls-4" points="229.11 409.04 230.65 409.31 230.65 406.81 229.11 406.47 229.11 409.04"/><polygon class="cls-4" points="229.11 414.07 230.65 414.2 230.65 411.77 229.11 411.57 229.11 414.07"/><polygon class="cls-4" points="233.21 366.53 234.74 368.07 234.74 363.42 233.21 361.74 233.21 366.53"/><polygon class="cls-4" points="233.21 374.98 234.74 376.26 234.74 372.33 233.21 370.92 233.21 374.98"/><polygon class="cls-4" points="233.21 356.47 234.74 358.3 234.74 352.62 233.21 350.62 233.21 356.47"/><polygon class="cls-4" points="233.21 344.06 234.74 346.25 234.74 339.04 233.21 336.63 233.21 344.06"/><polygon class="cls-4" points="233.21 394.54 234.74 395.26 234.74 392.5 233.21 391.69 233.21 394.54"/><polygon class="cls-4" points="233.21 404.95 234.74 405.37 234.74 402.95 233.21 402.47 233.21 404.95"/><polygon class="cls-4" points="233.21 399.92 234.74 400.47 234.74 397.91 233.21 397.28 233.21 399.92"/><polygon class="cls-4" points="233.21 388.71 234.74 389.6 234.74 386.56 233.21 385.58 233.21 388.71"/><polygon class="cls-4" points="233.21 382.27 234.74 383.34 234.74 379.92 233.21 378.74 233.21 382.27"/><polygon class="cls-4" points="233.21 414.43 234.74 414.56 234.74 412.31 233.21 412.11 233.21 414.43"/><polygon class="cls-4" points="233.21 328.11 234.74 330.77 234.74 321.14 233.21 318.19 233.21 328.11"/><polygon class="cls-4" points="233.21 433.08 234.74 432.67 234.74 430.31 233.21 430.65 233.21 433.08"/><polygon class="cls-4" points="233.21 409.76 234.74 410.04 234.74 407.72 233.21 407.38 233.21 409.76"/><polygon class="cls-4" points="233.21 423.61 234.74 423.48 234.74 421.24 233.21 421.31 233.21 423.61"/><polygon class="cls-4" points="233.21 419.02 234.74 419.02 234.74 416.79 233.21 416.73 233.21 419.02"/><polygon class="cls-4" points="233.21 428.27 234.74 428 234.74 425.73 233.21 425.93 233.21 428.27"/><polygon class="cls-4" points="237.3 335.2 238.84 337.86 238.84 329.01 237.3 326.06 237.3 335.2"/><polygon class="cls-4" points="237.3 431.99 238.84 431.57 238.84 429.41 237.3 429.75 237.3 431.99"/><polygon class="cls-4" points="237.3 361.35 238.84 363.18 238.84 357.96 237.3 355.95 237.3 361.35"/><polygon class="cls-4" points="237.3 396.45 238.84 397.17 238.84 394.63 237.3 393.83 237.3 396.45"/><polygon class="cls-4" points="237.3 401.41 238.84 401.96 238.84 399.61 237.3 398.97 237.3 401.41"/><polygon class="cls-4" points="237.3 391.08 238.84 391.97 238.84 389.17 237.3 388.19 237.3 391.08"/><polygon class="cls-4" points="237.3 406.05 238.84 406.46 238.84 404.25 237.3 403.76 237.3 406.05"/><polygon class="cls-4" points="237.3 378.41 238.84 379.7 238.84 376.08 237.3 374.68 237.3 378.41"/><polygon class="cls-4" points="237.3 385.13 238.84 386.21 238.84 383.06 237.3 381.89 237.3 385.13"/><polygon class="cls-4" points="237.3 410.49 238.84 410.76 238.84 408.63 237.3 408.29 237.3 410.49"/><polygon class="cls-4" points="237.3 370.63 238.84 372.16 238.84 367.88 237.3 366.21 237.3 370.63"/><polygon class="cls-4" points="237.3 427.55 238.84 427.28 238.84 425.19 237.3 425.39 237.3 427.55"/><polygon class="cls-4" points="237.3 423.25 238.84 423.12 238.84 421.06 237.3 421.13 237.3 423.25"/><polygon class="cls-4" points="237.3 349.91 238.84 352.1 238.84 345.47 237.3 343.06 237.3 349.91"/><polygon class="cls-4" points="237.3 419.02 238.84 419.02 238.84 416.97 237.3 416.91 237.3 419.02"/><polygon class="cls-4" points="237.3 414.79 238.84 414.92 238.84 412.85 237.3 412.65 237.3 414.79"/><polygon class="cls-4" points="241.4 366.23 242.94 368.06 242.94 363.29 241.4 361.29 241.4 366.23"/><polygon class="cls-4" points="241.4 374.72 242.94 376.26 242.94 372.36 241.4 370.68 241.4 374.72"/><polygon class="cls-4" points="241.4 381.85 242.94 383.14 242.94 379.84 241.4 378.43 241.4 381.85"/><polygon class="cls-4" points="241.4 419.02 242.94 419.02 242.94 417.15 241.4 417.08 241.4 419.02"/><polygon class="cls-4" points="241.4 415.14 242.94 415.28 242.94 413.39 241.4 413.19 241.4 415.14"/><polygon class="cls-4" points="241.4 411.21 242.94 411.48 242.94 409.54 241.4 409.2 241.4 411.21"/><polygon class="cls-4" points="241.4 426.83 242.94 426.56 242.94 424.65 241.4 424.85 241.4 426.83"/><polygon class="cls-4" points="241.4 388 242.94 389.08 242.94 386.21 241.4 385.03 241.4 388"/><polygon class="cls-4" points="241.4 422.89 242.94 422.76 242.94 420.88 241.4 420.95 241.4 422.89"/><polygon class="cls-4" points="241.4 342.3 242.94 344.96 242.94 336.88 241.4 333.93 241.4 342.3"/><polygon class="cls-4" points="241.4 430.89 242.94 430.48 242.94 428.5 241.4 428.84 241.4 430.89"/><polygon class="cls-4" points="241.4 355.76 242.94 357.95 242.94 351.9 241.4 349.49 241.4 355.76"/><polygon class="cls-4" points="241.4 407.15 242.94 407.56 242.94 405.54 241.4 405.05 241.4 407.15"/><polygon class="cls-4" points="241.4 393.44 242.94 394.33 242.94 391.78 241.4 390.8 241.4 393.44"/><polygon class="cls-4" points="241.4 402.9 242.94 403.46 242.94 401.31 241.4 400.67 241.4 402.9"/><polygon class="cls-4" points="241.4 398.36 242.94 399.08 242.94 396.76 241.4 395.96 241.4 398.36"/><path class="cls-4" d="M183.38,383.05l0-.08c-.21-.85-.45-1.69-.71-2.52l0-.07a41.24,41.24,0,0,0-4.34-9.42.41.41,0,0,1,0-.09c-.44-.69-.89-1.37-1.36-2l-.12-.17c-.46-.64-.94-1.27-1.44-1.88l-.14-.16c-.5-.62-1-1.22-1.56-1.79l-.1-.11a39.85,39.85,0,0,0-3.55-3.33l-.11-.09c-.59-.49-1.2-.95-1.82-1.4l-.24-.18c-.6-.43-1.22-.84-1.84-1.23l-.3-.18c-.63-.39-1.26-.75-1.91-1.1l-.3-.15c-.66-.35-1.33-.68-2-1l-.22-.1c-.72-.31-1.44-.6-2.18-.87h0a36.63,36.63,0,0,0-3.61-1.08l-.71-.17a32.67,32.67,0,0,0-3.45-.58,34.3,34.3,0,0,0-3.54-.24h-.62l-.82,0a34.74,34.74,0,0,0-6.8.81,33.88,33.88,0,0,0-4.32,1.25h0q-1.09.4-2.16.87l-.23.1-.67.32v25.3c4.56-.29,9.57-.46,14.83-.46,2.92,0,5.77.06,8.5.15,14,.48,25.08,2.14,28.53,4.25h0C183.78,384.78,183.59,383.91,183.38,383.05Z"/><path class="cls-4" d="M184.48,389.75Z"/><path class="cls-4" d="M139.5,464.33c2.34.19,4.82.31,7.39.31V391q-3.94,0-7.39.12Z"/><path class="cls-4" d="M152.82,391.11v73.34c.88-.06,1.74-.13,2.59-.21,1.67-.15,3.28-.34,4.81-.57V391.44c-1.51-.1-3.12-.18-4.81-.24C154.57,391.16,153.71,391.14,152.82,391.11Z"/><path class="cls-4" d="M166.15,462.59l.13,0a56.84,56.84,0,0,0,7.26-2.07V393c-1.86-.36-4.33-.73-7.39-1.05Z"/><polygon class="cls-4" points="330.61 402.58 330.61 405.29 331.98 404.87 332.72 404.65 332.72 401.81 331.98 402.08 330.61 402.58"/><polygon class="cls-4" points="330.61 397.98 330.61 400.88 331.98 400.33 332.72 400.03 332.72 397 331.98 397.34 330.61 397.98"/><polygon class="cls-4" points="330.61 393 330.61 396.15 331.98 395.45 332.72 395.08 332.72 391.77 331.98 392.2 330.61 393"/><polygon class="cls-4" points="330.61 406.89 330.61 409.47 331.98 409.18 332.72 409.02 332.72 406.32 331.98 406.52 330.61 406.89"/><polygon class="cls-4" points="328.11 397.42 329.24 396.84 329.24 393.79 328.11 394.44 328.11 397.42"/><polygon class="cls-4" points="328.11 401.88 329.24 401.43 329.24 398.62 328.11 399.15 328.11 401.88"/><polygon class="cls-4" points="328.11 406.05 329.24 405.7 329.24 403.08 328.11 403.49 328.11 406.05"/><polygon class="cls-4" points="334.42 394.21 336.56 393.13 336.56 389.56 334.42 390.79 334.42 394.21"/><polygon class="cls-4" points="334.42 388.61 336.56 387.28 336.56 383.5 334.42 385.07 334.42 388.61"/><polygon class="cls-4" points="334.42 399.35 336.56 398.49 336.56 395.21 334.42 396.2 334.42 399.35"/><polygon class="cls-4" points="334.42 404.13 336.56 403.48 336.56 400.41 334.42 401.19 334.42 404.13"/><polygon class="cls-4" points="328.11 392.54 329.24 391.83 329.24 388.86 328.11 389.69 328.11 392.54"/><polygon class="cls-4" points="330.61 411.01 330.61 414.99 331.98 414.9 332.72 414.84 332.72 410.63 331.98 410.76 330.61 411.01"/><polygon class="cls-4" points="328.11 415.17 329.24 415.09 329.24 411.25 328.11 411.45 328.11 415.17"/><polygon class="cls-4" points="334.42 414.72 336.56 414.57 336.56 409.96 334.42 410.33 334.42 414.72"/><polygon class="cls-4" points="328.11 410 329.24 409.76 329.24 407.26 328.11 407.56 328.11 410"/><polygon class="cls-4" points="330.61 387.86 330.61 390.98 331.98 390.13 332.72 389.67 332.72 386.31 331.98 386.85 330.61 387.86"/><polygon class="cls-4" points="334.42 408.67 336.56 408.22 336.56 405.3 334.42 405.87 334.42 408.67"/><polygon class="cls-5" points="205.47 338.97 189.87 323.51 189.87 324.19 189.87 328.96 189.87 335.36 189.87 453.96 205.47 448.27 216.75 444.16 216.75 350.14 206.34 339.83 205.47 338.97"/><polygon class="cls-5" points="364.79 324.46 372.57 315.2 373.65 313.92 374.19 313.28 380.08 306.28 380.08 295.69 367.37 312.08 364.72 315.5 364.72 331.01 364.72 332.3 364.73 331.01 364.79 324.46"/><polygon class="cls-5" points="366.94 350.83 372.57 345.89 380.08 339.3 380.08 332.22 372.57 339.02 366.94 344.12 364.72 346.13 364.72 352.78 366.94 350.83"/><polygon class="cls-5" points="364.79 339.65 366.94 337.48 372.57 331.83 380.08 324.29 380.08 315.79 380.08 315.67 379.99 315.76 372.57 323.8 365.65 331.3 364.72 332.3 364.72 346.13 364.79 339.65"/><path class="cls-5" d="M332,338.75l-6.52,11.39v83.52l6.52,2.4,6.8,2.5,2,.76v-116L332,338.74Zm-2.74,76.34-1.13.08v-3.72l1.13-.2Zm0-5.33-1.13.23v-2.43l1.13-.3Zm0-4.06-1.13.35v-2.56l1.13-.41Zm0-4.27-1.13.45v-2.73l1.13-.53Zm0-4.59-1.13.58v-3l1.13-.66Zm0-5-1.13.7v-2.84l1.13-.83Zm3.48,23-.74.06-1.38.09v-4l1.38-.25.74-.13Zm0-5.82-.74.16-1.38.29v-2.58l1.38-.37.74-.19Zm0-4.37-.74.22-1.38.42v-2.71l1.38-.5.74-.27Zm0-4.62-.74.3-1.38.55V398l1.38-.64.74-.34Zm0-4.95-.74.37-1.38.7V393l1.38-.8.74-.42Zm0-5.41-.74.46-1.38.85v-3.12l1.38-1,.74-.54Zm3.84-2.39-2.14,1.33v-3.54l2.14-1.57Zm0,2.28v3.57l-2.14,1.09v-3.43Zm0,5.65v3.28l-2.14.86V396.2Zm0,5.2v3.07l-2.14.65v-2.94Zm0,4.89v2.92l-2.14.45v-2.8Zm0,4.66v4.61l-2.14.15v-4.39Zm-.78-62.73.78-1.1v30.26L332,380.23l-3.87,3.25V358.05l3.87-5.46h0Z"/><polygon class="cls-5" points="366.94 362.82 364.72 364.43 364.72 448.12 366.94 448.93 380.08 453.77 380.08 448.55 380.08 355 380.08 353.29 372.57 358.74 366.94 362.82"/><path class="cls-5" d="M132.08,356.41h0l.67-.32Z"/><path class="cls-5" d="M170,361.41c.63.52,1.23,1,1.83,1.61C171.2,362.46,170.6,361.93,170,361.41Z"/><path class="cls-5" d="M171.8,363c.59.55,1.16,1.13,1.72,1.72C173,364.15,172.39,363.57,171.8,363Z"/><path class="cls-5" d="M181.53,377.35a42.09,42.09,0,0,0-3.24-6.39A42.09,42.09,0,0,1,181.53,377.35Z"/><path class="cls-5" d="M182.63,380.38c-.33-1-.7-2-1.1-3C181.93,378.34,182.3,379.35,182.63,380.38Z"/><path class="cls-5" d="M134.06,385.31c4-.22,8.34-.34,12.85-.34,2.92,0,5.77,0,8.5.15-2.73-.1-5.58-.15-8.5-.15C142.4,385,138.08,385.09,134.06,385.31Z"/><path class="cls-5" d="M132.08,385.43l1.82-.11-1.82.11Z"/><path class="cls-5" d="M181.8,388.42c-4.21-1.44-12.19-2.58-22.05-3.11C169.61,385.84,177.59,387,181.8,388.42Z"/><polygon class="cls-6" points="285.82 423.82 220.28 447.62 350.7 447.73 285.82 423.82"/><path class="cls-4" d="M408.45,469l-4.55-1.68H356.4L337,455.1h33.75l-4.55-1.68H334.31l-14.89-9.37h21.32l-4.56-1.68H316.75l-11.63-7.32h11.19l-4.56-1.68h-9.3l-9.21-5.79H296l-4.55-1.68h-.9l-1.27-.8-2.38-.87-.19-.08-.21-.07h0l-.69-.25-.92.33-.06,0-.11,0-.36.13-2.58.94-1,.62h-.72l-4.63,1.68h2.68l-9.2,5.79h-9.46l-4.63,1.68h11.42l-11.63,7.32h-20L230,444.05H252l-14.9,9.37H204.18l-4.63,1.68h34.86L215,467.32H184.3a17.54,17.54,0,0,1-2.64,1.68h30.66l-32,20.12.2.06,1.95.57,3.81,1.1h56.85l-8.7,14,1.67.49,9-14.53h39.7v28.73l.89.26.79-.23V490.85h39.71l9,14.53,1.67-.48-8.7-14H385l3.84-1.12,1.91-.55.25-.08L359.07,469Zm-55.2-1.68H313.64l-7.57-12.22h27.76Zm-66.72-23.27h10.71l5.81,9.37H286.53Zm0-1.68v-7.32h5.14l4.53,7.32Zm0-9v-5.79H287l3.59,5.79Zm-1.68-5.79v5.79h-4.09l3.59-5.79Zm0,7.47v7.32h-9.66l4.53-7.32Zm0,9v9.37H268.34l5.81-9.37Zm0,11.05v12.22H259.72l7.58-12.22Zm1.68,0h17.56l7.57,12.22H286.53Zm44.63-1.68H305l-5.81-9.37h17ZM313.6,442.37H298.18l-4.54-7.32H302Zm-14.3-9h-6.7L289,427.58h1.08Zm-18-5.79h1.09l-3.59,5.79h-6.7Zm-11.87,7.47h8.33l-4.54,7.32H257.79Zm-14.3,9h17.05l-5.81,9.37H240.23ZM237.56,455.1h27.76l-7.57,12.22H218.14Zm-54.14,34.08L215.47,469h41.24l-12.5,20.18Zm62.77,0L258.68,469h26.17v20.18Zm40.34,0V469H312.7l12.5,20.18Zm101.44,0H327.18L314.68,469h41.23Z"/><g class="cls-7"><circle class="cls-8" cx="285.56" cy="424.61" r="55.86"/></g></svg>