<?xml version="1.0" encoding="utf-8"?>
<!-- Generator: Adobe Illustrator 24.3.0, SVG Export Plug-In . SVG Version: 6.00 Build 0)  -->
<svg version="1.1" id="Logo" xmlns="http://www.w3.org/2000/svg" xmlns:xlink="http://www.w3.org/1999/xlink" x="0px" y="0px" viewBox="0 0 1211.9 423" style="enable-background:new 0 0 1211.9 423;" xml:space="preserve">
	<path d="M252.9,1.3c-0.2,0.8-0.4,7.2-0.6,14.3s-0.4,14.6-0.5,16.7s-0.4,7.6-0.5,12.1c-0.7,26.7-1,34-1.5,34.6
	s-3.7,0.7-13.5,0.7c-7.1,0-13.2-0.2-13.6-0.4c-0.6-0.4-4.2-7.6-10.1-20.2c-3-6.3-10.4-21.9-12.6-26.3c-0.6-1.5-1.5-2.8-2.5-4.1
	c-0.9-0.7-1.1-0.5-8.1,5.4c-2,1.8-9.7,8.1-16.9,14.2c-11.9,9.9-22.9,19-24.4,20.3c-0.3,0.3-1.4,1.2-2.5,2s-3.4,2.8-5.4,4.4
	s-5.6,4.6-8.1,6.7c-8.8,7.3-16.3,13.6-16.6,13.9c-0.2,0.2-5,4.2-10.8,9s-11.6,9.6-12.9,10.8s-3.4,2.9-4.6,3.9s-3.5,2.9-5.2,4.4
	s-5.1,4.3-7.7,6.4s-7.6,6.3-11,9.3s-7.9,6.8-10,8.4s-4,3.3-4.3,3.6s-3.7,3.2-7.5,6.4s-7.8,6.6-8.9,7.5s-3.3,2.9-5.1,4.4
	s-3.3,2.8-3.5,3s-2.3,2-4.8,4.1s-4.7,3.9-4.8,4.1s-2,1.8-4.2,3.6c-9.2,7.7-13.7,12.6-6.1,6.9c1.8-1.3,6-4.4,9.4-6.9
	s11-8.1,16.9-12.6l15-11.2c2.4-1.7,6.5-4.8,9.1-6.8s7.2-5.4,10-7.5c7.2-5.3,14.8-11.1,28.7-21.6c6.5-5,15.8-12,20.7-15.7
	s10.5-8,12.6-9.5c2.1-1.5,4.4-3.3,5.2-3.9s5.1-3.8,9.5-7.2s9.3-7.2,10.9-8.3s5.9-4.4,9.5-7.2s9.7-7.4,13.4-10.2s9-6.8,11.7-9
	l4.8-3.9l0.9,1.1c1.2,2.2,2.3,4.4,3.2,6.7c3.6,8.2,8.6,19.7,9.7,22c0.6,1.1,1.5,3.3,2.1,4.9s1.9,4.3,2.8,6.2l1.6,3.4l6,0.3
	c3.3,0.2,12.9,0.5,21.3,0.8s17.9,0.7,21,0.8c4.2,0.2,5.9,0.1,6.2-0.4c0.5-2.8,0.7-5.6,0.8-8.4c0.2-4.3,0.7-11.9,1-17
	c0.7-10.8,0.9-14.5,1-20c0-5.2,0.9-5.6,4-2.1c1.2,1.3,3.3,3.7,4.7,5.1c4,4.4,5.2,5.7,9.8,10.9c2.4,2.8,5,5.6,5.6,6.3l4.6,5.2
	c1.9,2.1,8.5,9.5,14.7,16.4s12.6,14.1,14.1,16s5.4,6.1,8.3,9.3s6.3,6.8,7.3,8c3.1,3.6,10.4,11.8,10.8,12c0.2,0.1,1.7,1.9,3.5,3.9
	s3.5,3.8,3.8,4.1s1.4,1.5,2.5,2.8s3.3,3.9,5,5.7s4.2,4.6,5.6,6.2c2.1,2.4,6.7,7.4,7.5,8.2c0.2,0.2,2.3,2.6,4.8,5.4s6.9,7.8,9.8,11
	l5.3,5.8l-0.9,5.2c-0.4,2.9-1.5,9.6-2.2,15s-1.7,12.1-2.1,14.9c-1.4,9.5-1.8,11.8-2.6,17.8c-0.5,3.2-1.1,7.4-1.4,9.3
	s-0.6,4.4-0.8,5.7s-0.5,3.7-0.8,5.4s-1,6.9-1.7,11.5l-1.2,8.5l-7.2,6.4c-4,3.5-11,9.7-15.6,13.7s-9.6,8.4-11.2,9.8s-4.6,4.1-6.6,5.8
	l-3.6,3.2l-2.6-1.1c-1.4-0.6-5.2-2.4-8.5-4s-20.7-10.2-38.7-18.9S260,283.2,259.5,283s-4.9-2.4-9.9-4.8s-10.3-4.9-11.8-5.7
	c-16.2-7.9-41.9-19.9-43-19.9c-1.9,0.5-3.6,1.3-5.3,2.3c-2.1,1.2-7.3,4.2-11.5,6.5s-9.6,5.5-12.1,7s-8.8,5-14,7.9s-10,5.7-10.8,6.2
	c-1.4,0.9-32.8,19-55.3,31.8c-7,4-13.8,8-15.2,8.8c-3.7,2.4-7.5,4.2-8.2,3.9c-0.7-0.5-1.2-1.1-1.4-1.9c-0.8-1.6-3-6.3-7.3-15
	c-1.2-2.6-3-6-3.8-7.7s-3.1-6.4-5-10.4s-4.2-8.4-4.8-9.8s-3-6.1-5.3-10.7s-5.4-10.7-6.8-13.7c-18.2-36.6-27.7-55-28-54
	c-0.2,0.6,7.7,20.2,11.6,29c0.3,0.6,0.9,2.1,1.4,3.4c1.2,2.9,2.4,5.6,3,6.9c0.3,0.6,1.7,3.9,3.2,7.5s4.7,11.4,7.3,17.5
	s5.7,13.5,7,16.5c2.2,5.4,8,19,8.9,20.9c0.3,0.6,1.3,3.1,2.4,5.7s2.4,5.7,3,7s2.8,6.6,5.2,11.9s4.4,10.1,4.8,10.6
	c0.7,0.8,1.1,0.7,5.7-1.6c2.8-1.3,5.9-2.9,6.9-3.5s3.7-2,5.9-3.1s5.9-3,8.1-4.2s6-3.1,8.3-4.4s9.9-5.1,16.7-8.8s14.3-7.5,16.7-8.8
	c2.4-1.2,6.7-3.5,9.7-5c12.1-6.4,15.8-8.3,19.1-10c6.9-3.5,10-5.2,11.9-6.4c1.1-0.6,2.1-1.2,2.3-1.2s5.6-2.9,15.6-8.2
	c1.8-1,4.9-2.6,6.9-3.7l3.8-1.9l5.1,2.6c2.9,1.5,8,4.1,11.4,5.9s8.2,4.2,10.5,5.4s6,3,8,4.1l7.8,4c2.2,1.1,7.3,3.7,11.3,5.8
	s9.3,4.8,11.8,6.1c6.2,3.1,20.9,10.6,25.8,13.1c2.2,1.1,6.7,3.4,9.9,5c6,3,22,11.1,29.3,14.8c13.2,6.8,17.6,8.9,18.7,9.2
	c0.9,0.2,1.9-0.3,3.8-1.7c1.1-0.8,2.1-1.7,3.1-2.6c0.3-0.4,5.3-4.6,11-9.5s12.4-10.5,14.8-12.6s5.4-4.6,6.7-5.7s3.6-3.1,5.1-4.4
	c7-6.2,11.5-10,14.1-11.9c1.2-0.9,2.3-1.9,3.1-3.2c0.2-0.6,1.3-7.4,2.5-15.2c3.5-23.1,8-52.4,8.8-58.2c0.5-3,1.1-7.2,1.4-9.3
	s1.2-8.6,2.1-14.4s1.5-11.1,1.5-11.7c0-1.1-0.4-1.6-7.8-9.6c-2.4-2.6-5.6-6.2-7.3-8s-3.9-4.4-5.1-5.7s-3.5-3.9-5.2-5.7
	s-4.8-5.3-7-7.7s-7.2-8-11.1-12.4s-8.7-9.6-10.5-11.6c-4.1-4.5-24.3-26.5-32.3-35.3c-7-7.7-12.6-13.9-17.2-18.8c-1.8-2-5-5.5-7-7.7
	s-4.8-5.3-6.1-6.7c-2.6-2.8-3.2-3.5-12.6-13.6c-3.3-3.5-6.3-6.8-6.8-7.3s-1.9-2.1-3.3-3.5c-2.3-2.6-15-16.4-15.6-17
	c-0.2-0.1-1.7-1.9-3.4-3.9s-3.5-4-4-4.4s-2-2.1-3.4-3.8C254.3-0.4,253.3-0.8,252.9,1.3z" />
	<path d="M189.8,126.9c-1.1,1.5-2.1,3.1-3,4.8c-1,1.9-2.6,4.5-3.5,5.9c-0.7,1.2-1.4,2.4-2,3.6c-0.5,1.2-1,88-0.5,89.4
	c0.3,0.8,1,0.9,5,0.9c3,0,4.9-0.2,5.2-0.6c0.4-0.7,0.5-104.9,0.1-105.3C190.9,125.6,190.3,126.1,189.8,126.9z" />
	<path d="M122.8,131.6l-2,0.1l0.2,5l0.2,5l18,0.3c9.9,0.1,18.1,0.4,18.2,0.4c0.4,0.3,0,1.2-0.9,2s-7.7,9.4-17.3,21.7
	c-1.9,2.5-4.6,5.9-6,7.6c-1,1.1-1.9,2.3-2.6,3.6c0.5,0.9,1.1,1.8,1.9,2.5c2,2.1,2,2.1,7.2,0.8c2.1-0.4,4.3-0.5,6.5-0.4
	c9.8,0.5,17.9,7.6,19.8,17.1c1.3,6-1.3,13.2-6.3,18c-8.4,7.7-21.3,7.6-29.6-0.2c-2.5-2.3-6-7.9-6-9.5c0-1.3-1.2-1.3-3.8-0.1
	c-1.3,0.6-3.3,1.4-4.3,1.9c-3.1,1.2-3.1,1.1,0.2,7.7c2.6,5.2,8.4,10.6,15,13.6c4.9,2.3,5.5,2.4,10.7,2.7c7.4,0.4,11.8-0.4,17.3-2.9
	c6.3-2.9,11.5-7.9,14.7-14.1c0.9-1.6,1.7-3.4,2.3-5.2c0.2-1.3,0.4-2.6,0.8-3.8c2.3-8.4-2.2-20.9-10.1-27.8
	c-3.9-3.4-11.8-7.4-14.7-7.4c-1.6,0-0.8-2.1,2.4-6c6.6-8.2,9.6-11.9,15.3-19.2c3.2-4.1,6.8-8.6,8-9.9s2-2.7,1.8-3.1
	c-0.3-0.6-4.9-0.7-27.6-0.7C137.2,131.4,123.9,131.5,122.8,131.6z" />
	<path d="M202,132.1c-0.3,0.3-0.5,2.6-0.4,5.1l0.2,4.5l17.8,0.1c9.7,0.1,17.9,0.3,18.2,0.6s-3.3,5.1-8,10.9
	s-10,12.6-12,15.1s-4.2,5.4-5.1,6.2c-0.7,0.7-1.2,1.5-1.5,2.4c0.4,1,1.1,2,1.9,2.8l1.8,2.1l3.7-0.9c6.9-1.7,12.6-0.9,18.2,2.5
	c3.4,2.1,6.2,5.1,7.9,8.6c1.4,2.7,1.7,3.9,1.9,7.7c0.3,4.6,0.2,4.7-2.3,10.4c-1.3,3-5.5,6.9-9.6,8.8c-8.1,3.8-17.7,2.3-24.2-3.8
	c-2.1-2-5.4-7.1-6-9.5c-0.2-0.8-0.6-1.4-0.9-1.4c-0.9,0-9,4-9.4,4.7c-0.2,0.3,0.7,2.7,2,5.3c1.5,3.1,3.6,5.9,6.1,8.2
	c1.4,1.5,3,2.8,4.7,4c0.9,0.4,1.8,0.9,2.7,1.4c1.6,0.9,3.3,1.6,5.1,2.2c4.7,1.6,15.9,1.8,20.4,0.2c5.9-1.9,11.2-5.3,15.3-10
	c6.5-8,8.8-17.8,6.2-27.1c-2.8-10.3-10.4-18.6-19.8-21.6c-5.1-1.6-5.5-1.8-5.2-2.6s5.4-7.3,18.9-24.1c10.7-13.3,10.2-12.6,9.7-13.1
	C259.7,131.2,202.5,131.4,202,132.1z" />
	<path d="M285,132.7c-1.7,0.4-3.3,1-4.8,1.7c-0.9,0.4-2.4,1.2-3.4,1.6c-2.2,1.5-4.3,3.2-6.2,5.1c-5,4.8-7.4,9.1-8.8,15.4
	c-1,4.6-0.7,5.2,2.6,6.1c1,0.3,2.9,0.7,4.1,1.1c1.5,0.4,2.5,0.4,2.9,0.1c0.6-1.3,0.9-2.7,1.1-4.1c1.5-8.9,8.6-15.7,18.1-17.2
	c4.2-0.7,7.3-0.2,11.7,1.8c7.3,3.4,11.9,9.4,12.5,16.4c0.2,2.2,0.1,4.4-0.4,6.5c-1.2,4.9-2.4,6.6-12.9,17.7
	c-1.6,1.8-4.1,4.5-5.6,6.2c-3.8,4.3-7.9,8.6-8.7,9.3c-0.4,0.3-2.1,2.3-4,4.4s-5.2,5.8-7.4,8.1s-4.6,5-5.3,5.9
	c-0.5,0.7-1.1,1.3-1.7,1.9c-1.1,0.9-2.1,1.9-3,3c-2.2,2.5-2.5,2.9-2.4,5.1l0.1,2.5l30.1,0.1c16.6,0.1,30.6,0,31.3-0.1
	c1.1-0.3,1.2-0.5,1.2-4.9c0-2.6-0.2-4.7-0.5-4.9s-9.6-0.4-20.6-0.4c-19.3-0.1-20-0.1-20.2-1.1c-0.1-0.6,0.1-1.2,0.5-1.6
	c0.4-0.3,3-3,5.8-6.1s6.6-7.1,8.3-9.1s4.8-5.2,6.8-7.3c13.6-14.6,15.3-16.8,17.4-21.5c4.8-11.3,2-24.5-7.1-33.7
	c-2.3-2.3-8.2-6.1-10.9-7C298.8,131.4,290.9,131,285,132.7z" />
	<path d="M387.2,348.7c-1.5,0.4-4.6,1.1-7,1.5c-16.2,3.4-20.6,4.4-35.2,8.6c-10.1,2.9-18.5,5.9-19.5,7
	c-0.5,0.6-0.5,1.2,0.1,2.6c2.6,7.1,11.7,23.9,19.6,36.3c1.9,3.1,3.5,5.7,3.5,5.9c0.5,0.8,1,1.5,1.6,2.2c0.6,0.7,1.2,1.5,1.7,2.4
	c0,0.8,5,7.6,5.6,7.8c1.1,0.4,16.2-29.8,22.8-45.4c4.4-10.2,6.5-15.6,6.5-16.2c0.1-0.5,0.2-1,0.5-1.5c1.7-3.6,3.1-7.4,4.3-11.2
	C391.8,347.8,390.9,347.8,387.2,348.7z M365.9,367.3c0.2,0.2,0,0.8-0.3,1.4c-1.7,3.1-6.6,14-8.2,17.9c-0.7,1.9-1.6,3.7-2.7,5.4
	c-0.9,1-1,0.9-3.8-2.1c-3.9-4.1-20.9-20.2-22.4-21.2c-3.1-1.9-1.9-2,18-1.9C357,367,365.8,367.1,365.9,367.3z" />
	<path d="M503.5,106.6h-24.2v79.1h-4.5v-79.1h-24.1v-4.4h52.7V106.6z" />
	<path d="M555.9,146.1h-44.1v39.5h-4.5v-83.5h4.5v39.5h44.1v-39.5h4.5v83.5h-4.5V146.1z" />
	<path d="M613.6,102.1h4.5v59.2c-0.3,13.4-11.4,24.1-24.8,23.8c-13-0.3-23.5-10.8-23.8-23.8v-59.2h4.5v59.2
	c0,10.9,8.9,19.8,19.8,19.8s19.8-8.9,19.8-19.8L613.6,102.1z" />
	<path d="M627.2,102.1h4.5l54.9,75.9v-75.9h4.4v83.5h-4.5l-54.9-75.7v75.7h-4.5L627.2,102.1z" />
	<path d="M700.4,102.1h18.2c23.1-0.4,42,18,42.4,41.1c0.4,23.1-18,42-41.1,42.4c-0.4,0-0.9,0-1.3,0h-18.2V102.1z
	 M718.6,106.6h-13.7v74.6h13.7c20.6,0.3,37.6-16.1,37.9-36.7s-16.1-37.6-36.7-37.9C719.4,106.6,719,106.6,718.6,106.6z" />
	<path d="M767,102.1h48.4v4.4h-44v35.1h35.1v4.4h-35.1v35.1h44v4.4H767V102.1z" />
	<path d="M842,166.3c-3.1-3.2-7.3-5-11.7-5.1h-6.7v24.5h-4.5v-83.5h19c16.3,0,29.5,13.2,29.5,29.5
	c0,14.6-10.7,27-25.2,29.2l2.6,2.2l22.6,22.6h-6.3L842,166.3z M823.7,156.7h14.6c13.8,0.3,25.3-10.7,25.6-24.6
	c0.3-13.8-10.7-25.3-24.6-25.6c-0.3,0-0.7,0-1,0h-14.6V156.7z" />
	<path d="M901.2,102.1h18.2c23.1-0.4,42,18,42.4,41.1c0.4,23.1-18,42-41.1,42.4c-0.4,0-0.9,0-1.3,0h-18.2V102.1z
	 M919.3,106.6h-13.7v74.6h13.7c20.6,0.3,37.6-16.1,37.9-36.7s-16.1-37.6-36.7-37.9C920.1,106.6,919.7,106.6,919.3,106.6z" />
	<path d="M1007,102.1c23.1,0,41.8,18.7,41.8,41.8s-18.7,41.8-41.8,41.8c-23.1,0-41.8-18.7-41.8-41.8c0,0,0,0,0,0
	C965.2,120.8,983.9,102.1,1007,102.1z M1007,181.2c20.6,0,37.3-16.7,37.3-37.3s-16.7-37.3-37.3-37.3s-37.3,16.7-37.3,37.3
	c0,0,0,0,0,0C969.8,164.5,986.4,181.1,1007,181.2z" />
	<path d="M1096.4,118.5l-19.4,67.1h-4.7l-23.9-83.5h4.7l21.6,75.4l20.4-70.9h2.6l20.5,70.9l21.6-75.4h4.7l-23.9,83.5
	h-4.7L1096.4,118.5z" />
	<path d="M1148.1,102.1h4.5l54.9,75.8v-75.8h4.4v83.5h-4.4l-54.9-75.7v75.7h-4.5V102.1z" />
	<path d="M494.9,235.8h4.5V295c0.3,13.4-10.4,24.5-23.8,24.8s-24.5-10.4-24.8-23.8c0-0.3,0-0.7,0-1v-59.2h4.5V295
	c0.2,10.9,9.3,19.6,20.3,19.4c10.6-0.2,19.1-8.8,19.4-19.4L494.9,235.8z" />
	<path d="M508.6,235.8h4.4l54.9,75.8v-75.8h4.5v83.5h-4.5L513,243.6v75.7h-4.5L508.6,235.8z" />
	<path d="M581.8,235.8h18.2c23.1,0,41.8,18.7,41.8,41.8s-18.7,41.8-41.8,41.8h-18.2V235.8z M599.9,240.2h-13.7v74.6h13.7
	c20.6,0.3,37.6-16.1,37.9-36.7c0.3-20.6-16.1-37.6-36.7-37.9C600.7,240.2,600.3,240.2,599.9,240.2L599.9,240.2z" />
	<path d="M648.3,235.8h48.4v4.4h-44v35.1h35.1v4.5h-35.1v35.1h44v4.5h-48.5V235.8z" />
	<path d="M723.4,299.9c-3.1-3.2-7.3-5-11.7-5.1H705v24.5h-4.5v-83.5h19c16.3,0,29.5,13.2,29.5,29.5
	c0,14.6-10.7,27-25.2,29.2l2.6,2.2l22.6,22.6h-6.3L723.4,299.9z M705,290.3h14.6c13.8,0.3,25.3-10.7,25.6-24.6
	c0.3-13.8-10.7-25.3-24.6-25.6c-0.3,0-0.7,0-1,0H705V290.3z" />
</svg>
