<svg id="Logo" xmlns="http://www.w3.org/2000/svg" viewBox="0 0 1211.91 423"><defs><style>.cls-1{fill:#1c3b1e;}</style></defs><path class="cls-1" d="M252.88,1.28c-.17.82-.43,7.21-.6,14.32s-.37,14.62-.53,16.73-.38,7.57-.54,12.1c-.7,26.73-1,34-1.51,34.6s-3.71.67-13.49.67c-7.1,0-13.23-.2-13.61-.41-.64-.41-4.24-7.57-10.1-20.18-3-6.34-10.44-21.94-12.59-26.32a18.19,18.19,0,0,0-2.47-4.06c-.86-.67-1.13-.52-8.06,5.4-2,1.8-9.68,8.14-16.94,14.16-11.94,9.89-22.91,19-24.41,20.34-.33.31-1.45,1.19-2.48,2s-3.44,2.78-5.37,4.43-5.59,4.63-8.12,6.74c-8.82,7.26-16.35,13.55-16.62,13.86-.16.15-5,4.22-10.75,9s-11.56,9.62-12.9,10.76-3.45,2.93-4.57,3.91-3.5,2.94-5.17,4.38-5.1,4.32-7.74,6.43-7.58,6.29-11,9.27-7.9,6.8-10,8.45-4,3.34-4.3,3.65-3.66,3.25-7.53,6.44-7.85,6.59-8.87,7.47-3.33,2.88-5.11,4.42-3.33,2.84-3.49,3-2.32,2-4.84,4.12-4.68,3.92-4.84,4.12-2,1.8-4.25,3.61C.86,192.37-3.6,197.26,4,191.54c1.78-1.34,6-4.43,9.36-6.9s11-8.13,16.88-12.56L45.28,160.9c2.36-1.69,6.5-4.78,9.14-6.79s7.15-5.41,10-7.52c7.21-5.3,14.84-11.07,28.71-21.57,6.51-5,15.81-12,20.7-15.66s10.49-8,12.59-9.52,4.35-3.35,5.16-3.92,5.05-3.81,9.46-7.21,9.3-7.15,10.92-8.34,5.91-4.43,9.51-7.21S171.15,65.8,174.91,63s9-6.85,11.67-9l4.78-3.86.92,1.13A55.66,55.66,0,0,1,195.51,58c3.6,8.24,8.6,19.67,9.73,22,.59,1.13,1.5,3.35,2.15,4.89s1.88,4.33,2.79,6.23l1.62,3.4,6,.31c3.28.16,12.85.52,21.29.83s17.91.66,21,.82c4.25.2,5.87.1,6.19-.36a56.23,56.23,0,0,0,.8-8.39c.22-4.28.7-11.95,1-17,.7-10.76.91-14.47,1-20,.05-5.15.86-5.56,4-2.11,1.23,1.34,3.33,3.66,4.67,5.1,4,4.38,5.17,5.66,9.79,10.92,2.42,2.78,4.95,5.61,5.59,6.33l4.63,5.15c1.93,2.11,8.55,9.52,14.73,16.42s12.58,14.11,14.14,16,5.38,6.07,8.33,9.32,6.3,6.84,7.32,8c3.12,3.6,10.37,11.79,10.75,12,.16.15,1.72,1.85,3.5,3.86s3.49,3.81,3.81,4.12,1.4,1.54,2.48,2.83,3.33,3.86,5.05,5.72,4.25,4.63,5.59,6.18c2.1,2.36,6.67,7.41,7.53,8.18.16.16,2.31,2.58,4.84,5.41s6.94,7.77,9.84,11l5.32,5.82-.86,5.25c-.43,2.88-1.45,9.63-2.2,15s-1.72,12.1-2.15,14.94C394.34,235.72,394,238,393.16,244c-.49,3.24-1.08,7.42-1.35,9.27s-.64,4.38-.8,5.66-.54,3.71-.81,5.41-1,6.9-1.72,11.53l-1.24,8.45L380,290.77c-4,3.55-11,9.73-15.6,13.69s-9.62,8.4-11.24,9.84-4.62,4.07-6.61,5.77l-3.6,3.19-2.58-1.08c-1.4-.57-5.22-2.42-8.5-4S311.22,308,293.15,299.31,260,283.25,259.54,283s-4.89-2.37-9.94-4.79-10.33-4.89-11.83-5.66c-16.19-7.93-41.94-19.88-43-19.88a19,19,0,0,0-5.27,2.27c-2.15,1.24-7.32,4.17-11.46,6.49s-9.57,5.46-12.09,6.95-8.82,5.05-14,7.93-10,5.71-10.76,6.18c-1.4.87-32.8,19-55.27,31.82-7,4-13.82,8-15.16,8.8-3.71,2.42-7.53,4.18-8.23,3.92a3.74,3.74,0,0,1-1.4-1.91c-.75-1.64-3-6.33-7.31-15-1.24-2.58-3-6-3.77-7.73S46.94,296,45,292s-4.19-8.44-4.84-9.78-3-6.13-5.32-10.66S29.41,260.85,28,257.86c-18.17-36.56-27.74-55-28-54-.16.62,7.69,20.18,11.62,29,.27.57.91,2.06,1.39,3.35,1.19,2.93,2.37,5.61,3,6.95.27.56,1.67,3.91,3.17,7.46s4.74,11.44,7.32,17.51,5.7,13.49,7,16.48c2.25,5.41,8,18.95,8.87,20.85.27.57,1.34,3.09,2.42,5.67s2.42,5.66,3,6.95,2.84,6.64,5.16,11.94,4.41,10.1,4.78,10.56c.65.82,1.08.67,5.7-1.65,2.8-1.34,5.92-2.93,6.94-3.5s3.71-2,5.91-3.09,5.86-3,8.07-4.22,6-3.14,8.33-4.38,9.9-5.15,16.67-8.75,14.3-7.52,16.67-8.75,6.72-3.45,9.68-5c12.15-6.39,15.75-8.29,19.08-10,6.89-3.55,10-5.2,11.94-6.44,1.13-.61,2.15-1.18,2.26-1.18s5.65-2.88,15.65-8.24c1.77-1,4.89-2.63,6.93-3.66l3.77-1.9,5.1,2.57c2.85,1.45,8,4.07,11.4,5.87s8.18,4.23,10.49,5.41,6,3,8,4.07l7.8,4c2.2,1.14,7.31,3.71,11.29,5.77s9.3,4.79,11.83,6.08c6.23,3.14,20.91,10.61,25.81,13.13,2.2,1.13,6.72,3.4,9.94,5,6,3,22,11.07,29.31,14.83,13.22,6.8,17.58,8.91,18.71,9.22.86.21,1.88-.26,3.76-1.7a39.26,39.26,0,0,0,3.07-2.57c.32-.36,5.27-4.59,11-9.48s12.42-10.55,14.79-12.61,5.37-4.64,6.72-5.72,3.65-3.09,5.1-4.38c7-6.18,11.51-10,14.09-11.94a11.49,11.49,0,0,0,3.07-3.2c.16-.56,1.29-7.41,2.47-15.19,3.5-23.11,8-52.36,8.82-58.18.48-3,1.07-7.16,1.4-9.27s1.23-8.6,2.15-14.42S423,186,423,185.41c0-1.13-.43-1.64-7.8-9.62-2.36-2.58-5.64-6.18-7.26-8s-3.87-4.37-5.1-5.66-3.5-3.86-5.17-5.66-4.83-5.31-7-7.73-7.2-8-11.13-12.36-8.71-9.63-10.54-11.58c-4.14-4.48-24.3-26.47-32.26-35.27-7-7.73-12.63-13.86-17.2-18.8-1.83-2-5-5.46-7-7.72s-4.79-5.31-6.13-6.7c-2.64-2.78-3.23-3.45-12.59-13.64-3.28-3.55-6.29-6.8-6.77-7.26s-1.94-2.06-3.28-3.55c-2.26-2.58-14.95-16.43-15.59-17-.16-.15-1.72-1.9-3.44-3.86s-3.55-4-4-4.38-2-2.11-3.44-3.75C254.33-.42,253.31-.78,252.88,1.28Z"/><path class="cls-1" d="M189.81,126.92a49.1,49.1,0,0,0-3,4.79c-1,1.85-2.58,4.48-3.5,5.92a33.24,33.24,0,0,0-2,3.61c-.48,1.18-1,88-.53,89.44.27.77,1,.92,5,.92,3,0,4.89-.2,5.16-.56.43-.67.49-104.94.06-105.3C190.93,125.58,190.34,126.1,189.81,126.92Z"/><path class="cls-1" d="M122.81,131.61l-2,.15.16,5,.16,5,18,.26c9.9.15,18.07.36,18.18.41.37.31,0,1.18-.86,2s-7.69,9.37-17.32,21.68c-1.93,2.47-4.62,5.87-6,7.56a15.79,15.79,0,0,0-2.58,3.61,9.5,9.5,0,0,0,1.93,2.52c2,2.11,2,2.11,7.21.83a24.71,24.71,0,0,1,6.51-.36A21.25,21.25,0,0,1,166,197.41c1.29,6-1.29,13.18-6.34,18a21.74,21.74,0,0,1-29.63-.2c-2.47-2.27-6-7.88-6-9.48,0-1.28-1.24-1.34-3.77-.15-1.34.62-3.28,1.44-4.3,1.85-3.06,1.19-3.06,1.08.22,7.73,2.58,5.25,8.44,10.6,15,13.64,4.89,2.32,5.49,2.42,10.7,2.68,7.42.36,11.78-.36,17.26-2.89a31.48,31.48,0,0,0,14.73-14.05,26.07,26.07,0,0,0,2.26-5.2,27,27,0,0,1,.81-3.81c2.31-8.35-2.21-20.86-10.06-27.76-3.87-3.4-11.77-7.41-14.67-7.41-1.56,0-.76-2.06,2.41-6,6.62-8.18,9.58-11.89,15.33-19.2,3.22-4.12,6.77-8.55,8-9.94s2-2.73,1.82-3.14c-.26-.57-4.89-.72-27.63-.67C137.17,131.4,123.94,131.5,122.81,131.61Z"/><path class="cls-1" d="M202,132.07c-.33.31-.49,2.63-.38,5.15l.16,4.53,17.75.15c9.73.06,17.9.31,18.17.57s-3.33,5.15-8,10.92-10,12.56-12,15.08-4.25,5.36-5.05,6.23a6,6,0,0,0-1.51,2.37,8.93,8.93,0,0,0,1.88,2.78l1.83,2.06,3.66-.92c6.93-1.7,12.58-.93,18.17,2.47a20.53,20.53,0,0,1,7.91,8.65c1.39,2.68,1.72,3.91,1.93,7.72.27,4.59.22,4.69-2.31,10.4-1.29,3-5.54,6.85-9.57,8.76a21.85,21.85,0,0,1-24.2-3.81c-2.15-2-5.37-7.06-6-9.48-.21-.77-.59-1.39-.86-1.39-.91,0-9,4-9.41,4.69-.21.31.7,2.68,2,5.3a29.06,29.06,0,0,0,6.13,8.24,32.67,32.67,0,0,0,4.73,4,27.85,27.85,0,0,1,2.69,1.44,33,33,0,0,0,5.11,2.21c4.73,1.6,15.86,1.75,20.43.21a33.89,33.89,0,0,0,15.27-10c6.5-8,8.76-17.77,6.18-27.14-2.79-10.3-10.43-18.64-19.84-21.57-5.11-1.6-5.48-1.76-5.16-2.63s5.43-7.31,18.87-24.1c10.7-13.28,10.16-12.61,9.73-13.08C259.7,131.19,202.49,131.4,202,132.07Z"/><path class="cls-1" d="M285,132.74a34.8,34.8,0,0,0-4.84,1.7c-.86.41-2.37,1.18-3.39,1.65a41.2,41.2,0,0,0-6.18,5.09c-5,4.84-7.42,9.12-8.77,15.35-1,4.58-.7,5.25,2.64,6.07,1,.26,2.85.72,4.14,1.09,1.5.41,2.52.41,2.85.1a12.58,12.58,0,0,0,1.07-4.07c1.45-8.86,8.6-15.7,18.07-17.2,4.19-.67,7.26-.2,11.72,1.8,7.31,3.35,11.94,9.43,12.47,16.43a22.58,22.58,0,0,1-.37,6.54c-1.19,4.89-2.42,6.59-12.91,17.71-1.61,1.75-4.14,4.53-5.64,6.18-3.77,4.28-7.91,8.65-8.66,9.27-.38.26-2.15,2.27-4,4.38s-5.16,5.76-7.37,8.13-4.62,5-5.32,5.87a13.75,13.75,0,0,1-1.67,1.91,37.51,37.51,0,0,0-3,3c-2.25,2.48-2.47,2.94-2.36,5.15l.11,2.48,30.11.15c16.56.05,30.64,0,31.34-.15,1.13-.26,1.19-.52,1.19-4.9,0-2.62-.22-4.73-.54-4.89s-9.57-.41-20.59-.41c-19.31-.1-20-.15-20.17-1.08a1.62,1.62,0,0,1,.54-1.55c.43-.31,3-3,5.81-6.12s6.56-7.11,8.33-9.07,4.84-5.2,6.78-7.31C320,181.4,321.7,179.29,323.74,174.5c4.79-11.33,2-24.51-7.09-33.68-2.32-2.31-8.23-6.12-10.87-7C298.79,131.45,290.94,131,285,132.74Z"/><path class="cls-1" d="M387.24,348.69c-1.45.36-4.62,1.09-7,1.55-16.18,3.35-20.64,4.43-35.21,8.6-10.11,2.88-18.5,5.92-19.47,7-.48.57-.48,1.19.06,2.63,2.63,7.1,11.66,23.89,19.62,36.3,1.94,3.09,3.55,5.71,3.55,5.87a14.92,14.92,0,0,0,1.61,2.21,12.39,12.39,0,0,1,1.67,2.37c.05.77,5,7.57,5.64,7.78,1.08.36,16.19-29.82,22.8-45.42C384.88,367.33,387,362,387,361.41a3.53,3.53,0,0,1,.53-1.49,84.82,84.82,0,0,0,4.3-11.23C391.81,347.82,390.85,347.82,387.24,348.69ZM365.9,367.28c.16.16,0,.78-.32,1.44-1.67,3.15-6.62,14-8.18,17.87a23.78,23.78,0,0,1-2.74,5.36c-.91,1-1,.92-3.76-2.06-3.88-4.12-20.87-20.24-22.37-21.17-3.07-1.9-1.94-2.05,18-1.85C357,367,365.79,367.13,365.9,367.28Z"/><path class="cls-1" d="M503.51,106.59H479.35v79.06h-4.46V106.59H450.84v-4.45h52.67Z"/><path class="cls-1" d="M555.88,146.12h-44.1v39.53h-4.45V102.14h4.45v39.53h44.1V102.14h4.45v83.51h-4.45Z"/><path class="cls-1" d="M613.6,102.14h4.46v59.24a24.28,24.28,0,0,1-48.55,0V102.14H574v59.24a19.82,19.82,0,0,0,39.64,0Z"/><path class="cls-1" d="M627.23,102.14h4.45L686.58,178V102.14H691v83.51h-4.46l-54.9-75.72v75.72h-4.45Z"/><path class="cls-1" d="M700.43,102.14h18.15a41.76,41.76,0,1,1,0,83.51H700.43Zm18.15,4.45h-13.7V181.2h13.7a37.31,37.31,0,1,0,0-74.61Z"/><path class="cls-1" d="M767,102.14H815.4v4.45h-44v35.08h35.07v4.45H771.42V181.2h44v4.45H767Z"/><path class="cls-1" d="M842.05,166.28a16.6,16.6,0,0,0-11.7-5.13h-6.68v24.5h-4.45V102.14h19a29.5,29.5,0,0,1,4.34,58.68l2.56,2.23,22.61,22.6h-6.35Zm-18.38-9.58h14.59a25.06,25.06,0,1,0,0-50.11H823.67Z"/><path class="cls-1" d="M901.17,102.14h18.15a41.76,41.76,0,1,1,0,83.51H901.17Zm18.15,4.45H905.63V181.2h13.69a37.31,37.31,0,1,0,0-74.61Z"/><path class="cls-1" d="M1007,102.14a41.76,41.76,0,1,1-41.76,41.75A41.76,41.76,0,0,1,1007,102.14Zm0,79.06a37.31,37.31,0,1,0-37.31-37.31A37.45,37.45,0,0,0,1007,181.2Z"/><path class="cls-1" d="M1096.41,118.51,1077,185.65h-4.68l-23.94-83.51h4.68l21.6,75.38,20.38-70.93h2.56l20.49,70.93,21.61-75.38h4.67l-23.94,83.51h-4.68Z"/><path class="cls-1" d="M1148.1,102.14h4.46l54.9,75.83V102.14h4.45v83.51h-4.45l-54.9-75.72v75.72h-4.46Z"/><path class="cls-1" d="M494.94,235.76h4.45V295a24.28,24.28,0,1,1-48.55,0V235.76h4.45V295a19.83,19.83,0,0,0,39.65,0Z"/><path class="cls-1" d="M508.56,235.76H513l54.9,75.83V235.76h4.45v83.52h-4.45L513,243.55v75.73h-4.46Z"/><path class="cls-1" d="M581.76,235.76h18.15a41.76,41.76,0,0,1,0,83.52H581.76Zm18.15,4.45H586.22v74.61h13.69a37.31,37.31,0,1,0,0-74.61Z"/><path class="cls-1" d="M648.3,235.76h48.44v4.45h-44v35.08h35.08v4.45H652.75v35.08h44v4.46H648.3Z"/><path class="cls-1" d="M723.38,299.9a16.58,16.58,0,0,0-11.69-5.12H705v24.5h-4.46V235.76h19a29.5,29.5,0,0,1,4.35,58.68l2.56,2.23,22.6,22.61h-6.34ZM705,290.32h14.58a25.06,25.06,0,1,0,0-50.11H705Z"/></svg>