<?xml version="1.0" standalone="no"?>
<!DOCTYPE svg PUBLIC "-//W3C//DTD SVG 20010904//EN"
 "http://www.w3.org/TR/2001/REC-SVG-20010904/DTD/svg10.dtd">
<svg version="1.0" xmlns="http://www.w3.org/2000/svg"
 width="900.000000pt" height="900.000000pt" viewBox="0 0 900.000000 900.000000"
 preserveAspectRatio="xMidYMid meet">
<metadata>
Created by potrace 1.15, written by Peter Selinger 2001-2017
</metadata>
<g transform="translate(0.000000,900.000000) scale(0.100000,-0.100000)"
fill="#1C3B1E" stroke="none">
<path d="M5416 8663 c-3 -16 -8 -140 -11 -278 -2 -137 -7 -284 -10 -325 -3
-41 -7 -147 -10 -235 -13 -519 -19 -661 -28 -672 -7 -10 -69 -13 -251 -13
-132 0 -246 4 -253 8 -12 8 -79 147 -188 392 -55 123 -194 426 -234 511 -17
37 -38 72 -46 79 -16 13 -21 10 -150 -105 -38 -35 -180 -158 -315 -275 -222
-192 -426 -369 -454 -395 -6 -6 -27 -23 -46 -39 -19 -16 -64 -54 -100 -86 -36
-31 -104 -90 -151 -131 -164 -141 -304 -263 -309 -269 -3 -3 -93 -82 -200
-175 -107 -93 -215 -187 -240 -209 -25 -23 -64 -57 -85 -76 -22 -19 -65 -57
-96 -85 -30 -27 -95 -84 -144 -125 -49 -41 -141 -122 -204 -180 -64 -58 -147
-132 -186 -164 -38 -33 -74 -65 -80 -71 -5 -6 -68 -63 -140 -125 -71 -62 -146
-128 -165 -145 -19 -18 -62 -56 -95 -86 -33 -29 -62 -55 -65 -59 -3 -3 -43
-39 -90 -80 -47 -40 -87 -76 -90 -80 -3 -4 -38 -35 -79 -70 -172 -148 -255
-243 -114 -132 33 26 112 86 174 134 63 49 204 158 314 244 110 85 236 183
280 217 44 33 121 93 170 132 50 40 133 105 187 146 134 103 276 215 534 419
121 96 294 233 385 304 90 71 195 155 234 185 38 31 81 65 96 76 15 11 94 74
176 140 81 66 173 139 203 162 30 23 110 86 177 140 67 54 179 143 249 198 70
55 167 133 217 174 l89 75 17 -22 c9 -12 36 -71 60 -130 67 -160 160 -382 181
-428 11 -22 28 -65 40 -95 12 -30 35 -84 52 -121 l30 -66 112 -6 c61 -3 239
-10 396 -16 157 -6 333 -13 391 -16 79 -4 109 -2 115 7 4 7 11 80 15 163 4 83
13 232 19 331 13 209 17 281 19 388 1 100 16 108 74 41 23 -26 62 -71 87 -99
75 -85 96 -110 182 -212 45 -54 92 -109 104 -123 12 -14 51 -59 86 -100 36
-41 159 -185 274 -319 115 -135 234 -274 263 -310 30 -36 100 -118 155 -181
56 -63 117 -133 136 -156 58 -70 193 -229 200 -234 3 -3 32 -36 65 -75 33 -38
65 -74 71 -80 5 -5 26 -30 46 -55 19 -25 62 -75 94 -111 33 -36 79 -90 104
-120 39 -46 124 -144 140 -159 3 -3 43 -50 90 -105 47 -55 129 -151 183 -213
l99 -113 -16 -102 c-8 -56 -27 -187 -41 -292 -14 -104 -32 -235 -40 -290 -28
-185 -34 -230 -50 -345 -9 -63 -20 -144 -25 -180 -5 -36 -12 -85 -15 -110 -3
-25 -10 -72 -15 -105 -5 -33 -19 -134 -32 -224 l-23 -164 -135 -126 c-75 -69
-205 -189 -290 -266 -84 -77 -179 -163 -209 -191 -31 -28 -86 -79 -123 -112
l-67 -62 -48 21 c-26 11 -97 47 -158 78 -60 32 -384 197 -720 366 -335 170
-617 312 -625 316 -8 5 -91 46 -185 93 -93 46 -192 95 -220 110 -301 154 -780
386 -799 386 -13 0 -57 -20 -98 -44 -40 -24 -136 -81 -213 -126 -77 -46 -178
-106 -225 -135 -47 -28 -164 -98 -260 -154 -96 -57 -186 -111 -200 -120 -26
-17 -610 -369 -1028 -618 -130 -78 -257 -155 -282 -171 -69 -47 -140 -81 -153
-76 -7 2 -19 19 -26 37 -14 32 -56 123 -136 292 -23 50 -55 117 -70 150 -15
33 -59 124 -96 203 -38 78 -78 164 -90 190 -12 26 -56 119 -99 207 -43 88
-100 207 -127 265 -338 710 -516 1069 -520 1049 -3 -12 143 -392 216 -564 5
-11 17 -40 26 -65 22 -57 44 -109 55 -135 5 -11 31 -76 59 -145 27 -69 88
-222 136 -340 48 -118 106 -262 130 -320 42 -105 149 -368 165 -405 5 -11 25
-60 45 -110 20 -49 45 -110 55 -135 10 -25 53 -129 96 -232 42 -104 82 -196
89 -205 12 -16 20 -13 106 32 52 26 110 57 129 68 19 11 69 38 110 60 41 22
109 59 150 82 41 23 111 61 155 85 44 24 184 100 310 170 127 70 266 146 310
170 44 23 125 67 180 98 226 124 293 161 355 194 128 69 186 101 222 125 21
12 40 23 42 23 4 0 105 56 291 160 33 19 91 51 129 71 l70 37 95 -50 c53 -28
148 -79 212 -114 64 -35 152 -82 195 -105 44 -23 111 -58 149 -79 39 -21 104
-56 145 -78 41 -22 136 -72 210 -112 74 -40 173 -93 220 -118 116 -61 389
-206 480 -255 41 -22 125 -66 185 -97 112 -58 410 -215 545 -288 246 -132 327
-173 348 -179 16 -4 35 5 70 33 26 21 52 44 57 50 6 7 98 89 205 184 107 95
231 205 275 245 44 40 100 90 125 111 25 22 68 60 95 85 130 120 214 194 262
232 28 23 54 51 57 62 3 11 24 144 46 295 65 449 148 1017 164 1130 9 58 20
139 26 180 5 41 23 167 40 280 16 113 30 215 30 227 0 22 -8 32 -145 187 -44
50 -105 120 -135 156 -30 36 -72 85 -95 110 -22 25 -65 75 -96 110 -31 36 -90
103 -131 150 -40 47 -134 155 -207 240 -74 85 -162 187 -196 225 -77 87 -452
514 -600 685 -130 150 -235 269 -320 365 -34 39 -93 106 -130 150 -38 44 -89
103 -114 130 -49 54 -60 67 -234 265 -61 69 -117 132 -126 141 -9 9 -36 40
-61 69 -42 50 -278 319 -290 330 -3 3 -32 37 -64 75 -33 39 -66 77 -75 85 -9
9 -38 41 -64 73 -54 63 -73 70 -81 30z"/>
<path d="M4243 6223 c-11 -15 -36 -57 -55 -93 -19 -36 -48 -87 -65 -115 -16
-27 -33 -59 -37 -70 -9 -23 -19 -1710 -10 -1737 5 -15 18 -18 94 -18 55 0 91
4 96 11 8 13 9 2038 1 2045 -3 3 -14 -7 -24 -23z"/>
<path d="M2997 6132 l-38 -3 3 -97 3 -97 335 -5 c184 -3 336 -7 338 -8 7 -6 0
-23 -16 -39 -17 -16 -143 -182 -322 -421 -36 -48 -86 -114 -112 -147 -27 -33
-48 -64 -48 -70 0 -5 16 -27 36 -49 38 -41 38 -41 134 -16 26 7 78 10 121 7
186 -12 330 -142 370 -333 24 -116 -24 -256 -118 -349 -153 -150 -395 -148
-551 4 -46 44 -112 153 -112 184 0 25 -23 26 -70 3 -25 -12 -61 -28 -80 -36
-57 -23 -57 -21 4 -150 48 -102 157 -206 280 -265 91 -45 102 -47 199 -52 138
-7 219 7 321 56 116 55 214 153 274 273 23 46 42 92 42 101 0 9 7 42 15 74 43
162 -41 405 -187 539 -72 66 -219 144 -273 144 -29 0 -14 40 45 117 123 159
178 231 285 373 60 80 126 166 148 193 21 26 37 53 34 61 -5 11 -91 14 -514
13 -279 -1 -525 -3 -546 -5z"/>
<path d="M4469 6123 c-6 -6 -9 -51 -7 -100 l3 -88 330 -3 c181 -1 333 -6 338
-11 4 -4 -62 -100 -148 -212 -86 -112 -186 -244 -223 -293 -37 -49 -79 -104
-94 -121 -16 -18 -28 -39 -28 -46 1 -8 16 -32 35 -54 l34 -40 68 18 c129 33
234 18 338 -48 64 -40 107 -90 147 -168 26 -52 32 -76 36 -150 5 -89 4 -91
-43 -202 -24 -58 -103 -133 -178 -170 -151 -74 -324 -45 -450 74 -40 38 -100
137 -111 184 -4 15 -11 27 -16 27 -17 0 -168 -78 -175 -91 -4 -6 13 -52 38
-103 34 -67 63 -109 114 -160 37 -37 77 -72 88 -77 11 -5 34 -18 50 -28 17
-11 59 -30 95 -43 88 -31 295 -34 380 -4 116 40 216 110 284 195 121 155 163
345 115 527 -52 200 -194 362 -369 419 -95 31 -102 34 -96 51 6 16 101 142
351 468 199 258 189 245 181 254 -13 12 -1077 8 -1087 -5z"/>
<path d="M6013 6110 c-34 -10 -75 -25 -90 -33 -16 -8 -44 -23 -63 -32 -19 -10
-71 -55 -115 -99 -93 -94 -138 -177 -163 -298 -19 -89 -13 -102 49 -118 19 -5
53 -14 77 -21 28 -8 47 -8 53 -2 5 5 15 41 20 79 27 172 160 305 336 334 78
13 135 4 218 -35 136 -65 222 -183 232 -319 3 -44 1 -95 -7 -127 -22 -95 -45
-128 -240 -344 -30 -34 -77 -88 -105 -120 -70 -83 -147 -168 -161 -180 -7 -5
-40 -44 -75 -85 -34 -41 -96 -112 -137 -158 -42 -46 -86 -97 -99 -114 -13 -18
-27 -34 -31 -37 -5 -3 -30 -30 -55 -58 -42 -48 -46 -57 -44 -100 l2 -48 560
-3 c308 -1 570 0 583 3 21 5 22 10 22 95 0 51 -4 92 -10 95 -6 4 -178 8 -383
8 -359 2 -372 3 -375 21 -2 11 2 24 10 30 8 6 56 59 108 119 52 59 122 138
155 176 33 37 90 101 126 142 254 284 285 325 323 418 89 220 37 476 -132 654
-43 45 -153 119 -202 136 -130 46 -276 54 -387 21z"/>
<path d="M7915 1916 c-27 -7 -86 -21 -130 -30 -301 -65 -384 -86 -655 -167
-188 -56 -344 -115 -362 -136 -9 -11 -9 -23 1 -51 49 -138 217 -464 365 -705
36 -60 66 -111 66 -114 0 -3 14 -22 30 -43 17 -21 30 -42 31 -46 1 -15 93
-147 105 -151 20 -7 301 579 424 882 81 199 120 302 120 314 0 6 4 19 10 29
16 28 80 203 80 218 0 17 -18 17 -85 0z m-397 -361 c3 -3 0 -15 -6 -28 -31
-61 -123 -272 -152 -347 -18 -47 -41 -94 -51 -104 -17 -19 -19 -18 -70 40 -72
80 -388 393 -416 411 -57 37 -36 40 334 36 196 -2 359 -5 361 -8z"/>
</g>
</svg>
