<svg xmlns="http://www.w3.org/2000/svg" xmlns:xlink="http://www.w3.org/1999/xlink" width="2910" height="521" viewBox="0 0 2910 521">
  <defs>
    <polygon id="ambasicvector@2x-a" points="0 .11 436.189 .11 436.189 520.94 0 520.94"/>
    <polygon id="ambasicvector@2x-c" points=".23 .49 265.34 .49 265.34 321.999 .23 321.999"/>
  </defs>
  <g fill="none" fill-rule="evenodd">
    <path fill="#A9272B" d="M290.297 209.177C302.603 238.506 308.782 253.263 323.212 277.414L368.453 213.303C370.404 255.483 368.716 302.488 368.568 343.938 389.524 372.759 411.179 395.665 436.189 420.997 435.895 280.558 436.189.437 436.189.437L290.297 209.177M248.7 268.508C255.886 289.438 258.684 296.586 264.009 314.307 219.641 314.538 216.779 314.436 172.18 314.307 177.48 295.187 179.809 288.655 187.56 268.297 210.344 300.898 218.107 312.01 218.107 312.01 218.107 312.01 222.708 305.646 248.7 268.508"/>
    <mask id="ambasicvector@2x-b" fill="#fff">
      <use xlink:href="#ambasicvector@2x-a"/>
    </mask>
    <path fill="#A9272B" d="M0,0.11 L0,420.496 C31.035,389.698 49.989,368.05 67.73,345.76 C67.73,224.428 67.73,213.303 67.73,213.303 C67.73,213.303 98.868,257.53 112.99,277.337 C130.962,245.41 139.188,228.054 146.906,210.152 C29.431,42.04 0,0.11 0,0.11" mask="url(#ambasicvector@2x-b)"/>
    <path fill="#2e3192" d="M218.107,0.11 C189.408,95.456 166.45,182.71 114.78,274.129 C76.212,342.423 43.894,374.453 0,420.496 C0,420.496 1.668,422.37 67.73,521 C94.652,482.156 127.414,420.496 143.48,377.43 C289.501,377.405 160.458,377.43 292.709,377.43 C308.846,420.496 344.893,482.156 368.453,521 C433.334,423.332 436.189,420.997 436.189,420.997 C396.948,375.197 359.868,342.346 321.403,274.129 C269.854,182.71 218.107,0.11 218.107,0.11 Z M218.107,140.376 C218.107,140.376 226.019,200.021 235.297,228.227 C244.606,256.445 264.009,314.307 264.009,314.307 L172.18,314.307 C172.18,314.307 191.653,256.51 200.867,228.227 C210.151,199.835 218.107,140.376 218.107,140.376 Z" mask="url(#ambasicvector@2x-b)"/>
    <path fill="#2e3192" d="M641.67 93.941C595.678 196.313 489.604 382.05 489.604 382.05 522.969 381.408 589.717 382.05 589.717 382.05L627.304 300.076 732.999 300.025 760.018 382.05 856.435 382.05C818.251 283.06 750.983 94.128 750.983 94.128L641.67 93.941zM690.966 157.854L717.651 238.185 653.129 238.185 690.966 157.854zM1421.65 93.89C1392.6 94.512 1336.22 93.954 1336.22 93.954 1336.22 93.954 1335.14 140.157 1333.76 163.256 1330.67 163.327 1327.55 163.102 1324.53 162.627 1298.28 159.695 1271.29 159.676 1245.7 166.701 1221.26 173.156 1199.09 188.607 1185.58 209.992 1173.29 229.478 1165.78 251.967 1163.7 274.847 1161.75 298.254 1165.25 322.713 1176.86 343.386 1188.53 364.085 1208.71 375.993 1231.89 381.126 1256.89 383.847 1276.78 382.025 1300.63 373.94 1310.51 369.064 1320.82 362.776 1328.45 354.935 1328.72 363.674 1327.5 382.05 1327.5 382.05L1406.44 382.05C1408.48 286.717 1421.65 93.89 1421.65 93.89zM1308.66 216.351C1316.12 216.28 1323.56 217.21 1330.71 218.943 1330.67 235.304 1329.77 251.736 1327.98 267.995 1326.14 281.931 1322.64 296.201 1314.3 307.814 1307.46 317.464 1296.13 324.189 1284.1 324.265 1269.9 324.971 1255.58 316.386 1250.13 303.156 1243.85 288.809 1244.97 272.255 1249.99 257.671 1254.2 244.973 1261.54 232.648 1273.23 225.539 1283.9 219.161 1296.27 216.363 1308.66 216.351z"/>
    <polyline fill="#2e3192" points="1730.87 93.954 1848.55 94.025 1887.52 272.486 1946.05 93.993 2065.63 93.941 2058.29 382.05 1978.93 382.05 1985.2 179.207 1918.55 382.05 1840.39 382.05 1794.06 178.334 1781.92 382.05 1706.03 382.05 1730.87 93.954"/>
    <path fill="#2e3192" d="M2564.32 93.993L2649.24 93.941 2636.1 382.05 2551.2 382.05C2551.2 382.05 2557.64 306.749 2559.42 269.175 2562.44 210.807 2564.32 93.993 2564.32 93.993M1009.42 166.945C1034.63 159.092 1062.29 158.931 1087.58 166.554 1103.21 171.135 1117.32 181.87 1124.43 196.742 1129.18 207.015 1129.95 218.577 1130.34 229.715 1127.93 280.443 1123.51 382.05 1123.51 382.05L1037.94 382.05C1037.94 382.05 1043.06 311.099 1044.19 275.579 1044.19 263.895 1043.98 251.249 1037.23 241.207 1029.38 230.248 1014.11 226.54 1001.64 230.749 988.25 234.925 978.17 246.308 973.229 259.153 968.956 270.311 967.352 282.265 965.883 294.032 962.957 323.226 960.987 382.05 960.987 382.05L873.656 382.05C873.656 382.05 883.902 266.359 885.885 208.259 886.231 194.349 886.661 166.439 886.661 166.439 915.06 166.83 943.433 166.701 971.818 166.439 971.818 166.439 970.079 184.853 969.989 194.106 980.538 181.908 993.871 171.835 1009.42 166.945M2134.12 173.984C2171.52 165.919 2209.78 160.138 2248.23 161.119 2264.78 162.127 2281.52 164.353 2296.86 170.923 2307.39 175.672 2317.52 182.922 2322.6 193.528 2329.56 207.522 2327.66 223.563 2327.04 238.621 2323.3 285.344 2319.69 382.05 2319.69 382.05L2236.4 382.05 2242.58 284.793C2242.58 284.793 2213.4 294.828 2198.81 299.756 2193.42 301.513 2188.25 304.131 2183.96 307.801 2177.51 312.858 2175.1 322.777 2179.83 329.706 2182.96 334.891 2189.13 337.47 2195.02 337.945 2205.06 339.51 2214.95 336.726 2224.51 333.98 2218.74 349.43 2214.63 363.61 2210.27 379.509 2192.02 382.358 2172.1 383.064 2153.73 380.741 2138.87 378.714 2124.52 375.942 2113.69 365.239 2097.83 348.904 2090.52 323.585 2098.99 302.052 2105.77 284.421 2120.62 270.33 2137.96 262.804 2160.86 252.653 2185.85 248.56 2210.19 243.465 2218.51 241.265 2227.43 239.827 2234.71 235.156 2241.32 231.082 2243.8 221.368 2238.89 215.106 2233.75 208.445 2224.64 207.284 2216.74 207.092 2185.25 206.886 2154.91 216.934 2125.59 227.245 2129.3 209.62 2131.79 191.789 2134.12 173.984M2478.01 169.525C2492.53 160.555 2510.73 159.047 2527.08 163.243 2526.89 186.823 2528.91 210.396 2529.53 233.938 2515.07 229.857 2498.99 228.881 2484.91 234.817 2470.47 240.925 2460.78 254.944 2456.96 269.792 2453.68 283.368 2452.93 297.381 2452.19 311.292 2451.31 334.878 2452.24 382.05 2452.24 382.05L2366.7 382.05C2366.7 382.05 2372.81 302.591 2373.99 262.804 2375.63 230.735 2374.86 166.516 2374.86 166.516L2456.14 166.439C2456.14 166.439 2455.5 181.748 2455.27 189.441 2462.35 182.267 2469.05 174.452 2478.01 169.525M1440.4 166.49L1525.27 166.413 1561.38 314.166 1613.12 166.701 1695.44 166.387C1695.44 166.387 1619.77 340.704 1586.22 418.302 1579.81 433.714 1572.08 449.19 1559.69 460.713 1545.01 474.585 1524.86 480.937 1505.24 483.401 1482.1 485.891 1458.71 483.016 1436.08 478.114 1433.34 457.146 1427.19 415.261 1427.19 415.261 1427.19 415.261 1457.44 427.182 1473.59 425.757 1482.23 424.705 1491.25 422.177 1497.31 415.543 1505.1 407.228 1511.67 397.321 1513.95 385.989 1490.26 312.575 1440.4 166.49 1440.4 166.49"/>
    <g transform="translate(2644 166)">
      <mask id="ambasicvector@2x-d" fill="#fff">
        <use xlink:href="#ambasicvector@2x-c"/>
      </mask>
      <polyline fill="#2e3192" points="63.66 .49 157.05 .516 84.98 96.073 156 216.05 64.84 215.922 .23 95.226 63.66 .49" mask="url(#ambasicvector@2x-d)"/>
      <path fill="#2e3192" d="M209.38,211.892 C207.35,211.957 205.34,212.098 203.34,212.38 C186.26,214.562 170.46,224.982 162.24,240.15 C149.63,261.811 154.87,291.531 173.45,308.059 C180.65,313.937 189.11,318.659 198.33,320.481 C225.09,327.41 255.28,309.856 262.71,283.292 C267.67,268.869 265.36,252.597 257.97,239.521 C248.6,222.197 228.87,211.584 209.38,211.892 Z M211.26,223.364 C222.68,223.609 233.92,228.472 241.78,236.852 C253.46,248.824 257.09,267.662 250.73,283.112 C243.65,301.258 223.24,313.218 203.95,309.984 C184.4,307.34 168.13,290.145 166.88,270.434 C164.6,248.49 181.56,226.958 203.34,223.955 C205.94,223.506 208.59,223.288 211.26,223.364 Z" mask="url(#ambasicvector@2x-d)"/>
    </g>
    <polyline fill="#A9272B" points="183.293 377.43 252.941 377.43 218.107 426.784 183.293 377.43"/>
    <path fill="#A9272B" d="M2837.5 408.793C2837.5 408.793 2858.67 408.691 2866.63 408.703 2874.63 408.729 2879.16 413.439 2879.25 421.189 2879.35 428.914 2871.04 435.279 2871.04 435.279L2879.42 456.042 2861.39 456.042 2852.82 429.171C2852.82 429.171 2858.71 429.402 2861.1 427.708 2862.75 426.04 2862.58 423.653 2861.86 421.728 2858.59 419.906 2853.79 419.803 2851.19 421.266 2850.62 432.828 2850.23 455.965 2850.23 455.965L2832.68 455.927 2837.5 408.793M486.531 418.597L1404.52 418.661 1404.57 445.353C1099.65 445.353 486.499 445.263 486.499 445.263L486.531 418.597M1630.83 445.34L1630.83 418.584C1630.83 418.584 2396.12 418.674 2791.45 418.546L2791.36 445.404C2403.71 445.353 1630.83 445.34 1630.83 445.34"/>
  </g>
</svg>
