<svg id="Layer_1" data-name="Layer 1" xmlns="http://www.w3.org/2000/svg" viewBox="0 0 2279.41 355.53"><defs><style>.cls-1{fill:#cc1e4c;}.cls-1,.cls-2{fill-rule:evenodd;}.cls-2{fill:#fff;}</style></defs><title>bae-systems-logo-svg-vector</title><path class="cls-1" d="M0,0H2279.41V355.53H0Z"/><path class="cls-2" d="M145.16,92.57h82c12.62,0,26.29,1.05,36.83,9.46,11.56,7.36,17.87,21,17.87,35.76,0,17.89-11.57,32.61-28.41,36.81,18.94,3.16,32.62,17.88,32.62,38.91,0,13.68-5.26,30.53-16.83,38.93-13.67,9.47-31.56,9.47-47.33,9.47H145.16Zm68.37,65.21c4.22,0,10.52,0,14.72-3.15,3.16-3.17,4.21-7.37,4.21-11.59,0-11.57-10.52-13.67-20-13.67h-20v28.41Zm1.05,66.27c5.27,0,11.57,1,15.78-3.16,3.15-2.1,5.26-6.31,5.26-11.58s-3.16-10.52-7.37-13.66c-5.25-2.1-10.51-2.1-15.77-2.1h-20v30.5Zm218.79,5.26H388.15l-9.47,32.63H335.55l52.6-169.36h54.69l53.64,169.36H442.84ZM425,191.46l-13.67-48.4-13.67,48.4Zm251.41,70.46H549.08V92.57H676.36v38.92H599.57v25.24h62.06V194.6H599.57V222h76.79Zm177.76-57.85c4.21,15.78,15.79,21,30.51,21,6.31,0,20-1,20-10.52,0-10.52-12.62-12.62-21-13.68-31.56-6.3-69.43-14.72-69.43-54.69,0-16.83,8.42-33.66,22.09-43.13s31.57-12.62,48.38-12.62c29.45,0,57.85,12.62,68.37,41l-43.12,13.67c-5.27-12.61-14.72-16.82-27.36-16.82-7.35,0-16.82,2.12-16.82,10.52s12.62,10.52,18.93,12.62c15.78,3.17,32.61,5.27,47.34,12.62,16.82,9.47,25.25,25.27,25.25,43.13,0,41-40,57.85-75.75,57.85-34.7,0-66.26-14.72-75.73-51.55l48.39-9.44Zm253.51-13.67v71.52h-50.5V190.4l-56.8-97.83h56.8l29.45,55.74L1115,92.57h46.29ZM1236,204.07c5.27,15.78,15.79,21,31.57,21,6.31,0,20-1,20-10.52,0-10.52-13.68-12.62-21-13.68-31.54-6.3-69.42-14.72-69.42-54.69,0-16.83,8.41-33.66,22.09-43.13s31.54-12.62,48.38-12.62c29.44,0,57.86,12.62,68.36,41l-43.13,13.67c-5.24-12.61-14.73-16.82-27.33-16.82-7.37,0-16.85,2.12-16.85,10.52s11.58,10.52,19,12.62c15.78,3.17,32.61,5.27,47.31,12.62,16.85,9.47,25.26,25.27,25.26,43.13,0,41-40,57.85-75.75,57.85s-67.3-14.72-75.74-51.55l47.36-9.44Zm234.57,57.85h-49.45V133.59h-35.74v-41h119.9v41h-34.71V261.92Zm218.79,0H1562V92.57h127.27v38.92h-75.74v25.24h61V194.6h-61V222h75.74Zm251.39,0h-48.39V141l-30.49,121h-33.67l-31.54-121h-1.06v121h-38.94V92.57H1825L1849.2,183l23.13-90.45h68.37V261.92Zm99.94-57.85c5.26,15.78,15.78,21,31.57,21,6.3,0,20-1,20-10.52,0-10.52-13.68-12.62-21.05-13.68-31.54-6.3-69.41-14.72-69.41-54.69,0-16.83,8.4-33.66,22.09-43.13s31.54-12.62,48.37-12.62c29.44,0,57.86,12.62,68.37,41l-43.14,13.67c-5.24-12.61-14.72-16.82-27.33-16.82-7.37,0-16.85,2.12-16.85,10.52s11.59,10.52,19,12.62c15.79,3.17,32.61,5.27,47.32,12.62,16.84,9.47,25.25,25.27,25.25,43.13,0,41-41,57.85-75.75,57.85-35.77,0-67.3-14.72-75.74-51.55l47.37-9.44Z"/></svg>