<svg xmlns="http://www.w3.org/2000/svg" width="598.235" height="210"><g fill="#eb192e" transform="matrix(5.8823529,0,0,5.8823529,5,5.0000014)"><path d="m 76.912,32.07 q -0.56,0 -1.029,-0.189 -0.469,-0.189 -0.819,-0.532 -0.343,-0.35 -0.532,-0.819 -0.189,-0.469 -0.189,-1.029 0,-0.56 0.189,-1.029 0.189,-0.469 0.532,-0.812 0.35,-0.35 0.819,-0.539 0.469,-0.189 1.029,-0.189 0.532,0 0.994,0.189 0.469,0.189 0.819,0.539 0.357,0.343 0.553,0.812 0.203,0.469 0.203,1.029 0,0.56 -0.189,1.029 -0.189,0.469 -0.539,0.819 -0.343,0.343 -0.812,0.532 -0.469,0.189 -1.029,0.189 z m 0,-0.371 q 0.448,0 0.84,-0.161 0.392,-0.161 0.693,-0.455 0.301,-0.301 0.469,-0.7 0.168,-0.399 0.168,-0.882 0,-0.455 -0.161,-0.854 -0.161,-0.399 -0.455,-0.7 -0.287,-0.301 -0.686,-0.469 -0.392,-0.175 -0.868,-0.175 -0.63,0 -1.127,0.287 -0.49,0.28 -0.77,0.777 -0.28,0.49 -0.28,1.134 0,0.455 0.161,0.854 0.161,0.399 0.448,0.7 0.294,0.301 0.693,0.476 0.399,0.168 0.875,0.168 z m -0.959,-0.665 v -3.059 h 0.896 q 0.574,0 0.84,0.224 0.266,0.224 0.266,0.679 0,0.329 -0.168,0.525 -0.168,0.189 -0.378,0.273 l 0.812,1.358 h -0.602 l -0.7,-1.211 h -0.434 v 1.211 z m 0.882,-1.645 q 0.273,0 0.427,-0.14 0.154,-0.14 0.154,-0.357 0,-0.245 -0.14,-0.357 -0.14,-0.112 -0.448,-0.112 h -0.343 v 0.966 z" aria-label="®" style="font-size:7px"/><path d="M 0,17 50,0 100,17 50,34"/></g><path fill="#fff" d="m 157.10588,138 h -0.22941 c 0,1.55882 -3.75882,2.79412 -8.4,2.84118 v 4.37647 c 0,0 46.51176,0 60.51765,0 13.0294,0 33.19412,-16.02942 33.19412,-39.80589 0,-21.982347 -17.84706,-41.058819 -33.19412,-41.058819 -13.88824,0 -60.51765,0 -60.51765,0 v 3.92353 c 0.0176,0 0.0353,0 0.0765,0 4.47647,0 8.04117,1.14706 8.49411,2.58235 h 0.0588 v 0.11176 c 0.0176,0.0647 0.0882,0.105884 0.0882,0.182364 0,0.0294 -0.0706,0.0647 -0.0882,0.1353 z m 18.52353,-56.582351 c 0,0 17.78235,0 31.66471,0 6.21176,0 17.71176,8.311762 17.7353,23.658821 0.0236,14.78235 -9.87648,22.35882 -17.7353,22.35882 -13.98236,0 -31.66471,0 -31.66471,0 z m 164.82941,30.600001 c 0,-20.064709 -16.91176,-36.335297 -42.69412,-36.335297 -25.93528,0 -42.70588,16.329408 -42.70588,36.335297 0,20.64117 14.5706,34.24117 37.2353,36.11764 h 10.94706 c 22.6647,-1.87647 37.21764,-15.47647 37.21764,-36.11764 z m -66.67058,0.97059 c 0,-11.27059 9.47646,-20.358829 24.04118,-20.358829 14.57646,0 24.03528,9.088239 24.03528,20.358829 0,11.24705 -9.45882,20.35882 -24.03528,20.35882 -14.55884,0 -24.04118,-9.11177 -24.04118,-20.35882 z m 164.85882,25.77058 c 0,0 23.02352,-51.511759 23.07058,-51.564699 0.70588,-0.97059 1.90588,-1.84118 3.70588,-2.21765 0.59412,-0.11176 3.24118,-0.1 3.24118,-0.1 v -5.023528 l -32.27646,0.12942 v 4.876472 c 0.1588,0 0.9294,0 1.04706,0.0118 3.97058,0.07058 4.49412,1.247056 4.49412,2.688236 l -12.58824,33.005879 -14.25882,-38.529409 -10.65294,0.05882 H 393.24706 L 380.05294,119.0471 369.32942,87.417691 h 0.1588 c 0,-2.476472 1.58824,-2.682354 4.0294,-2.682354 v -4.729412 h -31.44706 v 4.729412 c 4.97648,0 4.65294,1.129414 5.5,2.682354 0.0236,0.0235 -0.0412,0.0647 -0.0412,0.0882 l 19.15882,49.541179 c 0.1882,0.47647 0.1882,0.97058 0.1882,1.52353 0,2.74117 -2.3706,3.21764 -5.18236,3.28823 v 4.63529 l 34.3647,0.12942 v -4.59417 c -0.018,0 -0.018,0 -0.018,0 -3.62354,0 -4.98236,-0.67647 -4.98236,-3.28235 0,-0.41177 0.0706,-0.78235 0.37648,-1.11765 l 12.99412,-28.31765 c 0,0 11.10588,28.37647 11.10588,29.36471 0,2.47647 -0.85294,3.35294 -3.94118,3.35294 v 4.59412 l 31.85882,-0.24118 v -4.5 c -4.84118,0 -4.88236,-1.02941 -4.80588,-3.12353 z" style="stroke-width:5.88236"/></svg>