<svg xmlns="http://www.w3.org/2000/svg" width="600" height="101" fill="none">
	<path fill="#9C67A8" d="M202.5 40h-6.4v-3.8h16.8V40h-6.4v19.5h-4V40Zm26.2 9.3v10.2h-4v-9.2c0-2.3-1.4-3.2-3.1-3.2-2.1 0-3.1 2.1-3.1 2.1v10.4h-4V34.4h4v11.3s1.4-2.3 4.5-2.3 5.7 2.1 5.7 5.9Zm14.2.9c-.1-1.4-1.3-3.2-4-3.2-2.6 0-3.7 1.8-3.9 3.2h7.9Zm4 1.4v1.5h-11.8c.3 1.4 1.9 3.2 4.4 3.2 2.8 0 4.3-1.6 4.3-1.6l2 3s-2.5 2.3-6.3 2.3c-4.8 0-8.5-3.7-8.5-8.3 0-4.6 3.4-8.3 7.9-8.3 4.4 0 8 3.3 8 8.2Zm13.6-15.4h4v23.3h-4V36.2Zm22.1 13.1v10.2h-4v-9.2c0-2.3-1.4-3.2-3.1-3.2-2.1 0-3.1 2-3.1 2v10.4h-4V43.7h3.7V46s1.4-2.7 4.7-2.7c3.1.1 5.8 2.2 5.8 6Zm4 4.9s2.1 2.3 4.8 2.3c1.6 0 3-.5 3-1.4 0-1-.7-1.2-3.1-1.7-3.1-.7-5.9-2-5.9-5 0-2.5 2.5-4.9 6.8-4.9 3.6 0 5.9 1.9 5.9 1.9l-2 2.9s-1.8-1.4-3.9-1.4c-1.5 0-2.9.5-2.9 1.5s1.1 1.2 3.7 1.8c3.1.7 5.4 1.7 5.4 5 0 2.7-2.9 4.9-6.9 4.9-4.6 0-7.1-2.9-7.1-2.9l2.2-3Zm12.9-10.4h3.1v-4.7h4v4.7h4.8v3.6h-4.8v6.4c0 1.9 1 2.5 2.1 2.5.9 0 1.7-.6 1.7-.6l1.5 3.3s-1.5 1-3.8 1c-3.1 0-5.4-2.2-5.4-5.6v-7h-3.1v-3.6h-.1Zm14 0h4v15.8h-4V43.8Zm2-7.8c1.5 0 2.6 1.2 2.6 2.6 0 1.5-1.2 2.6-2.6 2.6-1.5 0-2.6-1.2-2.6-2.6 0-1.4 1.1-2.6 2.6-2.6Zm3.3 7.8h3.1v-4.7h4v4.7h4.8v3.6h-4.8v6.4c0 1.9 1 2.5 2.1 2.5.9 0 1.7-.6 1.7-.6l1.5 3.3s-1.5 1-3.8 1c-3.1 0-5.4-2.2-5.4-5.6v-7h-3.1v-3.6h-.1ZM332.5 54V43.8h4v9.1c0 2.3 1.1 3.3 3.1 3.3 2.1 0 3.1-1.9 3.1-1.9V43.8h4v15.8H343v-2.3s-1.5 2.7-4.7 2.7c-3-.1-5.8-2.2-5.8-6Zm15.9-10.2h3.1v-4.7h4v4.7h4.8v3.6h-4.8v6.4c0 1.9 1 2.5 2.1 2.5.9 0 1.7-.6 1.7-.6l1.5 3.3s-1.5 1-3.8 1c-3.1 0-5.4-2.2-5.4-5.6v-7h-3.1v-3.6h-.1Zm13.9 0h4v15.8h-4V43.8Zm2-7.8c1.5 0 2.6 1.2 2.6 2.6 0 1.5-1.2 2.6-2.6 2.6-1.5 0-2.6-1.2-2.6-2.6 0-1.4 1.2-2.6 2.6-2.6Zm17 15.6c0-2.5-1.7-4.6-4.4-4.6s-4.4 2.1-4.4 4.6c0 2.5 1.7 4.6 4.4 4.6s4.4-2.1 4.4-4.6Zm4 0c0 4.6-3.7 8.3-8.4 8.3s-8.4-3.7-8.4-8.3c0-4.7 3.7-8.3 8.4-8.3 4.7.1 8.4 3.7 8.4 8.3Zm16.7-2.3v10.2h-4v-9.2c0-2.3-1.4-3.2-3.1-3.2-2.1 0-3.1 2-3.1 2v10.4h-4V43.7h3.7V46s1.4-2.7 4.7-2.7c3.1.1 5.8 2.2 5.8 6Zm25.5 2.3c0-2.5-1.7-4.6-4.4-4.6s-4.4 2.1-4.4 4.6c0 2.5 1.7 4.6 4.4 4.6s4.4-2.1 4.4-4.6Zm4.1 0c0 4.6-3.7 8.3-8.4 8.3s-8.4-3.7-8.4-8.3c0-4.7 3.7-8.3 8.4-8.3 4.6.1 8.4 3.7 8.4 8.3Zm.6-7.8h3.1v-3.9c0-4.4 3.1-5.9 5.7-5.9 2.2 0 3.5.8 3.5.8l-1.5 3.4s-.6-.5-1.6-.5c-.8 0-2.1.4-2.1 2.4v3.7h3.9v3.6h-3.9v12.2h-4V47.4h-3.1v-3.6ZM202.1 79h9.3v3.8h-9.3V89h10.3v3.8h-14.3V69.5h14.1v3.8h-10.1V79Zm27.7 3.6v10.2h-4v-9.2c0-2.3-1.4-3.2-3.1-3.2-2.1 0-3.1 2-3.1 2v10.4h-4V77h3.7v2.3s1.4-2.7 4.7-2.7c3 0 5.8 2.2 5.8 6Zm14.5 0s-1.1-2.2-3.8-2.2c-2.7 0-4.3 2-4.3 4.6 0 2.6 1.6 4.6 4.3 4.6 2.6 0 3.8-2.2 3.8-2.2v-4.8Zm-4.4 10.6c-4.1 0-7.7-3.4-7.7-8.3s3.6-8.3 7.7-8.3c3.3 0 4.8 2.5 4.8 2.5V77h3.7v15.9c0 5.5-4.1 7.9-8.5 7.9-4.5 0-7.5-3-7.5-3l2.3-3.1s2.2 2.3 5.2 2.3c3.1 0 4.5-1.7 4.5-4.1V91c-.6.8-2 2.2-4.5 2.2ZM251.8 77h4v15.8h-4V77Zm2-7.7c1.5 0 2.6 1.2 2.6 2.6 0 1.5-1.2 2.6-2.6 2.6-1.5 0-2.6-1.2-2.6-2.6-.1-1.4 1.1-2.6 2.6-2.6Zm19.6 13.3v10.2h-4v-9.2c0-2.3-1.4-3.2-3.1-3.2-2.1 0-3.1 2-3.1 2v10.4h-4V77h3.7v2.3s1.4-2.7 4.7-2.7c3 0 5.8 2.2 5.8 6Zm14.1.9c-.1-1.4-1.3-3.2-4-3.2-2.6 0-3.7 1.8-3.9 3.2h7.9Zm4 1.4v1.5h-11.8c.3 1.4 1.9 3.2 4.4 3.2 2.8 0 4.3-1.6 4.3-1.6l2 3s-2.5 2.3-6.3 2.3c-4.8 0-8.5-3.7-8.5-8.3 0-4.6 3.4-8.3 7.9-8.3 4.4-.1 8 3.3 8 8.2Zm13.4-1.4c-.1-1.4-1.3-3.2-4-3.2-2.6 0-3.7 1.8-3.9 3.2h7.9Zm4 1.4v1.5h-11.8c.3 1.4 1.9 3.2 4.4 3.2 2.8 0 4.3-1.6 4.3-1.6l2 3s-2.5 2.3-6.3 2.3c-4.8 0-8.5-3.7-8.5-8.3 0-4.6 3.4-8.3 7.9-8.3 4.4-.1 8 3.3 8 8.2Zm13.3-7.8-1.4 3.6s-.7-.4-1.9-.4c-2.4 0-3.5 2.1-3.5 2.1v10.3h-4V77h3.8v2.3s1.4-2.7 4.3-2.7c1.4 0 2.7.5 2.7.5Zm1.5-.1h4v15.8h-4V77Zm2-7.7c1.5 0 2.6 1.2 2.6 2.6 0 1.5-1.2 2.6-2.6 2.6-1.5 0-2.6-1.2-2.6-2.6-.1-1.4 1.1-2.6 2.6-2.6Zm19.6 13.3v10.2h-4v-9.2c0-2.3-1.4-3.2-3.1-3.2-2.1 0-3.1 2-3.1 2v10.4h-4V77h3.7v2.3s1.4-2.7 4.7-2.7c3 0 5.8 2.2 5.8 6Zm14.5 0s-1.1-2.2-3.8-2.2c-2.7 0-4.3 2-4.3 4.6 0 2.6 1.6 4.6 4.3 4.6 2.6 0 3.8-2.2 3.8-2.2v-4.8Zm-4.4 10.6c-4.1 0-7.7-3.4-7.7-8.3s3.6-8.3 7.7-8.3c3.3 0 4.8 2.5 4.8 2.5V77h3.7v15.9c0 5.5-4.1 7.9-8.5 7.9-4.5 0-7.5-3-7.5-3l2.3-3.1s2.2 2.3 5.2 2.3c3.1 0 4.5-1.7 4.5-4.1V91c-.6.8-2 2.2-4.5 2.2Zm31.4-5.1v-1.6s-1.4-.8-3.6-.8c-1.2 0-2.9.5-2.9 2.2 0 1.7 1.6 2 2.9 2 2.3 0 3.6-1.8 3.6-1.8Zm4-5.6v10.3h-3.7v-2s-1.6 2.4-5.2 2.4c-3 0-5.7-1.9-5.7-5.3 0-3 2.8-5.2 6.2-5.2 2.9 0 4.4 1.1 4.4 1.1v-.9c0-2.1-2-2.7-3.4-2.7-2.3 0-4.7 1.2-4.7 1.2l-1.3-3.3s2.9-1.4 6.2-1.4c4.5-.1 7.2 2.2 7.2 5.8Zm17.6.1v10.2h-4v-9.2c0-2.3-1.4-3.2-3.1-3.2-2.1 0-3.1 2-3.1 2v10.4h-4V77h3.7v2.3s1.4-2.7 4.7-2.7c3 0 5.8 2.2 5.8 6Zm14.5 0s-1.1-2.2-3.8-2.2c-2.7 0-4.3 2-4.3 4.6 0 2.6 1.6 4.6 4.3 4.6 2.6 0 3.8-2.2 3.8-2.2v-4.8Zm4 10.2h-3.7v-2.1s-1.4 2.5-4.8 2.5c-4.1 0-7.7-3.4-7.7-8.3s3.6-8.3 7.7-8.3c3 0 4.5 2.1 4.5 2.1v-11h4v25.1Zm18.5-19.5H439v-3.8h16.8v3.8h-6.4v19.5h-4V73.3Z"/>
	<path fill="#9C67A8" d="M463.7 83.5c-.1-1.4-1.3-3.2-4-3.2-2.6 0-3.7 1.8-3.9 3.2h7.9Zm4 1.4v1.5h-11.8c.3 1.4 1.9 3.2 4.4 3.2 2.8 0 4.3-1.6 4.3-1.6l2 3s-2.5 2.3-6.3 2.3c-4.8 0-8.5-3.7-8.5-8.3 0-4.6 3.4-8.3 7.9-8.3 4.4-.1 8 3.3 8 8.2Zm13.9 2.7 2.6 2.7s-2.3 3-6.5 3c-4.7 0-8.5-3.7-8.5-8.3 0-4.7 3.8-8.3 8.5-8.3 4.2 0 6.5 2.9 6.5 2.9l-2.8 2.5s-1.3-1.7-3.7-1.7c-2.7 0-4.4 2.1-4.4 4.6 0 2.5 1.7 4.6 4.4 4.6 2.7-.1 3.9-2 3.9-2Zm18.6-5v10.2h-4v-9.2c0-2.3-1.4-3.2-3.1-3.2-2.1 0-3.1 2.1-3.1 2.1v10.4h-4V67.7h4V79s1.4-2.3 4.5-2.3c3-.1 5.7 2.1 5.7 5.9Zm17.6 0v10.2h-4v-9.2c0-2.3-1.4-3.2-3.1-3.2-2.1 0-3.1 2-3.1 2v10.4h-4V77h3.7v2.3s1.4-2.7 4.7-2.7c3.1 0 5.8 2.2 5.8 6Zm15.1 2.3c0-2.5-1.7-4.6-4.4-4.6s-4.4 2.1-4.4 4.6c0 2.5 1.7 4.6 4.4 4.6s4.4-2.1 4.4-4.6Zm4 0c0 4.6-3.7 8.3-8.4 8.3s-8.4-3.7-8.4-8.3c0-4.7 3.7-8.3 8.4-8.3s8.4 3.7 8.4 8.3Zm2.5-17.2h4v25.2h-4V67.7Zm19.2 17.2c0-2.5-1.7-4.6-4.4-4.6s-4.4 2.1-4.4 4.6c0 2.5 1.7 4.6 4.4 4.6s4.4-2.1 4.4-4.6Zm4.1 0c0 4.6-3.7 8.3-8.4 8.3s-8.4-3.7-8.4-8.3c0-4.7 3.7-8.3 8.4-8.3 4.6 0 8.4 3.7 8.4 8.3Zm13.7-2.3s-1.1-2.2-3.8-2.2c-2.7 0-4.3 2-4.3 4.6 0 2.6 1.6 4.6 4.3 4.6 2.6 0 3.8-2.2 3.8-2.2v-4.8ZM572 93.2c-4.1 0-7.7-3.4-7.7-8.3s3.6-8.3 7.7-8.3c3.3 0 4.8 2.5 4.8 2.5V77h3.7v15.9c0 5.5-4.1 7.9-8.5 7.9-4.5 0-7.5-3-7.5-3l2.3-3.1S569 97 572 97c3.1 0 4.5-1.7 4.5-4.1V91c-.6.8-2 2.2-4.5 2.2Zm12.1 2.9s1.1 1 2.1 1c1.4 0 1.9-.4 2.7-2.3l.6-1.6-7.7-16.1h4.4l5.3 11.5 4.2-11.5h4.3l-7.7 19.3c-1.4 3.5-3.6 4.5-5.9 4.5-2.4 0-4.2-1.7-4.2-1.7l1.9-3.1ZM36.7 36.2h69.5v20.9H36.7V36.2Zm0 56.6h69.5V72H36.7v20.8Z"/>
	<path fill="#561D5A" d="M36.7 21.3h69.5V.4H36.7v20.9ZM.1 92.8H21V.4H.1v92.4ZM117.3.5v20.9h24.3v71.5h20.9V21.4h24.3V.5h-69.5Z"/>
  </svg>
  