<?xml version="1.0" encoding="utf-8"?>
<!-- Generator: Adobe Illustrator 19.0.0, SVG Export Plug-In . SVG Version: 6.00 Build 0)  -->
<svg version="1.1" id="layer" xmlns="http://www.w3.org/2000/svg" xmlns:xlink="http://www.w3.org/1999/xlink" x="0px" y="0px"
	 viewBox="-153 -46 652 652" style="enable-background:new -153 -46 652 652;" xml:space="preserve">
<style type="text/css">
	.st0{fill:#9C67A8;}
	.st1{fill:#561D5A;}
</style>
<polygon class="st0" points="75.5,270 69.1,270 69.1,266.2 85.9,266.2 85.9,270 79.5,270 79.5,289.5 75.5,289.5 "/>
<g>
	<path class="st0" d="M101.7,279.3v10.2h-4v-9.2c0-2.3-1.4-3.2-3.1-3.2c-2.1,0-3.1,2.1-3.1,2.1v10.4h-4v-25.2h4v11.3
		c0,0,1.4-2.3,4.5-2.3S101.7,275.5,101.7,279.3"/>
	<path class="st0" d="M115.9,280.2c-0.1-1.4-1.3-3.2-4-3.2c-2.6,0-3.7,1.8-3.9,3.2H115.9z M119.9,281.6c0,0.3,0,0.9,0,1.5h-11.8
		c0.3,1.4,1.9,3.2,4.4,3.2c2.8,0,4.3-1.6,4.3-1.6l2,3c0,0-2.5,2.3-6.3,2.3c-4.8,0-8.5-3.7-8.5-8.3c0-4.6,3.4-8.3,7.9-8.3
		C116.3,273.4,119.9,276.7,119.9,281.6"/>
</g>
<rect x="133.5" y="266.2" class="st0" width="4" height="23.3"/>
<g>
	<path class="st0" d="M155.6,279.3v10.2h-4v-9.2c0-2.3-1.4-3.2-3.1-3.2c-2.1,0-3.1,2-3.1,2v10.4h-4v-15.8h3.7v2.3
		c0,0,1.4-2.7,4.7-2.7C152.9,273.4,155.6,275.5,155.6,279.3"/>
	<path class="st0" d="M159.6,284.2c0,0,2.1,2.3,4.8,2.3c1.6,0,3-0.5,3-1.4c0-1-0.7-1.2-3.1-1.7c-3.1-0.7-5.9-2-5.9-5
		c0-2.5,2.5-4.9,6.8-4.9c3.6,0,5.9,1.9,5.9,1.9l-2,2.9c0,0-1.8-1.4-3.9-1.4c-1.5,0-2.9,0.5-2.9,1.5s1.1,1.2,3.7,1.8
		c3.1,0.7,5.4,1.7,5.4,5c0,2.7-2.9,4.9-6.9,4.9c-4.6,0-7.1-2.9-7.1-2.9L159.6,284.2z"/>
	<path class="st0" d="M172.5,273.8h3.1v-4.7h4v4.7h4.8v3.6h-4.8v6.4c0,1.9,1,2.5,2.1,2.5c0.9,0,1.7-0.6,1.7-0.6l1.5,3.3
		c0,0-1.5,1-3.8,1c-3.1,0-5.4-2.2-5.4-5.6v-7h-3.1V273.8z"/>
	<path class="st0" d="M186.5,273.8h4v15.8h-4V273.8z M188.5,266c1.5,0,2.6,1.2,2.6,2.6c0,1.5-1.2,2.6-2.6,2.6
		c-1.5,0-2.6-1.2-2.6-2.6C185.9,267.2,187,266,188.5,266"/>
	<path class="st0" d="M191.8,273.8h3.1v-4.7h4v4.7h4.8v3.6h-4.8v6.4c0,1.9,1,2.5,2.1,2.5c0.9,0,1.7-0.6,1.7-0.6l1.5,3.3
		c0,0-1.5,1-3.8,1c-3.1,0-5.4-2.2-5.4-5.6v-7h-3.1V273.8z"/>
	<path class="st0" d="M205.5,284v-10.2h4v9.1c0,2.3,1.1,3.3,3.1,3.3c2.1,0,3.1-1.9,3.1-1.9v-10.5h4v15.8H216v-2.3
		c0,0-1.5,2.7-4.7,2.7C208.3,289.9,205.5,287.8,205.5,284"/>
	<path class="st0" d="M221.4,273.8h3.1v-4.7h4v4.7h4.8v3.6h-4.8v6.4c0,1.9,1,2.5,2.1,2.5c0.9,0,1.7-0.6,1.7-0.6l1.5,3.3
		c0,0-1.5,1-3.8,1c-3.1,0-5.4-2.2-5.4-5.6v-7h-3.1V273.8z"/>
	<path class="st0" d="M235.3,273.8h4v15.8h-4V273.8z M237.3,266c1.5,0,2.6,1.2,2.6,2.6c0,1.5-1.2,2.6-2.6,2.6
		c-1.5,0-2.6-1.2-2.6-2.6C234.7,267.2,235.9,266,237.3,266"/>
	<path class="st0" d="M254.3,281.6c0-2.5-1.7-4.6-4.4-4.6c-2.7,0-4.4,2.1-4.4,4.6c0,2.5,1.7,4.6,4.4,4.6
		C252.6,286.2,254.3,284.1,254.3,281.6 M258.3,281.6c0,4.6-3.7,8.3-8.4,8.3c-4.7,0-8.4-3.7-8.4-8.3c0-4.7,3.7-8.3,8.4-8.3
		C254.6,273.4,258.3,277,258.3,281.6"/>
	<path class="st0" d="M275,279.3v10.2h-4v-9.2c0-2.3-1.4-3.2-3.1-3.2c-2.1,0-3.1,2-3.1,2v10.4h-4v-15.8h3.7v2.3c0,0,1.4-2.7,4.7-2.7
		C272.3,273.4,275,275.5,275,279.3"/>
	<path class="st0" d="M300.5,281.6c0-2.5-1.7-4.6-4.4-4.6s-4.4,2.1-4.4,4.6c0,2.5,1.7,4.6,4.4,4.6S300.5,284.1,300.5,281.6
		 M304.6,281.6c0,4.6-3.7,8.3-8.4,8.3c-4.7,0-8.4-3.7-8.4-8.3c0-4.7,3.7-8.3,8.4-8.3C300.8,273.4,304.6,277,304.6,281.6"/>
	<path class="st0" d="M305.2,273.8h3.1v-3.9c0-4.4,3.1-5.9,5.7-5.9c2.2,0,3.5,0.8,3.5,0.8l-1.5,3.4c0,0-0.6-0.5-1.6-0.5
		c-0.8,0-2.1,0.4-2.1,2.4v3.7h3.9v3.6h-3.9v12.2h-4v-12.2h-3.1V273.8z"/>
</g>
<polygon class="st0" points="75.1,309 84.4,309 84.4,312.8 75.1,312.8 75.1,319 85.4,319 85.4,322.8 71.1,322.8 71.1,299.5 
	85.2,299.5 85.2,303.3 75.1,303.3 "/>
<g>
	<path class="st0" d="M102.8,312.6v10.2h-4v-9.2c0-2.3-1.4-3.2-3.1-3.2c-2.1,0-3.1,2-3.1,2v10.4h-4V307h3.7v2.3c0,0,1.4-2.7,4.7-2.7
		C100,306.6,102.8,308.8,102.8,312.6"/>
	<path class="st0" d="M117.3,312.6c0,0-1.1-2.2-3.8-2.2c-2.7,0-4.3,2-4.3,4.6c0,2.6,1.6,4.6,4.3,4.6c2.6,0,3.8-2.2,3.8-2.2V312.6z
		 M112.9,323.2c-4.1,0-7.7-3.4-7.7-8.3c0-4.9,3.6-8.3,7.7-8.3c3.3,0,4.8,2.5,4.8,2.5V307h3.7v15.9c0,5.5-4.1,7.9-8.5,7.9
		c-4.5,0-7.5-3-7.5-3l2.3-3.1c0,0,2.2,2.3,5.2,2.3c3.1,0,4.5-1.7,4.5-4.1v-1.9C116.8,321.8,115.4,323.2,112.9,323.2"/>
	<path class="st0" d="M124.8,307h4v15.8h-4V307z M126.8,299.3c1.5,0,2.6,1.2,2.6,2.6c0,1.5-1.2,2.6-2.6,2.6c-1.5,0-2.6-1.2-2.6-2.6
		C124.1,300.5,125.3,299.3,126.8,299.3"/>
	<path class="st0" d="M146.4,312.6v10.2h-4v-9.2c0-2.3-1.4-3.2-3.1-3.2c-2.1,0-3.1,2-3.1,2v10.4h-4V307h3.7v2.3c0,0,1.4-2.7,4.7-2.7
		C143.6,306.6,146.4,308.8,146.4,312.6"/>
	<path class="st0" d="M160.5,313.5c-0.1-1.4-1.3-3.2-4-3.2c-2.6,0-3.7,1.8-3.9,3.2H160.5z M164.5,314.9c0,0.3,0,0.9,0,1.5h-11.8
		c0.3,1.4,1.9,3.2,4.4,3.2c2.8,0,4.3-1.6,4.3-1.6l2,3c0,0-2.5,2.3-6.3,2.3c-4.8,0-8.5-3.7-8.5-8.3c0-4.6,3.4-8.3,7.9-8.3
		C160.9,306.6,164.5,310,164.5,314.9"/>
	<path class="st0" d="M177.9,313.5c-0.1-1.4-1.3-3.2-4-3.2c-2.6,0-3.7,1.8-3.9,3.2H177.9z M181.9,314.9c0,0.3,0,0.9,0,1.5h-11.8
		c0.3,1.4,1.9,3.2,4.4,3.2c2.8,0,4.3-1.6,4.3-1.6l2,3c0,0-2.5,2.3-6.3,2.3c-4.8,0-8.5-3.7-8.5-8.3c0-4.6,3.4-8.3,7.9-8.3
		C178.3,306.6,181.9,310,181.9,314.9"/>
	<path class="st0" d="M195.2,307.1l-1.4,3.6c0,0-0.7-0.4-1.9-0.4c-2.4,0-3.5,2.1-3.5,2.1v10.3h-4V307h3.8v2.3c0,0,1.4-2.7,4.3-2.7
		C193.9,306.6,195.2,307.1,195.2,307.1"/>
	<path class="st0" d="M196.7,307h4v15.8h-4V307z M198.7,299.3c1.5,0,2.6,1.2,2.6,2.6c0,1.5-1.2,2.6-2.6,2.6c-1.5,0-2.6-1.2-2.6-2.6
		C196,300.5,197.2,299.3,198.7,299.3"/>
	<path class="st0" d="M218.3,312.6v10.2h-4v-9.2c0-2.3-1.4-3.2-3.1-3.2c-2.1,0-3.1,2-3.1,2v10.4h-4V307h3.7v2.3c0,0,1.4-2.7,4.7-2.7
		C215.5,306.6,218.3,308.8,218.3,312.6"/>
	<path class="st0" d="M232.8,312.6c0,0-1.1-2.2-3.8-2.2c-2.7,0-4.3,2-4.3,4.6c0,2.6,1.6,4.6,4.3,4.6c2.6,0,3.8-2.2,3.8-2.2V312.6z
		 M228.4,323.2c-4.1,0-7.7-3.4-7.7-8.3c0-4.9,3.6-8.3,7.7-8.3c3.3,0,4.8,2.5,4.8,2.5V307h3.7v15.9c0,5.5-4.1,7.9-8.5,7.9
		c-4.5,0-7.5-3-7.5-3l2.3-3.1c0,0,2.2,2.3,5.2,2.3c3.1,0,4.5-1.7,4.5-4.1v-1.9C232.3,321.8,230.9,323.2,228.4,323.2"/>
	<path class="st0" d="M259.8,318.1v-1.6c0,0-1.4-0.8-3.6-0.8c-1.2,0-2.9,0.5-2.9,2.2c0,1.7,1.6,2,2.9,2
		C258.5,319.9,259.8,318.1,259.8,318.1 M263.8,312.5v10.3h-3.7v-2c0,0-1.6,2.4-5.2,2.4c-3,0-5.7-1.9-5.7-5.3c0-3,2.8-5.2,6.2-5.2
		c2.9,0,4.4,1.1,4.4,1.1v-0.9c0-2.1-2-2.7-3.4-2.7c-2.3,0-4.7,1.2-4.7,1.2l-1.3-3.3c0,0,2.9-1.4,6.2-1.4
		C261.1,306.6,263.8,308.9,263.8,312.5"/>
	<path class="st0" d="M281.4,312.6v10.2h-4v-9.2c0-2.3-1.4-3.2-3.1-3.2c-2.1,0-3.1,2-3.1,2v10.4h-4V307h3.7v2.3c0,0,1.4-2.7,4.7-2.7
		C278.6,306.6,281.4,308.8,281.4,312.6"/>
	<path class="st0" d="M295.9,312.6c0,0-1.1-2.2-3.8-2.2c-2.7,0-4.3,2-4.3,4.6c0,2.6,1.6,4.6,4.3,4.6c2.6,0,3.8-2.2,3.8-2.2V312.6z
		 M299.9,322.8h-3.7v-2.1c0,0-1.4,2.5-4.8,2.5c-4.1,0-7.7-3.4-7.7-8.3c0-4.9,3.6-8.3,7.7-8.3c3,0,4.5,2.1,4.5,2.1v-11h4V322.8z"/>
</g>
<polygon class="st0" points="318.4,303.3 312,303.3 312,299.5 328.8,299.5 328.8,303.3 322.4,303.3 322.4,322.8 318.4,322.8 "/>
<g>
	<path class="st0" d="M336.7,313.5c-0.1-1.4-1.3-3.2-4-3.2c-2.6,0-3.7,1.8-3.9,3.2H336.7z M340.7,314.9c0,0.3,0,0.9,0,1.5h-11.8
		c0.3,1.4,1.9,3.2,4.4,3.2c2.8,0,4.3-1.6,4.3-1.6l2,3c0,0-2.5,2.3-6.3,2.3c-4.8,0-8.5-3.7-8.5-8.3c0-4.6,3.4-8.3,7.9-8.3
		C337.1,306.6,340.7,310,340.7,314.9"/>
	<path class="st0" d="M354.6,317.6l2.6,2.7c0,0-2.3,3-6.5,3c-4.7,0-8.5-3.7-8.5-8.3c0-4.7,3.8-8.3,8.5-8.3c4.2,0,6.5,2.9,6.5,2.9
		l-2.8,2.5c0,0-1.3-1.7-3.7-1.7c-2.7,0-4.4,2.1-4.4,4.6c0,2.5,1.7,4.6,4.4,4.6C353.4,319.5,354.6,317.6,354.6,317.6"/>
	<path class="st0" d="M373.2,312.6v10.2h-4v-9.2c0-2.3-1.4-3.2-3.1-3.2c-2.1,0-3.1,2.1-3.1,2.1v10.4h-4v-25.2h4v11.3
		c0,0,1.4-2.3,4.5-2.3C370.5,306.6,373.2,308.8,373.2,312.6"/>
	<path class="st0" d="M390.8,312.6v10.2h-4v-9.2c0-2.3-1.4-3.2-3.1-3.2c-2.1,0-3.1,2-3.1,2v10.4h-4V307h3.7v2.3c0,0,1.4-2.7,4.7-2.7
		C388.1,306.6,390.8,308.8,390.8,312.6"/>
	<path class="st0" d="M405.9,314.9c0-2.5-1.7-4.6-4.4-4.6c-2.7,0-4.4,2.1-4.4,4.6c0,2.5,1.7,4.6,4.4,4.6
		C404.2,319.5,405.9,317.4,405.9,314.9 M409.9,314.9c0,4.6-3.7,8.3-8.4,8.3s-8.4-3.7-8.4-8.3c0-4.7,3.7-8.3,8.4-8.3
		S409.9,310.3,409.9,314.9"/>
</g>
<rect x="412.4" y="297.7" class="st0" width="4" height="25.2"/>
<g>
	<path class="st0" d="M431.6,314.9c0-2.5-1.7-4.6-4.4-4.6c-2.7,0-4.4,2.1-4.4,4.6c0,2.5,1.7,4.6,4.4,4.6
		C429.9,319.5,431.6,317.4,431.6,314.9 M435.7,314.9c0,4.6-3.7,8.3-8.4,8.3c-4.7,0-8.4-3.7-8.4-8.3c0-4.7,3.7-8.3,8.4-8.3
		C431.9,306.6,435.7,310.3,435.7,314.9"/>
	<path class="st0" d="M449.4,312.6c0,0-1.1-2.2-3.8-2.2c-2.7,0-4.3,2-4.3,4.6c0,2.6,1.6,4.6,4.3,4.6c2.6,0,3.8-2.2,3.8-2.2V312.6z
		 M445,323.2c-4.1,0-7.7-3.4-7.7-8.3c0-4.9,3.6-8.3,7.7-8.3c3.3,0,4.8,2.5,4.8,2.5V307h3.7v15.9c0,5.5-4.1,7.9-8.5,7.9
		c-4.5,0-7.5-3-7.5-3l2.3-3.1c0,0,2.2,2.3,5.2,2.3c3.1,0,4.5-1.7,4.5-4.1v-1.9C448.9,321.8,447.5,323.2,445,323.2"/>
	<path class="st0" d="M457.1,326.1c0,0,1.1,1,2.1,1c1.4,0,1.9-0.4,2.7-2.3l0.6-1.6l-7.7-16.1h4.4l5.3,11.5l4.2-11.5h4.3l-7.7,19.3
		c-1.4,3.5-3.6,4.5-5.9,4.5c-2.4,0-4.2-1.7-4.2-1.7L457.1,326.1z"/>
</g>
<path class="st0" d="M-90.3,266.2h69.5v20.9h-69.5V266.2z M-90.3,322.8h69.5V302h-69.5V322.8z"/>
<path class="st1" d="M-90.3,251.3h69.5v-20.9h-69.5V251.3z M-126.9,322.8h20.9v-92.4h-20.9V322.8z M-9.7,230.5v20.9h24.3v71.5h20.9
	v-71.5h24.3l0-20.9H-9.7z"/>
</svg>
