<svg id="layer" xmlns="http://www.w3.org/2000/svg" viewBox="0 0 600 144.8"><defs><style>.cls-1{fill:#272425;}.cls-2{fill:#1c75bb;}.cls-3{fill:#fff;}.cls-4{fill:#fff12d;}.cls-5{fill:#cc2229;}</style></defs><title>lego-education-logo-vector</title><path class="cls-1" d="M205.7,83.6h11.5q0,10.35-6,13.5c-2.9,1.5-8.3,2.3-16.4,2.3-9,0-15.1-1.9-18.1-5.6-2.7-3.2-4-9.5-4-18.8s1.3-15.5,3.8-18.8c3-3.9,9.1-5.8,18.3-5.8,9.6,0,15.8,1.8,18.7,5.5,2.5,3.2,3.7,10.3,3.7,21.1H184.1c0,5.6.5,9.2,1.5,10.7,1.3,2,4.3,2.9,9.2,2.9,4,0,6.7-.3,7.9-.8,2-.9,3-3,3-6.2M184.2,69.7h21.5c0-4.7-.6-7.6-1.8-8.8s-4.2-1.7-9.1-1.7-7.8.7-9.1,2.1q-1.5,1.65-1.5,8.4"/><path class="cls-1" d="M259.8,98.9l.4-7.2h-.4c-2.4,5.2-7.4,7.7-15,7.7-8,0-13.4-2.5-15.9-7.5-1.7-3.2-2.5-9.4-2.5-18.4q0-12,3-16.8c2.6-4.2,7.8-6.3,15.4-6.3s12.5,2.3,14.5,6.9h.5v-27h11.5V98.9ZM248.3,59.2q-6.9,0-9,3.9c-.9,1.8-1.4,5.2-1.4,10.4,0,6.5.4,10.8,1.2,12.6,1.3,3,4.4,4.5,9.2,4.5,5.4,0,8.9-1.4,10.2-4.3.9-1.8,1.3-6.1,1.3-12.8,0-5.2-.6-8.7-1.8-10.6-1.5-2.4-4.8-3.7-9.7-3.7"/><path class="cls-1" d="M324.5,98.9H313.4V91.5h-.3c-2.2,5.3-7.3,7.9-15.2,7.9q-16.2,0-16.2-13.8V50.9h11.5V81.1c0,3.7.4,6.1,1.3,7.3,1,1.5,3.3,2.2,6.8,2.2,4.3,0,7.3-.9,9.1-2.8s2.7-5,2.7-9.3l.1-27.6h11.5v48Z"/><path class="cls-1" d="M365.8,80.6h11.5c0,7.7-1.8,12.9-5.3,15.5-2.9,2.2-8.4,3.3-16.6,3.3q-13.5,0-17.7-5.7c-2.5-3.2-3.7-9.5-3.7-18.8s1.2-15.4,3.7-18.6c3-4,8.9-5.9,17.8-5.9,7.8,0,13.2,1,16.3,3,3.7,2.4,5.6,7.2,5.6,14.3H365.9c0-3.7-.8-6.1-2.5-7.2-1.3-.9-3.9-1.4-7.9-1.4q-6.9,0-8.7,3.3c-.9,1.6-1.3,5.8-1.3,12.5s.4,10.7,1.2,12.3c1.1,2.2,4,3.4,8.8,3.4,4.4,0,7.2-.6,8.5-1.8s1.8-3.9,1.8-8.2"/><path class="cls-1" d="M416.8,98.9l.4-6h-.3a8.78,8.78,0,0,1-6.2,5.6,31.06,31.06,0,0,1-8.7.9c-6.2,0-10.6-1-13.3-2.9-3.1-2.3-4.7-6.3-4.7-12.3,0-5.7,1.6-9.7,4.9-11.9,2.7-1.8,7.1-2.7,13.1-2.7a33.24,33.24,0,0,1,8.3.7,9.33,9.33,0,0,1,6,4.7h.4V68.8c0-4.1-.5-6.9-1.6-8.1q-2-2.4-8.7-2.4c-3.1,0-5.2.3-6.4,1q-2.7,1.5-2.7,5.7H385.7c0-6.3,2.1-10.4,6.2-12.5,2.7-1.3,7.5-2,14.4-2,8.2,0,13.8,1.1,16.7,3.2q5.1,3.75,5.1,15.3V99.1H416.8ZM406.1,77.3c-3.8,0-6.3.3-7.5.8-2.1,1-3.1,3-3.1,6,0,3.2.8,5.3,2.4,6.2,1.3.8,4.1,1.2,8.2,1.2,3.7,0,6.3-.4,7.6-1.1q3-1.65,3-6.3c0-3-1.1-5-3.2-5.9-1.3-.6-3.8-.9-7.4-.9"/><path class="cls-1" d="M433.7,59.7V50.9h6V40.1h11.5V50.9h18.4v8.8H451.1V84.2q0,3.75.6,4.8c.6,1,2.1,1.5,4.3,1.5,2.9,0,4.7-1.1,5.3-3.2a32.72,32.72,0,0,0,.4-6.9h10.2c.1,6.8-.8,11.6-2.8,14.3-2.3,3.1-6.7,4.7-13.2,4.7-6.2,0-10.5-.9-12.7-2.8-2.5-2.1-3.8-6.2-3.8-12.2V59.8h-5.7Z"/><path class="cls-1" d="M492.6,40.1H481.1V30.3h11.5Zm0,58.8H481.1v-48h11.5Z"/><path class="cls-1" d="M524.3,50.4c9.6,0,15.9,1.8,18.8,5.3,2.5,3,3.8,9.5,3.8,19.3s-1.3,16.1-3.8,19.2c-2.9,3.5-9.2,5.3-18.8,5.3s-15.9-1.8-18.8-5.3c-2.5-3-3.8-9.4-3.8-19.2s1.3-16.2,3.8-19.3c2.9-3.5,9.2-5.3,18.8-5.3m0,8.8c-4.9,0-8,1-9.4,3.1-1.2,1.8-1.7,6.1-1.7,12.7s.6,10.8,1.7,12.6c1.3,2,4.4,3,9.4,3s8.2-1,9.5-3c1.1-1.7,1.7-5.9,1.7-12.6s-.6-11-1.7-12.7c-1.4-2.1-4.5-3.1-9.5-3.1"/><path class="cls-1" d="M556.6,50.9h11.5v7.2h.4a10.77,10.77,0,0,1,6-6.5,26,26,0,0,1,9-1.3c6.1,0,10.4,1.3,12.8,3.9s3.7,6.9,3.7,13V98.8H588.5V68.4c0-3.6-.6-6-1.8-7.3s-3.6-2-7.1-2c-4.6,0-7.8,1.1-9.4,3.4-1.3,1.8-2,5.1-2,10V98.9H556.6Z"/><rect class="cls-2" x="173.5" width="426.5" height="5.8"/><rect class="cls-2" x="173.5" y="139" width="294.6" height="5.8"/><rect class="cls-2" x="506.7" y="139" width="93.3" height="5.8"/><rect class="cls-3" x="1" y="1" width="142.9" height="142.9"/><path class="cls-4" d="M1,143.9H143.9V1H1ZM134.3,60.4a57.3,57.3,0,0,1-2.9,13.7c-5,14.9-10.8,24.2-24.3,24.2-4,0-11-1.1-13.6-8.1l-.6-1.7-1.1,1.4a22.35,22.35,0,0,1-17.2,8.5c-5.1,0-9.3-1.7-12-5l-.7-.9-.8.9c-2.9,3.2-7.8,5-13.7,5A14.82,14.82,0,0,1,36.3,94l-.7-.8-.7.7c-2.9,2.9-7.4,4.4-13.2,4.2-6.9-.2-11.2-4-11.3-10.4-.2-9.8,9.2-30.3,13.1-36.5A11.65,11.65,0,0,1,34.2,45c3.2,0,5.3.7,6.6,2s1.4,2.3,1.5,4.8l.1,3.2,1.7-2.8c4.1-6.7,11-7.6,17.8-7.6,4.7,0,8.9,1.7,10.5,4.4l.6,1,.9-.8c3.5-3,8.4-4.6,13.9-4.6,6,0,10.3,1.5,12.9,4.4a7,7,0,0,1,1.5,2.3l.7,1.4,1-1.2c3.8-4.5,9-6.8,15.4-6.8,5.1,0,9,1.3,11.5,4,3.3,3.6,3.7,8.3,3.5,11.7"/><path class="cls-5" d="M1,143.9H143.9V1H1Zm137.4-78c-.6,5.2-4.2,14.8-6,18.7-5,10.3-11.7,18.3-24.6,18.3-6.9,0-12.6-2.2-15.9-6.4A26.37,26.37,0,0,1,74.6,103a19.75,19.75,0,0,1-12.7-4.1A24.8,24.8,0,0,1,47.7,103a21.09,21.09,0,0,1-12.1-3.6c-3.6,2.4-8.3,3.6-13.9,3.4-9.2-.2-15.6-6.1-15.8-14.6-.2-11.3,9.3-32,13.7-39.1,3.4-5.5,8.5-8.5,14.7-8.5,6.8,0,9.3,1.9,10.5,4.4C50.1,40.5,57,40.3,62,40.3c5.5,0,8.9,1.5,11.8,3.8A27,27,0,0,1,88,40.4c7.1,0,12.3,1.6,15.9,5.3a24.07,24.07,0,0,1,15.6-5.2c7.9,0,13.1,2.8,16.1,7.1,4.3,5.9,3.6,11.9,2.8,18.3"/><path class="cls-1" d="M0,144.8H144.8V0H0Zm142.8-2H2V2H142.8Z"/><path class="cls-1" d="M137.7,43.5v-1h.7c.5,0,.7.2.7.5s-.2.5-.7.5Zm2.4,2-.4-.7c-.4-.6-.5-.7-.8-.8h0a1.07,1.07,0,0,0,1-1,1,1,0,0,0-1.1-1H137v3.6h.7V44.1h.1c.3,0,.4,0,.6.2a2.1,2.1,0,0,1,.5.7l.3.6h.9Zm-1.8-4.6a2.8,2.8,0,0,1,2.8,2.8,2.8,2.8,0,1,1-2.8-2.8m0-.7a3.54,3.54,0,0,0-3.5,3.5,3.5,3.5,0,1,0,3.5-3.5"/><path class="cls-1" d="M119.4,44c-7.5,0-12.7,3-16.2,7.1a8.38,8.38,0,0,0-1.7-2.5c-2.9-3.2-7.5-4.8-13.7-4.8a22.31,22.31,0,0,0-14.6,4.9c-1.8-3-6.1-4.9-11.4-4.9-6.8,0-14.2,1-18.7,8.1-.1-2.6-.3-3.9-1.8-5.4-1.7-1.8-4.6-2.3-7.3-2.3-5,0-8.8,2.2-11.5,6.7C18.6,57.2,9,77.9,9.2,88c.1,6.5,4.5,11.2,12.3,11.3,6.1.1,10.8-1.5,13.9-4.5,2.7,3,6.9,4.7,11.8,4.7,5.5,0,11.1-1.7,14.4-5.3,2.8,3.4,7.1,5.4,12.7,5.4a23,23,0,0,0,18-8.8c2.3,6.3,8.2,8.8,14.6,8.8,14,0,20.2-9.6,25.3-24.9a54,54,0,0,0,2.9-14c.7-8.3-2.7-16.7-15.7-16.7M26.2,82.2c7.2-1.3,9.1,1.4,8.8,3.8-.7,7.3-7.3,8.9-13.1,8.8-4.2-.1-8-2-8.1-6.9-.2-8.5,8.5-28.2,12.6-34.8,1.9-3.1,4.2-4.6,7.9-4.6,3.5,0,4.3,1.8,4.3,3.9-.1,5.7-9.4,23.1-12.4,29.8m23.6-6.7a61.49,61.49,0,0,0-2.1,6.9,22.9,22.9,0,0,1,7.2-.9c3.5.1,5.7,1.5,5.7,4.4,0,7-7.7,9-13.1,9-5.9,0-11-3.3-11-9.8,0-7.5,4.1-19,7.9-26.6,4.7-9.3,9.5-10.6,17.8-10.6,3.6,0,7.8,1.6,7.8,5,0,4.8-4,6.6-8,6.8a58.56,58.56,0,0,1-5.9.1,33.5,33.5,0,0,0-2.7,5.6c7.4-1,10.6.6,9.3,4.9-1.7,6-6.7,6.3-12.9,5.2m36.5-18c-2,0-3.3,1.3-4.3,2.6-2.1,3-6.8,15.1-7.5,20.1-.5,3.4,1,4.1,2.6,4.1,2.6,0,5.5-2.7,6.4-7.2,0,0-4.9-.1-3.5-4.5,1.3-4.2,3.8-5.1,7.9-5.3,8.1-.3,7.3,5.7,6.7,8.9C92.5,86.6,85.1,95,74.6,95,67.4,95,63,91,63,83.7c0-5.2,2.6-13.4,4.6-18.2C72,55.3,76.5,48.2,88.2,48.2c7,0,12.5,2.5,11.7,9.1-.6,4.8-3,7.6-7.4,8-1.2.1-6.2,0-4.6-4.8.6-1.7.8-3-1.6-3m44,8.6a69.83,69.83,0,0,1-7,18.8c-4.9,8.8-10.9,10.1-16.1,10s-11.1-2-11.1-10c0-5.8,2.5-13.9,4.6-19.2,3.7-9.7,7.4-17.5,19.3-17.4,13.8.1,11.3,12.5,10.3,17.8m-9.9-6c-.1,3.7-5.6,18.5-7.5,21.8-.8,1.4-1.8,2.6-3.5,2.6-1.5,0-2.1-1.1-2.2-2.3-.1-3.3,6-20.1,8.1-22.8a3.42,3.42,0,0,1,3.2-1.7c1.7.1,1.9,1.3,1.9,2.4"/></svg>